<?xml version="1.0" standalone="no"?><!DOCTYPE svg PUBLIC "-//W3C//DTD SVG 1.1//EN" "http://www.w3.org/Graphics/SVG/1.1/DTD/svg11.dtd"><svg t="1576462875162" class="icon" viewBox="0 0 1025 1024" version="1.1" xmlns="http://www.w3.org/2000/svg" p-id="3992" xmlns:xlink="http://www.w3.org/1999/xlink" width="200.1953125" height="200"><defs><style type="text/css"></style></defs><path d="M512 170.666667c226.133333 0 430.933333 130.133333 509.866667 326.4 4.266667 10.666667 4.266667 21.333333 0 32C942.933333 723.2 738.133333 853.333333 512 853.333333S81.066667 723.2 2.133333 526.933333c-4.266667-10.666667-4.266667-21.333333 0-32C81.066667 300.8 285.866667 170.666667 512 170.666667z m0 597.333333c185.6 0 354.133333-102.4 422.4-256-68.266667-153.6-236.8-256-422.4-256S157.866667 358.4 89.6 512C157.866667 665.6 326.4 768 512 768z" fill="#FFC807" p-id="3993"></path><path d="M512 320c106.666667 0 192 85.333333 192 192s-85.333333 192-192 192-192-85.333333-192-192 85.333333-192 192-192z m0 298.666667c59.733333 0 106.666667-46.933333 106.666667-106.666667s-46.933333-106.666667-106.666667-106.666667-106.666667 46.933333-106.666667 106.666667 49.066667 106.666667 106.666667 106.666667z" fill="#FFC807" p-id="3994"></path></svg>