<?xml version="1.0" encoding="UTF-8"?>
<svg width="47px" height="47px" viewBox="0 0 47 47" version="1.1" xmlns="http://www.w3.org/2000/svg" xmlns:xlink="http://www.w3.org/1999/xlink">
    <!-- Generator: Sketch 52.2 (67145) - http://www.bohemiancoding.com/sketch -->
    <title>home 2</title>
    <desc>Created with Sketch.</desc>
    <g id="icon" stroke="none" stroke-width="1" fill="none" fill-rule="evenodd">
        <g id="home-copy" transform="translate(-1.000000, 0.935711)" fill="#CACAD9" fill-rule="nonzero">
            <path d="M24.573972,4.01663244 L42.7752191,20.6542163 C41.8483807,20.7679383 40.97841,21.1489082 40.2847023,21.7573227 L40.2733301,21.768695 L40.2619579,21.7800672 C39.5909944,22.3771086 38.7949408,23.4290421 38.7949408,25.0836968 L38.7949408,40.5783607 L32.1308237,40.5783607 L32.1308237,33.9938504 C32.1308237,31.520393 30.0838244,29.5131922 27.5648738,29.5131922 L21.5603205,29.5131922 C19.0413749,29.5131922 16.9943706,31.5260778 16.9943706,33.9938504 L16.9943706,40.572696 L10.4098604,40.572696 L10.4098604,25.0496083 C10.4098604,22.775163 8.67559377,20.8873724 6.43526714,20.6030686 L24.5739517,4.01666784 L24.573972,4.01663244 Z M24.5739517,0.332068171 C23.9371068,0.332068171 23.3002619,0.548140649 22.8453748,0.974597825 L1.90340581,20.1197477 C1.15284042,20.7622774 0.936768944,21.7289192 1.34048302,22.6102645 C1.7441971,23.4688656 2.60279823,23.9749306 3.59218421,23.9749306 L5.8438854,23.9749306 C6.48641505,23.9749306 6.99816486,24.4582501 6.99816486,25.0439185 L6.99816486,41.7269704 C6.99816486,42.9608568 8.09558658,43.9786716 9.43750865,43.9786716 L17.9666722,43.9786716 C19.3085943,43.9786716 20.406016,42.9608568 20.406016,41.7269704 L20.406016,33.9938755 C20.406016,33.4025188 20.9177658,32.9248877 21.5602955,32.9248877 L27.5648487,32.9248877 C28.2073783,32.9248877 28.7191282,33.4082071 28.7191282,33.9938755 L28.7191282,41.7326853 C28.7191282,42.9665716 29.8165499,43.9843865 31.1869008,43.9843865 L39.7160644,43.9843865 C41.0864153,43.9843865 42.2122659,42.9665716 42.2122659,41.7326853 L42.2122659,25.0723925 C42.2122659,24.75397 42.2918713,24.5378986 42.5363741,24.3218271 C42.7524466,24.1341855 43.048124,24.0261492 43.3665464,24.0261492 L45.481778,24.0261492 C46.4768487,24.0261492 47.3297651,23.4916553 47.7334792,22.6614831 C48.1883682,21.7801378 47.9722957,20.7850671 47.2785901,20.1425374 L26.3081972,0.974678535 C25.8533081,0.548220356 25.2107755,0.332148881 24.5739306,0.332148881 L24.5739517,0.332068171 Z" id="Shape"></path>
        </g>
    </g>
</svg>