<?xml version="1.0" encoding="UTF-8"?>
<svg width="47px" height="47px" viewBox="0 0 47 47" version="1.1" xmlns="http://www.w3.org/2000/svg" xmlns:xlink="http://www.w3.org/1999/xlink">
    <!-- Generator: Sketch 52.2 (67145) - http://www.bohemiancoding.com/sketch -->
    <title>邀请</title>
    <desc>Created with Sketch.</desc>
    <g id="icon" stroke="none" stroke-width="1" fill="none" fill-rule="evenodd">
        <g id="邀请" transform="translate(2.000000, 3.000000)" fill="#3697FF">
            <path d="M41.2260856,10.6288051 C41.0501283,9.4828272 40.0801077,8.65266998 38.9205946,8.65266998 L36.5835216,8.65266998 L36.5835216,10.2092148 L38.9205946,10.2092148 C39.1822746,10.2092148 39.4168842,10.3400548 39.5567477,10.5430823 L36.5835216,13.5163085 L36.5835216,14.6171691 L23.2017482,27.9989425 C21.9880944,29.2125963 20.0074476,29.2125963 18.7937938,27.9989425 L5.41653218,14.6216808 L5.41653218,13.5208202 L2.44330607,10.5475941 C2.58316951,10.3445665 2.81777916,10.2137265 3.07945915,10.2137265 L5.41653218,10.2137265 L5.41653218,8.65718171 L3.07945915,8.65718171 C1.91994608,8.65718171 0.954437148,9.48733892 0.773968188,10.6333168 C0.737874396,10.8769499 0.819085428,11.1296065 0.995042664,11.3055637 L18.2478752,28.5538845 C19.0058449,29.3118542 20.0029359,29.690839 21.0000269,29.690839 C21.9971179,29.690839 22.9942089,29.3118542 23.7521785,28.5538845 L41.0050111,11.301052 C41.1809683,11.1250947 41.2621794,10.8769499 41.2260856,10.6288051 Z" id="Path"></path>
            <path d="M38.9205946,8.65266998 L36.5835216,8.65266998 L36.5835216,1.64145089 C36.5835216,0.779711604 35.8842044,0.084906108 35.0269768,0.084906108 L6.97758869,0.084906108 C6.1158494,0.084906108 5.42104391,0.784223328 5.42104391,1.64145089 L5.42104391,8.65266998 L3.08397088,8.65266998 C1.79361781,8.65266998 0.746897844,9.69938995 0.746897844,10.989743 L0.746897844,37.4825863 C0.746897844,38.7729394 1.79361781,39.8196594 3.08397088,39.8196594 L38.9251063,39.8196594 C40.2154594,39.8196594 41.2621794,38.7729394 41.2621794,37.4825863 L41.2621794,10.989743 C41.2576676,9.69938995 40.2109477,8.65266998 38.9205946,8.65266998 Z M15.2340436,11.332634 C16.7184008,9.53245616 19.3893414,9.43770996 21.0000269,11.0483954 C22.6107123,9.43770996 25.281653,9.53245616 26.7660102,11.332634 C28.0608749,12.902714 27.830777,15.239787 26.3915371,16.679027 L22.1008875,20.9696765 C21.4918048,21.5787592 20.5037372,21.5787592 19.8991662,20.9696765 L15.6085167,16.679027 C14.1692767,15.239787 13.9391788,12.902714 15.2340436,11.332634 Z M39.7011229,37.4825863 C39.7011229,37.9112001 39.3537201,38.2631146 38.9205946,38.2631146 L3.07945915,38.2631146 C2.65084537,38.2631146 2.2989309,37.9157118 2.2989309,37.4825863 L2.2989309,10.989743 C2.2989309,10.5611292 2.64633365,10.2092148 3.07945915,10.2092148 L5.41653218,10.2092148 L5.41653218,14.6216808 L18.7937938,27.9989425 C20.0074476,29.2125963 21.9880944,29.2125963 23.2017482,27.9989425 L36.5790099,14.6216808 L36.5790099,10.2092148 L38.9160829,10.2092148 C39.3446967,10.2092148 39.6966111,10.5566175 39.6966111,10.989743 L39.6966111,37.4825863 L39.7011229,37.4825863 Z" id="Shape" stroke="#3697FF" fill-rule="nonzero"></path>
        </g>
    </g>
</svg>