<?xml version="1.0" encoding="UTF-8"?>
<svg width="47px" height="47px" viewBox="0 0 47 47" version="1.1" xmlns="http://www.w3.org/2000/svg" xmlns:xlink="http://www.w3.org/1999/xlink">
    <!-- Generator: Sketch 52.2 (67145) - http://www.bohemiancoding.com/sketch -->
    <title>我</title>
    <desc>Created with Sketch.</desc>
    <g id="icon" stroke="none" stroke-width="1" fill="none" fill-rule="evenodd">
        <path d="M28.4220307,24.1547735 L27.7372799,24.1547735 C31.0977839,22.3672714 33.3940365,18.8032672 33.3940365,14.6920124 C33.3940365,8.78775557 28.666781,4 22.8395242,4 C17.0095175,4 12.285012,8.78500557 12.285012,14.6920124 C12.285012,18.8032672 14.5785146,22.3672714 17.9417686,24.1547735 L17.5292681,24.1547735 C2.95425111,29.1955293 2,42.2690445 2,42.2690445 L4.45300285,42.2690445 C6.63100539,29.6052798 18.7502695,26.0605257 18.7502695,26.0605257 L27.74003,26.0605257 C39.9967942,29.0580292 42.5845472,42.2690445 42.5845472,42.2690445 L44.9000499,42.2690445 C41.7677963,26.7452765 28.4220307,24.1547735 28.4220307,24.1547735 Z" id="Path" stroke="#CACAD9" stroke-width="0.2" fill="#3697FF"></path>
    </g>
</svg>