<?xml version="1.0" standalone="no"?><!DOCTYPE svg PUBLIC "-//W3C//DTD SVG 1.1//EN" "http://www.w3.org/Graphics/SVG/1.1/DTD/svg11.dtd"><svg t="1577322083098" class="icon" viewBox="0 0 1024 1024" version="1.1" xmlns="http://www.w3.org/2000/svg" p-id="2660" xmlns:xlink="http://www.w3.org/1999/xlink" width="200" height="200"><defs><style type="text/css"></style></defs><path d="M776.471273 1020.113455 247.552 1020.113455c-134.353455 0-243.665455-109.288727-243.665455-243.642182L3.886545 247.552c0-134.353455 109.312-243.665455 243.665455-243.665455l528.942545 0c134.330182 0 243.642182 109.312 243.642182 243.665455l0 528.942545C1020.113455 910.824727 910.824727 1020.113455 776.471273 1020.113455zM247.552 50.432c-108.683636 0-197.12 88.413091-197.12 197.12l0 528.942545c0 108.683636 88.413091 197.096727 197.12 197.096727l528.942545 0c108.683636 0 197.096727-88.413091 197.096727-197.096727L973.591273 247.552c0-108.683636-88.413091-197.12-197.096727-197.12L247.552 50.432z" p-id="2661"></path><path d="M767.092364 419.258182c-71.563636 0-129.792-58.205091-129.792-129.768727 0-71.563636 58.228364-129.792 129.792-129.792s129.792 58.205091 129.792 129.792C896.884364 361.053091 838.656 419.258182 767.092364 419.258182zM767.092364 206.242909c-45.917091 0-83.246545 37.329455-83.246545 83.246545 0 45.893818 37.329455 83.223273 83.246545 83.223273s83.246545-37.329455 83.246545-83.223273C850.338909 243.595636 813.009455 206.242909 767.092364 206.242909z" p-id="2662"></path><path d="M45.521455 650.984727c-5.981091 0-11.938909-2.304-16.477091-6.865455-9.076364-9.099636-9.029818-23.831273 0.069818-32.907636l202.914909-202.007273c9.122909-9.053091 23.854545-9.053091 32.907636 0.069818 9.076364 9.122909 9.029818 23.831273-0.069818 32.907636l-202.914909 202.030545C57.390545 648.727273 51.456 650.984727 45.521455 650.984727z" p-id="2663"></path><path d="M484.468364 737.303273c-6.749091 0-13.428364-2.909091-18.013091-8.517818L230.423273 440.436364c-8.145455-9.937455-6.679273-24.599273 3.281455-32.744727 9.937455-8.145455 24.622545-6.679273 32.744727 3.281455L502.458182 699.275636c8.145455 9.960727 6.679273 24.622545-3.281455 32.744727C494.871273 735.557818 489.658182 737.303273 484.468364 737.303273z" p-id="2664"></path><path d="M484.445091 737.303273c-5.632 0-11.264-2.024727-15.732364-6.144-9.472-8.704-10.077091-23.412364-1.396364-32.884364l124.881455-135.912727c8.727273-9.472 23.435636-10.077091 32.884364-1.396364 9.448727 8.704 10.100364 23.412364 1.396364 32.884364l-124.881455 135.912727C496.989091 734.766545 490.728727 737.303273 484.445091 737.303273z" p-id="2665"></path><path d="M950.900364 880.546909c-5.166545 0-10.379636-1.722182-14.708364-5.259636L594.618182 596.130909c-9.960727-8.145455-11.426909-22.784-3.304727-32.744727s22.784-11.450182 32.744727-3.304727l341.597091 279.156364c9.960727 8.145455 11.426909 22.784 3.304727 32.744727C964.352 877.637818 957.649455 880.546909 950.900364 880.546909z" p-id="2666"></path></svg>