<?xml version="1.0" encoding="UTF-8"?>
<svg width="47px" height="47px" viewBox="0 0 47 47" version="1.1" xmlns="http://www.w3.org/2000/svg" xmlns:xlink="http://www.w3.org/1999/xlink">
    <!-- Generator: Sketch 52.2 (67145) - http://www.bohemiancoding.com/sketch -->
    <title>签到</title>
    <desc>Created with Sketch.</desc>
    <g id="icon" stroke="none" stroke-width="1" fill="none" fill-rule="evenodd">
        <g id="签到" transform="translate(3.000000, 1.000000)" fill="#3697FF" fill-rule="nonzero">
            <path d="M36.3118673,3.0260004 L32.5738824,3.0260004 L32.5738824,6.0519879 C32.5738824,7.11998172 31.5058886,8.18797984 30.2598922,8.18797984 C29.0138959,8.18797984 27.9459021,7.29798427 27.9459021,6.0519879 L27.9459021,3.0260004 L13.3499593,3.0260004 L13.3499593,6.0519879 C13.3499593,7.11998172 12.2819655,8.18797984 11.0359691,8.18797984 C9.78997272,8.18797984 8.7219789,7.29798427 8.7219789,6.0519879 L8.7219789,3.0260004 L4.62799757,3.0260004 C2.13600913,3.0260004 0,4.80599153 0,7.11998172 L0,39.8718323 C-3.05311687e-16,42.1858225 2.13599194,43.9658137 4.62799757,43.9658137 L36.3118587,43.9658137 C38.8038471,43.9658137 40.9398562,42.1858225 40.9398562,39.8718323 L40.9398562,7.11998172 C40.9398562,4.80599153 38.8038643,3.0260004 36.3118587,3.0260004 L36.3118673,3.0260004 Z M37.9138601,39.1598393 C37.9138601,39.8718366 37.2018628,40.4058357 36.3118673,40.4058357 L4.62800617,40.4058357 C3.7380106,40.4058357 3.02601329,39.8718366 3.02601329,39.1598393 L3.02601329,14.4179316 L37.9138601,14.4179316 L37.9138429,39.1598393 L37.9138601,39.1598393 Z M10.8579966,7.29795849 C11.5699939,7.29795849 11.9259904,6.94196027 11.9259904,6.40796293 L11.9259904,0.889995567 C11.9259904,0.355996508 11.3919914,2.66453526e-15 10.8579966,2.66453526e-15 C10.1459993,2.66453526e-15 9.7900028,0.355998227 9.7900028,0.889995567 L9.7900028,6.40796293 C9.61200368,6.94196198 10.146001,7.29795849 10.8579966,7.29795849 Z M30.081894,7.29795849 C30.7938913,7.29795849 31.1498878,6.94196027 31.1498878,6.40796293 L31.1498878,0.889995567 C31.1498878,0.355996508 30.6158888,0 30.081894,0 C29.3698967,0 29.0139002,0.355998227 29.0139002,0.889995567 L29.0139002,6.40796293 C29.0139002,6.94196198 29.5478992,7.29795849 30.081894,7.29795849 Z M30.9718896,21.8939013 L19.7579351,34.7098615 C19.223936,35.4218588 18.1559422,35.4218588 17.6219432,34.7098615 L11.3919828,27.4119116 C10.8579837,26.6999143 10.8579837,25.6319205 11.3919828,24.9199231 C11.9259818,24.2079258 12.9939757,24.2079258 13.5279747,24.9199231 L18.6899456,30.9719067 L28.8359105,19.4019558 C29.3699096,18.6899585 30.4379034,18.6899585 30.9719024,19.4019558 C31.5059015,20.1139531 31.5059015,21.1819469 30.9719024,21.8939442 L30.9718896,21.8939013 Z" id="Shape"></path>
        </g>
    </g>
</svg>