<?xml version="1.0" encoding="UTF-8"?>
<svg width="22px" height="25px" viewBox="0 0 22 25" version="1.1" xmlns="http://www.w3.org/2000/svg" xmlns:xlink="http://www.w3.org/1999/xlink">
    <!-- Generator: Sketch 52.2 (67145) - http://www.bohemiancoding.com/sketch -->
    <title>账户@1x</title>
    <desc>Created with Sketch.</desc>
    <g id="时光宝库web版" stroke="none" stroke-width="1" fill="none" fill-rule="evenodd">
        <g id="切图" transform="translate(-378.000000, -949.000000)" fill="#7AADDC" fill-rule="nonzero">
            <g id="账户" transform="translate(378.000000, 949.000000)">
                <path d="M13.5088573,13.7220856 L8.51290716,13.7220856 C3.83074697,13.7220856 0.0248749954,17.4554199 0.0248749954,22.0472235 L0.0248749954,22.5415046 C0.0248749954,25 3.77846376,25 8.51290716,25 L13.5088573,25 C18.0603095,25 21.9969802,25 21.9969802,22.5415046 L21.9969802,22.0472235 C21.9969802,17.4553297 18.1910175,13.7220856 13.5088573,13.7220856 Z M20.6890833,22.0471332 L20.6890833,22.5414143 C20.6890833,23.67316 16.5301182,23.67316 13.5088573,23.67316 L8.51290716,23.67316 C5.30856427,23.67316 1.33277191,23.67316 1.33277191,22.5414143 L1.33277191,22.0471332 C1.33277191,18.1837059 4.55009482,15.035835 8.51290716,15.035835 L13.5088573,15.035835 C17.4716696,15.0488353 20.6890833,18.1837059 20.6890833,22.0471332 Z M10.7623555,13.2537147 C14.4767319,13.2537147 17.5110636,10.287938 17.5110636,6.63269547 C17.5110636,2.990363 14.4898934,0.0115859406 10.7623555,0.0115859406 C7.04816066,0.0115859406 4.0139197,2.97745299 4.0139197,6.63269547 C4.0139197,10.287938 7.04816063,13.2537147 10.7623555,13.2537147 Z M10.7623555,1.35133597 C13.7572933,1.35133597 16.2030759,3.73182978 16.2030759,6.64560548 C16.2030759,9.57238146 13.7703641,11.939875 10.7623555,11.939875 C7.76741771,11.939875 5.32172586,9.55938116 5.32172583,6.64560548 C5.32172583,3.7188295 7.76741771,1.35133597 10.7623555,1.35133597 Z" id="形状"></path>
            </g>
        </g>
    </g>
</svg>