<?xml version="1.0" encoding="UTF-8"?>
<svg width="29px" height="30px" viewBox="0 0 29 30" version="1.1" xmlns="http://www.w3.org/2000/svg" xmlns:xlink="http://www.w3.org/1999/xlink">
    <!-- Generator: Sketch 52.2 (67145) - http://www.bohemiancoding.com/sketch -->
    <title>探索@1x</title>
    <desc>Created with Sketch.</desc>
    <g id="时光宝库web版" stroke="none" stroke-width="1" fill="none" fill-rule="evenodd">
        <g id="切图" transform="translate(-467.000000, -990.000000)" fill-rule="nonzero">
            <g id="探索" transform="translate(467.000000, 990.000000)">
                <g id="关系图谱" transform="translate(0.391846, 0.416260)">
                    <polygon id="Shape" fill="#B8B8B8" points="13.4297969 11.5356742 21.6226656 8.00048828 22.65625 9.23124957 14.5715178 12.6758273 26.4607177 25.5946925 25.3215115 26.7272949 13.3317195 13.7102709 3.8965779 21.8757187 2.86299353 20.6449574 12.1899986 12.5676009 5.48706055 3.02781116 6.62626668 1.89520877"></polygon>
                    <path d="M3.54003906,2.40722656 C3.53995145,3.26721658 3.99874708,4.0619176 4.74358155,4.4919379 C5.48841602,4.9219582 6.40611523,4.9219582 7.1509497,4.4919379 C7.89578417,4.0619176 8.3545798,3.26721658 8.35449219,2.40722656 C8.3545798,1.54723655 7.89578417,0.752535521 7.1509497,0.322515223 C6.40611523,-0.107505074 5.48841602,-0.107505074 4.74358155,0.322515223 C3.99874708,0.752535521 3.53995145,1.54723655 3.54003906,2.40722656 Z" id="Shape" fill="#18A15F"></path>
                    <path d="M22.3021433,28.1714027 C23.5508283,28.8891548 25.0893084,28.8891548 26.3379934,28.1714027 C27.5866784,27.4536507 28.3558401,26.1272035 28.3557129,24.6917725 C28.3558401,23.2563414 27.5866784,21.9298943 26.3379934,21.2121422 C25.0893084,20.4943901 23.5508283,20.4943901 22.3021433,21.2121422 C21.0534583,21.9298943 20.2842966,23.2563414 20.2844238,24.6917725 C20.2842966,26.1272035 21.0534583,27.4536507 22.3021433,28.1714027 Z" id="Shape" fill="#FFCE42"></path>
                    <path d="M21.6915337,9.83536773 C22.2775431,10.1736925 22.9995565,10.1736925 23.5855659,9.83536773 C24.1715754,9.49704294 24.5325396,8.87180022 24.5324707,8.19519043 C24.5325396,7.51858064 24.1715754,6.89333792 23.5855659,6.55501313 C22.9995565,6.21668833 22.2775431,6.21668833 21.6915337,6.55501313 C21.1055242,6.89333792 20.74456,7.51858064 20.7446289,8.19519043 C20.74456,8.87180022 21.1055242,9.49704294 21.6915337,9.83536773 Z" id="Shape" fill="#4D8BF5"></path>
                    <path d="M0,20.7269287 C2.17883002e-16,22.4963029 1.44228582,23.9306641 3.22143555,23.9306641 C5.00058527,23.9306641 6.44287109,22.4963029 6.44287109,20.7269287 C6.44287109,18.9575545 5.00058527,17.5231934 3.22143555,17.5231934 C1.44228582,17.5231934 2.17883002e-16,18.9575545 0,20.7269287 Z" id="Shape" fill="#DD5044"></path>
                </g>
                <g id="人-(1)" transform="translate(8.321533, 7.637939)">
                    <path d="M0,5.54016113 C3.74710876e-16,8.59990764 2.48041463,11.0803223 5.54016113,11.0803223 C8.59990764,11.0803223 11.0803223,8.59990764 11.0803223,5.54016113 C11.0803223,2.48041463 8.59990764,1.87355438e-16 5.54016113,0 C2.48041463,-1.87355438e-16 3.74710876e-16,2.48041463 0,5.54016113 Z" id="Shape" fill="#4D8BF5"></path>
                    <g id="Group" transform="translate(3.079834, 2.761230)" fill="#FFFFFF">
                        <path d="M2.52614437,2.74267104 C1.74905424,2.74267104 1.15480885,2.12557006 1.15480886,1.37133552 C1.15480887,0.617100983 1.77190984,-1.46275073e-10 2.52614437,0 C3.2803789,1.46275073e-10 3.8974799,0.617100983 3.8974799,1.37133552 C3.8974799,2.12557006 3.28037891,2.74267104 2.52614437,2.74267104 Z M2.52614437,0.297122697 C1.93189898,0.297122697 1.45193155,0.777090126 1.45193155,1.37133552 C1.45193155,1.96558091 1.93189898,2.44554834 2.52614437,2.44554834 C3.12038977,2.44554834 3.6003572,1.96558092 3.6003572,1.37133552 C3.6003572,0.777090125 3.12038977,0.297122697 2.52614437,0.297122697 Z" id="Shape"></path>
                        <path d="M4.68024096,5.53345912 L0.359159313,5.53345912 C0.290205881,5.53345912 0.198267976,5.5105042 0.129314544,5.44163944 C0.0603611115,5.37277469 0.0373766382,5.30390994 0.0373766263,5.21209028 C0.106330058,3.88070515 0.887802272,2.45750034 2.49671566,2.45750035 C4.10562904,2.45750036 4.91008573,3.88070515 4.95605469,5.21209028 C4.95605469,5.28095503 4.93307021,5.37277469 4.88710126,5.41868453 C4.8411323,5.51050419 4.74919439,5.53345911 4.68024096,5.53345912 Z M2.51970013,2.75591426 C1.09466257,2.75591426 0.428112733,3.99547973 0.359159313,5.21209028 L4.68024096,5.21209028 C4.61128753,3.99547972 3.9447377,2.75591425 2.51970013,2.75591426 Z" id="Shape"></path>
                    </g>
                </g>
            </g>
        </g>
    </g>
</svg>