<?xml version="1.0" encoding="UTF-8"?>
<svg width="21px" height="22px" viewBox="0 0 21 22" version="1.1" xmlns="http://www.w3.org/2000/svg" xmlns:xlink="http://www.w3.org/1999/xlink">
    <!-- Generator: Sketch 52.2 (67145) - http://www.bohemiancoding.com/sketch -->
    <title>退出@1x</title>
    <desc>Created with Sketch.</desc>
    <g id="时光宝库web版" stroke="none" stroke-width="1" fill="none" fill-rule="evenodd">
        <g id="切图" transform="translate(-499.000000, -948.000000)" fill="#EA8585" fill-rule="nonzero">
            <g id="退出" transform="translate(499.000000, 948.000000)">
                <path d="M10.7388918,10.9786953 C10.2956103,10.9871325 9.92908044,10.6343967 9.91934141,10.189988 L9.91934141,0.792829426 C9.91934141,0.3558801 10.2866315,0 10.7388918,0 C11.1925225,0 11.5611831,0.357254154 11.5611831,0.792829426 L11.5611831,10.1858659 C11.557222,10.4001581 11.4684978,10.6040914 11.314537,10.7527838 C11.1605763,10.9014761 10.9539965,10.9827416 10.7402622,10.9786953 L10.7388918,10.9786953 Z M10.4922043,21.9848717 C7.73020065,21.9952325 5.0720412,20.9301851 3.07787777,19.0141659 C2.12537906,18.0975763 1.36172517,17.0023339 0.830281543,15.7906341 C-0.387244482,13.0031179 -0.248064667,9.80734629 1.20716505,7.13683897 C1.9825072,5.72564592 3.07482275,4.51476013 4.39765532,3.60002274 C4.76729221,3.34463985 5.27187306,3.42572825 5.54338119,3.78414603 C5.66928689,3.95415249 5.72004001,4.1685363 5.68376566,4.37713742 C5.64749132,4.58573853 5.5273723,4.77025386 5.35151323,4.88751177 C4.2355296,5.66065213 3.31407055,6.68329406 2.65987969,7.87470621 C1.99262929,9.08916503 1.6441278,10.4537043 1.6470909,11.8402274 C1.6470909,14.1266541 2.56805715,16.2756753 4.24004949,17.8915634 C5.92005583,19.5115767 8.16404768,20.4107223 10.4949453,20.3978387 C12.8255412,20.4105099 15.0692972,19.5119518 16.7498412,17.8929374 C18.4040652,16.3165022 19.3404359,14.1284311 19.3400588,11.8402274 C19.3441616,10.4539072 18.9965881,9.08930842 18.330011,7.87470621 C17.6745495,6.68366796 16.7516269,5.66190484 15.634266,4.89025988 C15.4613089,4.7745863 15.34234,4.59372173 15.3043993,4.38877409 C15.2664586,4.18382646 15.3127689,3.97220518 15.4328046,3.80200874 L15.4465095,3.78552008 C15.7175235,3.42728459 16.2216588,3.34617077 16.5908649,3.6013968 C17.9133713,4.51552485 19.005272,5.72600049 19.7799846,7.13683897 C21.2371007,9.80672672 21.3768166,13.0031829 20.1582386,15.7906341 C19.6272629,17.0030006 18.8635604,18.0987795 17.9106424,19.0155399 C16.9478929,19.9463828 15.816598,20.6841991 14.5776216,21.1892941 C13.280224,21.7178188 11.8926042,21.9880383 10.4922043,21.9848717 Z" id="形状"></path>
            </g>
        </g>
    </g>
</svg>