<?xml version="1.0" encoding="UTF-8"?>
<svg width="23px" height="25px" viewBox="0 0 23 25" version="1.1" xmlns="http://www.w3.org/2000/svg" xmlns:xlink="http://www.w3.org/1999/xlink">
    <!-- Generator: Sketch 52.2 (67145) - http://www.bohemiancoding.com/sketch -->
    <title>消息@1x</title>
    <desc>Created with Sketch.</desc>
    <g id="时光宝库web版" stroke="none" stroke-width="1" fill="none" fill-rule="evenodd">
        <g id="切图" transform="translate(-466.000000, -947.000000)" fill="#F5A623" fill-rule="nonzero" stroke="#F5A623" stroke-width="0.4">
            <g id="消息" transform="translate(467.000000, 948.000000)">
                <path d="M20.6448261,17.9836364 L18.6580435,15.0054545 L18.6580435,8.82 C18.6580435,7.56 18.0736957,6.18545455 17.1387391,5.04 C16.086913,3.89454545 14.6844783,2.86363636 13.1651739,2.40545455 C13.1651739,2.40545455 13.0483043,2.40545455 12.8145652,2.29090909 L12.8145652,2.06181818 C12.8145652,0.916363636 11.7627391,0 10.4771739,0 C9.1916087,0 8.13978261,0.916363636 8.13978261,2.06181818 L8.13978261,2.29090909 L7.78917391,2.29090909 C6.26986957,2.74909091 4.75056522,3.78 3.8156087,4.92545455 C2.76378261,6.07090909 2.29630435,7.44545455 2.29630435,8.82 L2.29630435,15.0054545 L0.192652174,18.2127273 C-0.0410869565,18.5563636 -0.0410869565,19.0145455 0.192652174,19.4727273 C0.426391304,19.8163636 0.893869565,20.0454545 1.47821739,20.0454545 L6.62047826,20.0454545 C6.85421739,21.6490909 8.4903913,22.9090909 10.4771739,22.9090909 C12.4639565,22.9090909 14.1001304,21.6490909 14.4507391,19.9309091 L19.593,19.9309091 C20.411087,19.9309091 20.9954348,19.3581818 20.9954348,18.6709091 C20.9954348,18.4418182 20.8785652,18.2127273 20.6448261,17.9836364 Z M10.4771739,1.03090909 C11.0615217,1.03090909 11.529,1.48909091 11.6458696,1.94727273 L11.2952609,1.94727273 L11.1783913,1.94727273 L9.89282609,1.94727273 L9.42534783,1.94727273 C9.42534783,1.48909091 9.89282609,1.03090909 10.4771739,1.03090909 Z M10.4771739,21.8781818 C9.1916087,21.8781818 8.02291304,21.0763636 7.78917391,20.0454545 L13.1651739,20.0454545 C12.9314348,21.0763636 11.7627391,21.8781818 10.4771739,21.8781818 Z M19.593,18.9 L1.36134783,18.9 C1.24447826,18.9 1.24447826,18.9 1.24447826,18.7854545 L1.24447826,18.5563636 L3.465,15.2345455 L3.465,8.82 C3.465,6.52909091 5.56865217,4.12363636 8.25665217,3.32181818 C8.37352174,3.32181818 9.07473913,3.09272727 9.77595652,2.97818182 L11.1783913,2.97818182 C11.8796087,3.09272727 12.6976957,3.32181818 12.8145652,3.32181818 C15.5025652,4.23818182 17.4893478,6.52909091 17.4893478,8.82 L17.4893478,15.12 C17.4893478,15.2345455 17.4893478,15.3490909 17.6062174,15.3490909 L19.7098696,18.4418182 L19.8267391,18.5563636 L19.8267391,18.6709091 C19.8267391,18.9 19.7098696,18.9 19.593,18.9 Z" id="形状"></path>
            </g>
        </g>
    </g>
</svg>