<?xml version="1.0" encoding="UTF-8"?>
<svg width="30px" height="30px" viewBox="0 0 30 30" version="1.1" xmlns="http://www.w3.org/2000/svg" xmlns:xlink="http://www.w3.org/1999/xlink">
    <!-- Generator: Sketch 52.2 (67145) - http://www.bohemiancoding.com/sketch -->
    <title>订阅30x30 copy@1x</title>
    <desc>Created with Sketch.</desc>
    <g id="网页版web" stroke="none" stroke-width="1" fill="none" fill-rule="evenodd">
        <g id="切图" transform="translate(-380.000000, -1094.000000)" fill="#999999">
            <g id="订阅-copy" transform="translate(385.000000, 1099.000000)">
                <path d="M2.39562744,15.3413317 C1.13174012,15.3413317 0.105660632,16.3691744 0.105660632,17.6295489 C0.105660632,18.8898959 1.1317126,19.9177387 2.39562744,19.9177387 C3.6548918,19.9177387 4.68559426,18.8898959 4.68559426,17.6295489 C4.68091625,16.3691744 3.6548918,15.3413317 2.39562744,15.3413317 Z M0.954498699,0.00296597227 C0.441486475,0.00296597227 0.021731689,0.421544975 0.021731689,0.93314763 C0.021731689,1.44472284 0.441486475,1.86330185 0.954498699,1.86330185 C10.4268293,1.86330185 18.1315338,9.54642453 18.1315338,18.992222 C18.1315338,19.5038246 18.5512885,19.9223762 19.0643008,19.9223762 C19.5773405,19.9223762 19.9970953,19.5038246 19.9970953,18.992222 C19.9970953,8.51860919 11.4528537,0.00296597199 0.954498699,0.00296597227 Z" id="形状"></path>
                <path d="M9.7878686,10.2022001 C8.67320969,9.0859986 7.35800187,8.21632348 5.87488114,7.61633463 C4.34979593,6.99779593 2.68943378,6.68618041 0.94984821,6.68618041 C0.436808468,6.68618041 0.0170536829,7.10475942 0.0170536829,7.61633463 C0.0170536829,8.12793729 0.436808469,8.54651629 0.94984821,8.54651629 C7.02217603,8.54651629 11.4295462,12.9601182 11.4295462,19.0433713 C11.4295462,19.5549739 11.849301,19.9735529 12.3623408,19.9735529 C12.875353,19.9735529 13.2951078,19.5549739 13.2951078,19.0433713 C13.2951078,17.308631 12.9826169,15.6529472 12.3669913,14.127469 C11.7700226,12.6345629 10.9025275,11.3183742 9.7878686,10.2022001" id="路径"></path>
            </g>
        </g>
    </g>
</svg>