<?xml version="1.0" encoding="UTF-8"?>
<svg width="30px" height="30px" viewBox="0 0 30 30" version="1.1" xmlns="http://www.w3.org/2000/svg" xmlns:xlink="http://www.w3.org/1999/xlink">
    <!-- Generator: Sketch 52.2 (67145) - http://www.bohemiancoding.com/sketch -->
    <title>本站管理30x30@1x</title>
    <desc>Created with Sketch.</desc>
    <g id="网页版web" stroke="none" stroke-width="1" fill="none" fill-rule="evenodd">
        <g id="切图" transform="translate(-746.000000, -1030.000000)" fill="#FFFFFF" fill-rule="nonzero" stroke="#FFFFFF">
            <g id="本站管理" transform="translate(748.000000, 1034.000000)">
                <g id="电脑" stroke-width="0.2">
                    <path d="M24.8633094,0.0112195122 L2.1311408,0.0112195122 C0.95617184,0.0112195122 -4.26325641e-14,0.977713171 -4.26325641e-14,2.16536585 L-4.26325641e-14,16.5263415 C-4.26325641e-14,17.7139941 0.95617184,18.6804878 2.1311408,18.6804878 L12.7868448,18.6804878 L12.7868448,21.5526829 L7.81418294,21.5526829 C7.42205303,21.5526829 7.10380267,21.8743688 7.10380267,22.2707317 C7.10380267,22.6670946 7.42205303,22.9887805 7.81418294,22.9887805 L19.1802672,22.9887805 C19.5723971,22.9887805 19.8906475,22.6670946 19.8906475,22.2707317 C19.8906475,21.8743688 19.5723971,21.5526829 19.1802672,21.5526829 L14.2076053,21.5526829 L14.2076053,18.6804878 L24.8633094,18.6804878 C26.0382783,18.6804878 26.9944502,17.7139941 26.9944502,16.5263415 L26.9944502,2.16536585 C26.9944502,0.977713171 26.0382783,0.0112195122 24.8633094,0.0112195122 Z M25.5736896,16.5263415 C25.5736896,16.9227044 25.2554393,17.2443902 24.8633094,17.2443902 L2.1311408,17.2443902 C1.73901089,17.2443902 1.42076053,16.9227044 1.42076053,16.5263415 L1.42076053,2.16536585 C1.42076053,1.76900293 1.73901089,1.44731707 2.1311408,1.44731707 L24.8633094,1.44731707 C25.2554393,1.44731707 25.5736896,1.76900293 25.5736896,2.16536585 L25.5736896,16.5263415 Z" id="形状"></path>
                </g>
                <g id="工具-(2)" transform="translate(8.000000, 4.000000)" stroke-width="0.4">
                    <path d="M10.4772551,7.98047773 L8.00897976,5.51220243 C8.16859109,5.06757085 8.24839676,4.60583806 8.24839676,4.12700405 C8.24839676,1.85254251 6.40146559,0.00561133603 4.12700405,0.00561133603 C3.56266397,0.00561133603 3.0097247,0.119619433 2.49098785,0.341935223 L2.24587045,0.450242915 C2.22306883,0.461643725 2.20026721,0.473044534 2.18316599,0.495846154 C2.10336032,0.575651822 2.10336032,0.712461538 2.18316599,0.792267206 L2.18316599,0.797967611 L4.49182996,3.10663158 L3.10093117,4.48612955 L0.837870445,2.22306883 C0.83217004,2.22306883 0.83217004,2.22306883 0.826469636,2.21736842 C0.729562753,2.12046154 0.575651822,2.12046154 0.478744939,2.21736842 C0.450242915,2.24587045 0.4331417,2.27437247 0.421740891,2.3085749 C0.421740891,2.3142753 0.421740891,2.3085749 0.416040486,2.3085749 L0.341935223,2.48528745 C0.119619433,3.00402429 0.00561133603,3.55696356 0.00561133603,4.12130364 C0.00561133603,6.39576518 1.85254251,8.24269636 4.12700405,8.24269636 C4.60013765,8.24269636 5.06757085,8.16289069 5.51220243,8.00327935 L7.98047773,10.4715547 C8.31680162,10.8078785 8.75573279,10.9902915 9.2288664,10.9902915 C9.702,10.9902915 10.1466316,10.8078785 10.4772551,10.4715547 C11.167004,9.78750607 11.167004,8.67022672 10.4772551,7.98047773 Z M9.92431579,9.92431579 C9.73620243,10.1124291 9.49108502,10.209336 9.2288664,10.209336 C8.96664777,10.209336 8.72153036,10.1067287 8.533417,9.92431579 L5.69461538,7.07981377 L5.44949798,7.18812146 C5.02766802,7.37053441 4.58303644,7.46174089 4.12700405,7.46174089 C2.28577328,7.46174089 0.786566802,5.96253441 0.786566802,4.12130364 C0.786566802,3.86478543 0.815068826,3.61396761 0.872072874,3.3688502 L2.94702024,5.44379757 C3.03252632,5.51220243 3.15223482,5.51220243 3.2434413,5.44949798 L5.42669636,3.26624291 C5.51790283,3.17503644 5.51790283,3.03822672 5.44379757,2.94131984 L3.37455061,0.872072874 C3.61966802,0.815068826 3.87048583,0.786566802 4.12700405,0.786566802 C5.96823482,0.786566802 7.4674413,2.28577328 7.4674413,4.12700405 C7.4674413,4.58303644 7.37623482,5.03336842 7.19382186,5.44949798 L7.08551417,5.69461538 L9.93001619,8.53911741 C10.3062429,8.91534413 10.3062429,9.54238866 9.92431579,9.92431579 Z" id="形状"></path>
                </g>
            </g>
        </g>
    </g>
</svg>