<?xml version="1.0" encoding="UTF-8"?>
<svg width="21px" height="21px" viewBox="0 0 21 21" version="1.1" xmlns="http://www.w3.org/2000/svg" xmlns:xlink="http://www.w3.org/1999/xlink">
    <!-- Generator: Sketch 52.2 (67145) - http://www.bohemiancoding.com/sketch -->
    <title>订阅@1x</title>
    <desc>Created with Sketch.</desc>
    <g id="时光宝库web版" stroke="none" stroke-width="1" fill="none" fill-rule="evenodd">
        <g id="切图" transform="translate(-379.000000, -993.000000)" fill="#18A15F">
            <g id="订阅" transform="translate(379.000000, 993.000000)">
                <g>
                    <path d="M2.51540882,16.1083983 C1.18832712,16.1083983 0.110943664,17.1876332 0.110943664,18.5110264 C0.110943664,19.8343907 1.18829823,20.9136257 2.51540882,20.9136257 C3.83763639,20.9136257 4.91987397,19.8343907 4.91987397,18.5110264 C4.91496206,17.1876332 3.83763639,16.1083983 2.51540882,16.1083983 Z M1.00222363,0.00311427088 C0.463560799,0.00311427088 0.0228182735,0.442622223 0.0228182735,0.979805011 C0.0228182735,1.51695899 0.463560799,1.95646694 1.00222363,1.95646694 C10.9481707,1.95646694 19.0381104,10.0237458 19.0381104,19.9418331 C19.0381104,20.4790159 19.478853,20.918495 20.0175158,20.918495 C20.5562075,20.918495 20.9969501,20.4790158 20.9969501,19.9418331 C20.9969501,8.94453965 12.0254964,0.00311427059 1.00222363,0.00311427088 Z" id="形状" fill-rule="nonzero"></path>
                    <path d="M10.277262,10.7123101 C9.10687017,9.54029853 7.72590197,8.62713965 6.16862519,7.99715136 C4.56728573,7.34768573 2.82390547,7.02048943 0.997340621,7.02048943 C0.458648892,7.02048943 0.017906367,7.45999739 0.017906367,7.99715136 C0.017906367,8.53433415 0.458648892,8.9738421 0.997340621,8.9738421 C7.37328483,8.9738421 12.0010236,13.6081241 12.0010236,19.9955398 C12.0010236,20.5327226 12.4417661,20.9722306 12.9804578,20.9722306 C13.5191206,20.9722306 13.9598632,20.5327226 13.9598632,19.9955398 C13.9598632,18.1740626 13.6317478,16.4355946 12.9853408,14.8338425 C12.3585237,13.266291 11.4476539,11.8842929 10.277262,10.7123101" id="路径"></path>
                </g>
            </g>
        </g>
    </g>
</svg>