<?xml version="1.0" encoding="UTF-8"?>
<svg width="22px" height="26px" viewBox="0 0 22 26" version="1.1" xmlns="http://www.w3.org/2000/svg" xmlns:xlink="http://www.w3.org/1999/xlink">
    <!-- Generator: Sketch 52.2 (67145) - http://www.bohemiancoding.com/sketch -->
    <title>钱包@1x</title>
    <desc>Created with Sketch.</desc>
    <g id="时光宝库web版" stroke="none" stroke-width="1" fill="none" fill-rule="evenodd">
        <g id="切图" transform="translate(-426.000000, -949.000000)">
            <g id="钱包" transform="translate(426.000000, 949.000000)">
                <path d="M18.673494,10.1499196 C18.673494,10.1499196 16.735241,7.79807449 14.8433735,7.28704934 L13.253012,6.77884752 C13.253012,6.77884752 15.7710843,3.2779017 15.9036145,1.59801237 C15.9036145,1.59801237 16.3012048,-0.39809142 13.9156627,0.592902116 L9.03524096,1.13216071 C9.03524096,1.13216071 2.35240964,2.7838166 9.11144578,7.47903669 C9.11144578,7.47903669 3.44578313,9.76029816 3.24698795,15.1585308 C3.04819277,20.5567634 4.31054217,22.4371101 7.62048193,24.5292075 C7.62048193,24.5292075 17.1593373,25.7234818 20.128012,22.0361953 C23.0271084,18.4392558 21.2677711,12.0754398 18.673494,10.1499196 Z M6.67951807,2.91651374 C7.49789157,2.36313843 8.53825301,2.27561479 9.55210843,2.27561479 C9.91987952,2.27561479 10.2975904,2.28690816 10.6786145,2.29820153 C11.0795181,2.31231825 11.4804217,2.32361162 11.8846386,2.32361162 C12.4876506,2.32361162 13.1933735,2.29537819 13.9156627,2.15138768 C13.4584337,2.38290184 13.0078313,2.64264943 12.5704819,2.90239702 C10.4433735,4.14749147 8.76355422,5.12719163 6.67951807,2.91651374 L6.67951807,2.91651374 Z" id="Shape" fill="#F25A58"></path>
                <path d="M9.60180723,25.1221096 C6.56355422,25.1221096 3.9063253,24.0520625 2.11716867,22.1124256 C0.24186747,20.0739716 -0.424096386,17.3494452 0.298192771,14.6362122 C0.805120482,12.7163387 1.58042169,11.21432 2.66716867,10.0482792 C3.89638554,8.73260116 5.54638554,7.83477796 7.57409639,7.38304301 C5.95060241,6.71673397 4.81415663,5.78503064 4.37349398,4.75168696 C3.92951807,3.71269658 4.20120482,2.64264943 5.11566265,1.8210565 L5.1189759,1.81823315 C6.25210843,0.835709649 7.7,0.703012508 8.9689759,0.703012508 C9.31024096,0.703012508 9.66144578,0.714305882 9.99277108,0.725599256 L10.0822289,0.728422599 L10.2048193,0.731245943 C10.5692771,0.74536266 10.8774096,0.751009346 11.1789157,0.751009346 C12.0171687,0.751009346 12.9846386,0.697365822 13.8162651,0.293627714 C14.2072289,0.0988170193 14.5783133,0.00282334341 14.9228916,0.00282334341 C15.0786145,0.00282334341 15.2210843,0.0225867473 15.360241,0.062113555 C15.701506,0.158107231 15.9665663,0.378328017 16.1256024,0.694542478 C16.5,1.44837517 16.0924699,2.72170304 15.6816265,3.65622971 C15.2509036,4.64157656 14.6313253,5.68903697 13.9289157,6.60944692 C14.4292169,6.5953302 14.8135542,6.54451002 15.138253,6.45698637 C15.1978916,6.43157628 15.2641566,6.40616619 15.3304217,6.38640279 C15.635241,6.23958893 15.9069277,6.08712839 16.1686747,5.94031453 L16.251506,5.89514104 C16.2581325,5.89231769 16.2614458,5.88949435 16.2680723,5.886671 C16.2813253,5.87820097 16.2945783,5.86973094 16.3111446,5.86408426 C16.3144578,5.86126091 16.3210843,5.85843757 16.3243976,5.85561423 C16.3376506,5.8471442 16.3509036,5.83867417 16.3674699,5.83302748 C16.5198795,5.7370338 16.6888554,5.64386347 16.8677711,5.55069314 C17.0003012,5.4829329 17.1394578,5.42081934 17.2918675,5.35870579 C17.7822289,5.14695503 18.2394578,5.03966798 18.7298193,5.02555127 C18.8756024,5.01425789 19.0246988,5.00861121 19.1771084,5.00861121 C19.2334337,5.00861121 19.276506,5.00861121 19.3162651,5.01143455 L19.3759036,5.01143455 C19.3957831,5.01425789 19.4123494,5.01425789 19.4222892,5.01425789 C19.6674699,5.02837461 19.7966867,5.18930518 19.7966867,5.34176573 C19.7966867,5.49422627 19.6707831,5.6523335 19.4289157,5.66645022 L19.3990964,5.66645022 C19.3924699,5.66645022 19.3825301,5.66927356 19.3725904,5.66927356 L19.276506,5.66927356 C19.2599398,5.66927356 19.2433735,5.67209691 19.223494,5.67209691 C19.0975904,5.67492025 18.9551205,5.67492025 18.8524096,5.67492025 L18.7762048,5.67492025 C18.3753012,5.70880037 18.0174699,5.79067733 17.653012,5.93466784 C17.3912651,6.04195489 17.1228916,6.18876875 16.7981928,6.37228607 C16.7783133,6.38357944 16.7584337,6.39769616 16.7385542,6.40898954 C16.6954819,6.43439963 16.6524096,6.46263306 16.6060241,6.49086649 L16.5629518,6.51627658 L16.5231928,6.53886333 C16.3972892,6.6150936 16.264759,6.69414722 16.1322289,6.77037749 C16.0129518,6.83813773 15.8771084,6.90025129 15.7246988,6.9595415 C15.7876506,6.95389481 15.8572289,6.94824813 15.9268072,6.94260144 L16.0129518,6.93695475 L16.0228916,6.93695475 C16.5662651,6.8946046 17.1825301,6.84660776 17.7855422,6.84660776 L17.9611446,6.84660776 C18.0340361,6.84378442 18.1433735,6.84096108 18.2626506,6.84096108 C18.646988,6.84096108 19.1174699,6.87201785 19.6674699,7.10635536 C19.839759,7.17129226 19.9921687,7.24752253 20.1213855,7.33504617 C20.2373494,7.39998307 20.3400602,7.46491997 20.4328313,7.53268021 C20.4659639,7.55526696 20.4891566,7.57785371 20.5090361,7.6032638 C20.6846386,7.82630793 20.5189759,7.99570853 20.4626506,8.04370537 L20.4593373,8.04652871 C20.4560241,8.04935206 20.3599398,8.13122901 20.2042169,8.13122901 C20.114759,8.13122901 20.0319277,8.10581892 19.9524096,8.0521754 C19.9358434,8.04088202 19.9192771,8.02958865 19.8960843,8.01264859 L19.8894578,8.00982525 L19.8861446,8.00982525 C19.839759,7.97594513 19.7701807,7.92512495 19.6873494,7.87430476 L19.6807229,7.86865808 L19.6740964,7.86301139 L19.6707831,7.86018805 C19.6674699,7.8573647 19.6641566,7.8573647 19.6608434,7.85454136 L19.6542169,7.84889467 C19.551506,7.79242781 19.4487952,7.73878428 19.3427711,7.69361079 C19.0081325,7.56938368 18.5475904,7.50727012 17.9379518,7.49880009 L17.888253,7.49880009 C17.8816265,7.49880009 17.875,7.50162343 17.8650602,7.50162343 L17.6033133,7.51009346 C17.298494,7.51574015 16.9771084,7.54115024 16.6358434,7.56656033 L16.4900602,7.57785371 C16.4304217,7.58350039 16.3707831,7.58632374 16.3111446,7.59197042 C16.2713855,7.59479377 16.2316265,7.59761711 16.1951807,7.60044045 C16.6292169,7.80654452 17.0698795,8.06064543 17.5039157,8.35427314 C18.4481928,8.9951721 19.3195783,9.80547165 20.0153614,10.6976482 C21.8078313,12.9930264 22.4307229,16.0507073 21.6786145,18.8796974 C21.3340361,20.184082 20.846988,21.2315424 20.1876506,22.0785454 C19.5349398,22.9142551 18.7198795,23.546684 17.6960843,24.0097123 C15.923494,24.8002485 13.5777108,25.1221096 9.60180723,25.1221096 L9.60180723,25.1221096 Z M8.95903614,1.34955815 C7.84909639,1.34955815 6.59006024,1.45966854 5.65240964,2.26714476 C4.95,2.90239702 4.73795181,3.7268133 5.07590361,4.52299614 C5.29789157,5.03966798 6.11957831,6.33275926 8.98554217,7.17693894 C9.15120482,7.22493578 9.25722892,7.36327961 9.24066265,7.51291681 C9.22409639,7.65973066 9.09156627,7.78113443 8.91927711,7.80372118 C3.32319277,8.52367375 1.73945783,12.1262599 1.03704819,14.7773794 C0.367771084,17.2986251 0.977409639,19.8226941 2.71024096,21.7058641 C4.35692771,23.4902172 6.80542169,24.475564 9.60512048,24.475564 C13.4518072,24.475564 15.6915663,24.1706429 17.3349398,23.4281036 C19.1837349,22.5895706 20.2936747,21.1383721 20.9331325,18.7300602 C21.6421687,16.0761174 21.0590361,13.2047771 19.3792169,11.0477428 C18.0274096,9.31703325 16.0527108,7.99853187 14.2204819,7.60891048 L14.1409639,7.60044045 C13.9487952,7.57785371 13.8096386,7.43668654 13.8129518,7.27293262 L13.8129518,7.26163924 L13.7268072,7.26163924 C13.6870482,7.26163924 13.6406627,7.26446259 13.5975904,7.26446259 C13.528012,7.26446259 13.461747,7.26446259 13.3921687,7.26163924 L13.1933735,7.26163924 C13.0542169,7.26163924 12.925,7.19105566 12.8620482,7.08376861 C12.7990964,6.97365822 12.8090361,6.84943111 12.8885542,6.74779074 C13.7036145,5.77373727 14.4557229,4.56534629 14.9527108,3.43036224 C15.453012,2.28690816 15.6186747,1.38343827 15.4066265,0.945820042 C15.3403614,0.807476215 15.2343373,0.714305882 15.098494,0.674779074 C15.0421687,0.657839014 14.9759036,0.649368984 14.9063253,0.649368984 C14.7009036,0.649368984 14.4490964,0.719952569 14.1807229,0.849826366 C13.1834337,1.32979474 12.1,1.39473164 11.1689759,1.39473164 C10.960241,1.39473164 10.7448795,1.38908496 10.5394578,1.38626161 C10.476506,1.38343827 10.410241,1.38343827 10.3472892,1.38061493 L10.1716867,1.37496824 L10.0490964,1.3721449 L9.95301205,1.36932155 C9.64487952,1.36085152 9.28704819,1.34955815 8.95903614,1.34955815 L8.95903614,1.34955815 Z" id="Shape" fill="#F25A58"></path>
                <path d="M9.85692771,12.891386 L14.628012,12.891386 L14.628012,13.4193512 L9.85692771,13.4193512 L9.85692771,12.891386 Z M8.49849398,13.7694458 C8.28644578,13.3967645 8.09096386,13.0861967 7.9186747,12.8518592 L7.88222892,12.801039 L8.54487952,12.521528 L8.57801205,12.5638782 C8.69728916,12.7248087 8.90271084,13.0156131 9.20090361,13.4701714 L9.23403614,13.5209916 L8.52831325,13.820266 L8.49849398,13.7694458 L8.49849398,13.7694458 Z M8.20361446,19.0745081 L8.20361446,16.3302183 C7.96837349,16.5391457 7.70993976,16.7480731 7.43493976,16.9513538 L7.35210843,17.0134674 L7.32891566,16.9231204 C7.22951807,16.5193823 7.16325301,16.3979785 7.14006024,16.3640984 L7.11355422,16.3217482 L7.15993976,16.2906915 C7.97831325,15.7457862 8.58795181,15.127474 8.97891566,14.4442249 L7.23283133,14.4442249 L7.23283133,13.8569694 L9.82048193,13.8569694 L9.82048193,14.4188148 L9.81054217,14.4301082 C9.55542169,14.847963 9.2439759,15.2573478 8.88945783,15.6526159 L8.88945783,15.8220165 L9.20753012,15.613089 L9.25060241,15.6526159 C9.43614458,15.8361332 9.65150602,16.0789407 9.89337349,16.3725684 L9.92981928,16.4149186 L9.38644578,16.7791299 L9.35,16.7283097 C9.1876506,16.5137356 9.03524096,16.3217482 8.89277108,16.1523476 L8.89277108,19.0773314 L8.20361446,19.0773314 L8.20361446,19.0745081 Z M13.4451807,15.6639092 L13.4451807,15.4352184 L10.9337349,15.4352184 L10.9337349,15.6639092 L10.2512048,15.6639092 L10.2512048,13.8089726 L14.1310241,13.8089726 L14.1310241,15.6610859 L13.4451807,15.6610859 L13.4451807,15.6639092 Z M13.4451807,14.9298399 L13.4451807,14.3115277 L10.9337349,14.3115277 L10.9337349,14.9298399 L13.4451807,14.9298399 Z" id="Shape" fill="#FFFFFF"></path>
                <path d="M13.8228916,19.0829781 L13.8228916,18.7554703 L10.5692771,18.7554703 L10.5692771,19.0829781 L9.88674699,19.0829781 L9.88674699,15.88413 L14.5054217,15.88413 L14.5054217,19.0801547 L13.8228916,19.0801547 L13.8228916,19.0829781 Z M13.8228916,18.2359751 L13.8228916,17.5724894 L12.5307229,17.5724894 L12.5307229,18.2359751 L13.8228916,18.2359751 Z M11.8481928,18.2359751 L11.8481928,17.5724894 L10.5692771,17.5724894 L10.5692771,18.2359751 L11.8481928,18.2359751 Z M13.8228916,17.0558175 L13.8228916,16.4008019 L12.5307229,16.4008019 L12.5307229,17.0558175 L13.8228916,17.0558175 Z M11.8481928,17.0558175 L11.8481928,16.4008019 L10.5692771,16.4008019 L10.5692771,17.0558175 L11.8481928,17.0558175 Z" id="Shape" fill="#FFFFFF"></path>
            </g>
        </g>
    </g>
</svg>