<?xml version="1.0" encoding="UTF-8"?>
<svg width="21px" height="25px" viewBox="0 0 21 25" version="1.1" xmlns="http://www.w3.org/2000/svg" xmlns:xlink="http://www.w3.org/1999/xlink">
    <!-- Generator: Sketch 52.2 (67145) - http://www.bohemiancoding.com/sketch -->
    <title>文章管理@1x</title>
    <desc>Created with Sketch.</desc>
    <g id="时光宝库web版" stroke="none" stroke-width="1" fill="none" fill-rule="evenodd">
        <g id="切图" transform="translate(-502.000000, -862.000000)" fill="#FFFFFF" fill-rule="nonzero">
            <g id="文章管理" transform="translate(502.000000, 862.000000)">
                <path d="M15.204503,0 L2.23530539,0 C1.00649102,0 0.0251497006,1.00736041 0.0251497006,2.23045685 L0.0251497006,22.7695431 C0.0251497006,24.0098985 1.02334132,25 2.23530539,25 L18.7649461,25 C19.9769102,25 20.9748503,23.9926396 20.9748503,22.7695431 L20.9748503,5.82360406 L15.204503,0 Z M15.6026228,2.37005076 L18.6261198,5.4215736 L15.9255449,5.4215736 C15.7555329,5.4215736 15.6026228,5.26725888 15.6026228,5.09568528 L15.6026228,2.37005076 Z M19.5928743,22.7695431 C19.5938148,22.9915205 19.5068706,23.2046841 19.3513597,23.3616711 C19.1958489,23.518658 18.9846519,23.6064656 18.7646946,23.6055838 L2.23530539,23.6055838 C2.01534815,23.6064656 1.80415113,23.518658 1.64864026,23.3616711 C1.49312939,23.2046841 1.40618516,22.9915205 1.40712575,22.7695431 L1.40712575,2.23045685 C1.4062524,2.00852339 1.49322631,1.79542527 1.64872984,1.63849337 C1.80423337,1.48156148 2.01539192,1.39378868 2.23530539,1.39467005 L2.23530539,1.37994924 L14.2231617,1.37994924 L14.2231617,5.09796954 C14.2231617,6.04416244 14.9907305,6.81624365 15.9257964,6.81624365 L19.5931257,6.81624365 L19.5931257,22.7695431 L19.5928743,22.7695431 Z" id="形状"></path>
                <path d="M4.67582189,5.11268118 L11.6758219,5.11268118 L11.6758219,9.11268118 L4.67582189,9.11268118 L4.67582189,5.11268118 Z M15.6194731,16.713198 L5.36568862,16.713198 C4.98190419,16.713198 4.67583234,17.022335 4.67583234,17.4093909 C4.67583234,17.7964467 4.98190419,18.1055838 5.36568862,18.1055838 L15.6194731,18.1055838 C16.0032575,18.1055838 16.3093293,17.7964467 16.3093293,17.4093909 C16.3093293,17.022335 16.003509,16.713198 15.6194731,16.713198 Z M5.36568862,11.9878173 C5.18241944,11.9867975 5.00636406,12.0598186 4.87677121,12.1906018 C4.74717836,12.321385 4.67482182,12.4990576 4.67583234,12.6840102 C4.67495718,12.8688981 4.7473653,13.0464651 4.87693596,13.1771782 C5.00650662,13.3078914 5.18248386,13.3808998 5.36568862,13.3799492 L15.6194731,13.3799492 C15.8026778,13.3808998 15.9786551,13.3078914 16.1082257,13.1771782 C16.2377964,13.0464651 16.3102045,12.8688981 16.3093293,12.6840102 C16.3102719,12.4990784 16.2378935,12.3214458 16.1083155,12.1906775 C15.9787374,12.0599093 15.8027216,11.9868661 15.6194731,11.9878173 L5.36568862,11.9878173 Z" id="形状"></path>
            </g>
        </g>
    </g>
</svg>