<?xml version="1.0" encoding="UTF-8"?>
<svg width="25px" height="22px" viewBox="0 0 25 22" version="1.1" xmlns="http://www.w3.org/2000/svg" xmlns:xlink="http://www.w3.org/1999/xlink">
    <!-- Generator: Sketch 52.2 (67145) - http://www.bohemiancoding.com/sketch -->
    <title>频道管理@1x</title>
    <desc>Created with Sketch.</desc>
    <g id="时光宝库web版" stroke="none" stroke-width="1" fill="none" fill-rule="evenodd">
        <g id="切图" transform="translate(-498.000000, -809.000000)" fill="#FFFFFF">
            <g id="频道管理" transform="translate(498.000000, 809.000000)">
                <path d="M22.5364701,2.39818262 L11.9514116,2.39818262 C9.55096746,2.39818262 9.55096746,0.0187733985 7.23729938,0.0187733985 L2.42069176,0.0187321637 C1.09034717,0.0187321637 0.0202476038,1.10811266 0.0202476038,2.39814138 L0.0202476038,18.7673008 C0.0202476038,20.0859877 1.09030557,21.14671 2.42069176,21.14671 L22.5364701,21.14671 C23.8668147,21.14671 24.9369143,20.0573295 24.9369143,18.7673008 L24.9369143,4.6628768 C24.8501382,3.34418994 23.8668147,2.39818262 22.5364701,2.39818262 Z M22.5364701,19.8280232 L2.42073336,19.8280232 C1.81338404,19.8280232 1.20603473,19.3406698 1.20603473,18.6239689 L1.20603473,7.04228603 L23.6065697,7.04228603 L23.7512103,18.6239689 C23.7511687,19.225996 23.259507,19.8280232 22.5364701,19.8280232 Z M23.7511687,5.86688987 L1.20599313,5.86688987 L1.20599313,2.39818262 C1.20599313,1.79615547 1.69765488,1.19412832 2.42069176,1.19412832 L7.23725778,1.19412832 C9.05930572,1.19412832 9.05930572,3.57353754 11.95137,3.57353754 L22.56534,3.57353754 C23.1726893,3.57353754 23.7800386,4.06093212 23.7800386,4.77759184 L23.7800802,5.86688987 L23.7511687,5.86688987 Z" id="形状" fill-rule="nonzero"></path>
                <path d="M19.2364143,14.944271 L17.4332661,13.6773412 C17.377655,13.6379176 17.305192,13.6379176 17.2495809,13.6773412 L15.4464328,14.944271 C15.3352106,15.0231181 15.1869143,14.9371031 15.1869143,14.7955367 L15.1869143,6.97354419 C15.1869143,6.77821838 15.330155,6.61873216 15.5054143,6.61873216 L19.1757476,6.61873216 C19.3510069,6.61873216 19.4942476,6.77821838 19.4942476,6.97354419 L19.4942476,14.7955367 C19.4959328,14.9371031 19.3476365,15.0231181 19.2364143,14.944271 Z" id="路径"></path>
            </g>
        </g>
    </g>
</svg>