<?xml version="1.0" encoding="UTF-8"?>
<svg width="27px" height="24px" viewBox="0 0 27 24" version="1.1" xmlns="http://www.w3.org/2000/svg" xmlns:xlink="http://www.w3.org/1999/xlink">
    <!-- Generator: Sketch 52.2 (67145) - http://www.bohemiancoding.com/sketch -->
    <title>插件管理@1x</title>
    <desc>Created with Sketch.</desc>
    <g id="时光宝库web版" stroke="none" stroke-width="1" fill="none" fill-rule="evenodd">
        <g id="切图" transform="translate(-498.000000, -834.000000)" fill="#FFFFFF" fill-rule="nonzero">
            <path d="M505.022079,835.102797 L510.402298,835.102797 L505.799391,841.317522 L499.748842,841.317522 L505.022142,835.102797 L505.022079,835.102797 Z M517.312793,842.420381 L523.252301,842.420381 L513.034732,854.47694 L517.312793,842.420381 Z M507.177576,841.317522 L511.499895,835.481783 L515.822592,841.317522 L507.177576,841.317522 Z M516.136052,842.420381 L511.499895,855.485435 L506.864242,842.420381 L516.136052,842.420381 Z M505.687218,842.420381 L509.965247,854.47694 L499.747836,842.420381 L505.687218,842.420381 Z M523.2512,841.317522 L517.200683,841.317522 L512.597461,835.102797 L517.978278,835.102797 L523.2512,841.317522 Z M524.869301,841.513501 L518.66056,834.19601 C518.555171,834.071681 518.399905,833.999946 518.236312,834 L504.764171,834 C504.600566,833.999983 504.44529,834.071696 504.339828,834.195979 L498.130741,841.513563 C497.99154,841.677542 497.960703,841.906865 498.051692,842.101407 C498.072767,842.146166 498.100606,842.186425 498.131685,842.223058 L498.130458,842.224152 L511.499927,858 L524.86949,842.224152 L524.868232,842.223058 C524.899405,842.186425 524.927181,842.146166 524.948225,842.101407 C525.039297,841.906901 525.008518,841.677559 524.869333,841.513563 L524.869301,841.513501 Z" id="插件管理"></path>
        </g>
    </g>
</svg>