<?xml version="1.0" encoding="UTF-8"?>
<svg width="20px" height="20px" viewBox="0 0 20 20" version="1.1" xmlns="http://www.w3.org/2000/svg" xmlns:xlink="http://www.w3.org/1999/xlink">
    <!-- Generator: Sketch 52.2 (67145) - http://www.bohemiancoding.com/sketch -->
    <title>下降-不可选@1x</title>
    <desc>Created with Sketch.</desc>
    <g id="网页版web" stroke="none" stroke-width="1" fill="none" fill-rule="evenodd">
        <g id="切图" transform="translate(-457.000000, -886.000000)">
            <g id="下降-不可选" transform="translate(457.000000, 886.000000)">
                <path d="M2,0 L18,0 C19.1045695,-2.02906125e-16 20,0.8954305 20,2 L20,18 C20,19.1045695 19.1045695,20 18,20 L2,20 C0.8954305,20 1.3527075e-16,19.1045695 0,18 L0,2 C-1.3527075e-16,0.8954305 0.8954305,2.02906125e-16 2,0 Z" id="Rectangle-7-Copy-3" fill="#DCDCDC"></path>
                <g id="箭头-copy-2" transform="translate(10.000000, 8.770053) scale(1, -1) translate(-10.000000, -8.770053) translate(4.705882, 1.711230)" fill="#FFFFFF">
                    <path d="M4.77161304,1.79403422 L4.77161304,12.7089678 C4.77161304,12.9980825 5.00365287,13.2315276 5.29013781,13.2315276 C5.57843759,13.2315276 5.80866259,12.9978199 5.80866257,12.7089678 L5.80866257,1.79403422 L9.69111679,5.72714963 C9.89387945,5.93086422 10.2211086,5.93015979 10.4230145,5.72557408 C10.5206697,5.62769352 10.5757471,5.4944053 10.5760391,5.35525204 C10.5763311,5.21609878 10.5218136,5.08257464 10.4245701,4.98427452 L5.65517925,0.153354214 C5.55863064,0.0556368023 5.42766518,0.000839269031 5.29117485,0.00105037491 C5.1538874,-0.000134278519 5.02192162,0.0547689595 4.92509637,0.153354214 L0.15544627,4.98401192 C-0.0456846128,5.18937924 -0.044989118,5.52081197 0.157001849,5.72531148 C0.253630873,5.82414043 0.385172991,5.87987397 0.522497649,5.8801697 C0.659822307,5.88046542 0.791597225,5.82529892 0.888640296,5.72688705 L4.77161304,1.79403422 Z" id="路径"></path>
                </g>
            </g>
        </g>
    </g>
</svg>