<?xml version="1.0" encoding="UTF-8"?>
<svg width="24px" height="24px" viewBox="0 0 24 24" version="1.1" xmlns="http://www.w3.org/2000/svg" xmlns:xlink="http://www.w3.org/1999/xlink">
    <!-- Generator: Sketch 52.2 (67145) - http://www.bohemiancoding.com/sketch -->
    <title>站点设置@1x</title>
    <desc>Created with Sketch.</desc>
    <g id="时光宝库web版" stroke="none" stroke-width="1" fill="none" fill-rule="evenodd">
        <g id="切图" transform="translate(-498.000000, -781.000000)" fill="#FFFFFF" fill-rule="nonzero">
            <g id="站点设置" transform="translate(498.000000, 781.000000)">
                <path d="M23.1111171,19.4699278 L20.7818339,19.4699278 L20.7818339,8.72419514 L23.1110099,8.72419514 C23.6018844,8.72419514 23.9998929,8.32628936 23.9998929,7.8353023 L24,5.37176869 C24,5.03506888 23.8093663,4.72713723 23.5082416,4.57651965 C23.4869791,4.56589161 23.4653012,4.55611588 23.4432595,4.54721578 L12.3327184,0.0646083617 C12.1193718,-0.0215361206 11.8809229,-0.0215361206 11.6675763,0.0646083617 L0.583660063,4.53650139 C0.2430533,4.66094906 5.70971204e-16,4.98789877 5.70971204e-16,5.37158118 L5.70971204e-16,7.83532909 C5.70971204e-16,8.32620901 0.398008484,8.72422192 0.888882937,8.72422192 L3.21805891,8.72422192 L3.21805891,19.4699546 L0.888882937,19.4699546 C0.398008484,19.4699546 0,19.8679675 0,20.3588474 L0,23.1111072 C0,23.6019871 0.398008484,24 0.888882937,24 L23.1111171,24 C23.6019915,24 24,23.6019871 24,23.1111072 L24,20.3588207 C23.9999732,19.867914 23.6019915,19.4699278 23.1111171,19.4699278 Z M15.5198398,19.4699278 L15.5198398,8.72419514 L19.0040681,8.72419514 L19.0040681,19.4699278 L15.5198398,19.4699278 Z M10.2578725,8.72419514 L13.7421007,8.72419514 L13.7421007,19.4699278 L10.2578725,19.4699278 L10.2578725,8.72419514 Z M8.48013339,19.4699278 L4.995798,19.4699278 L4.995798,8.72419514 L8.48013339,8.72419514 L8.48013339,19.4699278 Z M1.26315789,5.33333333 L12.0096369,1.10032895 L22.7561164,5.33333333 L22.7561164,7.57894737 L1.26315739,7.57894737 L1.26315789,5.33333333 Z M22.8193359,22.9634303 L1.26315739,22.9634303 L1.26315739,20.6029502 L22.8193359,20.6029502 L22.8193359,22.9634303 Z" id="形状"></path>
            </g>
        </g>
    </g>
</svg>