<?xml version="1.0" encoding="UTF-8"?>
<svg width="23px" height="23px" viewBox="0 0 23 23" version="1.1" xmlns="http://www.w3.org/2000/svg" xmlns:xlink="http://www.w3.org/1999/xlink">
    <!-- Generator: Sketch 52.2 (67145) - http://www.bohemiancoding.com/sketch -->
    <title>站点动态@1x</title>
    <desc>Created with Sketch.</desc>
    <g id="时光宝库web版" stroke="none" stroke-width="1" fill="none" fill-rule="evenodd">
        <g id="切图" transform="translate(-501.000000, -891.000000)" fill="#FFFFFF" fill-rule="nonzero">
            <g id="站点动态" transform="translate(501.000000, 891.000000)">
                <path d="M3.5939528,12.7429293 L3.5939528,9.31616161 C4.75395886,8.96063229 5.55166355,7.89572964 5.56755517,6.68148438 C5.5834468,5.46723912 4.81388524,4.38178455 3.66358177,3.9959596 L3.66358177,0.813131309 C3.66358178,0.522627469 3.50875103,0.254190847 3.25741277,0.108938925 C3.00607451,-0.0363129969 2.69641301,-0.0363129969 2.44507475,0.108938925 C2.19373649,0.254190847 2.03890574,0.522627469 2.03890575,0.813131309 L2.03890575,3.96111112 C0.844633866,4.29357255 0.0136088525,5.37608316 0.000164989586,6.61681759 C-0.0132788733,7.85755201 0.79409452,8.95785003 1.9808816,9.31616161 L1.9808816,12.7429293 C0.82898637,13.0931695 0.0322813913,14.144583 0.00588718408,15.3493343 C-0.0205070232,16.5540855 0.729384534,17.6394488 1.86483331,18.039899 L1.86483331,22.1868687 C1.86483331,22.6359487 2.22852943,23 2.67717133,23 C3.12581323,23 3.48950936,22.6359487 3.48950936,22.1868687 L3.48950936,18.0979798 C4.69869008,17.7885058 5.55285996,16.7092933 5.57722132,15.4602318 C5.60158267,14.2111703 4.79014495,13.0994087 3.5939528,12.7429293 Z M1.62113191,6.64444444 C1.62113192,5.99648613 2.14589346,5.47121215 2.79321961,5.47121215 C3.44054577,5.47121215 3.9653073,5.99648615 3.9653073,6.64444446 C3.96530731,7.29240276 3.44054578,7.81767676 2.79321963,7.81767678 C2.14695031,7.8151299 1.6236763,7.29134488 1.62113191,6.64444444 Z M2.79321963,16.5762626 C2.14589347,16.5762626 1.62113193,16.0509886 1.62113193,15.4030303 C1.62113193,14.755072 2.14589347,14.229798 2.79321963,14.229798 C3.44054579,14.229798 3.96530733,14.755072 3.96530733,15.4030303 C3.96276293,16.0499307 3.43948893,16.5737157 2.79321963,16.5762626 Z M7.50478011,3.13636365 L7.50478011,4.75101009 L22.1732837,4.75101009 C22.6219256,4.75101009 22.9856217,4.38695881 22.9856217,3.93787879 C22.9856217,3.48879876 22.6219256,3.12474748 22.1732837,3.12474748 L7.50478011,3.12474748 L7.50478011,3.13636365 Z M18.088384,8.05 L7.49317527,8.05 L7.49317527,9.66464647 L18.088384,9.66464647 C18.3038294,9.66464647 18.5104507,9.57897752 18.6627937,9.42648582 C18.8151366,9.27399411 18.900722,9.06717098 18.900722,8.85151514 C18.9016979,8.63661809 18.8160471,8.43040928 18.6631504,8.27954967 C18.5102537,8.12869005 18.3030351,8.04593127 18.088384,8.05 Z M7.50478011,14.8338384 L22.1732837,14.8338384 C22.6219256,14.8338384 22.9856217,14.4697871 22.9856217,14.0207071 C22.9856217,13.571627 22.6219256,13.2075757 22.1732837,13.2075757 L7.49317527,13.2075757 L7.49317527,14.8338384 L7.50478011,14.8338384 Z M7.50478011,19.8636364 L18.0999888,19.8636364 C18.5486307,19.8636364 18.9123268,19.4995851 18.9123268,19.050505 C18.9123268,18.601425 18.5486307,18.2373737 18.0999888,18.2373737 L7.50478011,18.2373737 L7.50478011,19.8636364 Z" id="形状"></path>
            </g>
        </g>
    </g>
</svg>