<?xml version="1.0" encoding="UTF-8"?>
<svg width="37px" height="37px" viewBox="0 0 37 37" version="1.1" xmlns="http://www.w3.org/2000/svg" xmlns:xlink="http://www.w3.org/1999/xlink">
    <!-- Generator: Sketch 52.2 (67145) - http://www.bohemiancoding.com/sketch -->
    <title>添加@1x</title>
    <desc>Created with Sketch.</desc>
    <g id="时光宝库-web" stroke="none" stroke-width="1" fill="none" fill-rule="evenodd">
        <g id="切图" transform="translate(-595.000000, -124.000000)" stroke="#4A90E2">
            <g id="添加" transform="translate(596.000000, 125.000000)">
                <g>
                    <path d="M33.6100183,10.7127525 C32.7289567,8.62962239 31.4688338,6.76163527 29.8637991,5.15660065 C28.2587645,3.55156604 26.3873624,2.2880281 24.3042323,1.40696654 C22.149388,0.495170259 19.8579449,0.0341496777 17.4982025,0.0341496777 C15.1384601,0.0341496777 12.847017,0.495170259 10.6921726,1.40696654 C8.60904256,2.2880281 6.74105544,3.54815104 5.13602079,5.15660065 C3.53098614,6.76505026 2.26744824,8.62962242 1.38980167,10.7127525 C0.478005391,12.8675968 0.0135698145,15.1590399 0.0135698145,17.5187823 C0.0135698145,19.8785247 0.474590396,22.1699678 1.38638667,24.3248122 C2.26744824,26.4079423 3.52757118,28.2759294 5.13260583,29.880964 C6.73764048,31.4859986 8.60904256,32.7461216 10.6887577,33.6271831 C12.8436021,34.5389794 15.1350451,35 17.4947875,35 C19.8545299,35 22.145973,34.5389794 24.3008174,33.6271831 C26.3839474,32.7461216 28.2519345,31.4859986 29.8569692,29.880964 C31.4620038,28.2759293 32.7221268,26.4045273 33.6031883,24.3248122 C34.5149846,22.1699678 34.9760052,19.8785247 34.9760052,17.5187823 C34.9828351,15.1590399 34.5218145,12.8675968 33.6100183,10.7127525 Z" id="形状" stroke-width="1.92" fill-rule="nonzero"></path>
                    <path d="M28.030303,17.1818182 L18.4545454,17.1818182 L18.4545454,7.6060606 C18.4545454,7.27272725 18.1818182,7 17.8484848,7 L17.7878788,7 C17.4545454,7 17.1818182,7.27272728 17.1818182,7.6060606 L17.1818182,17.1818182 L7.6060606,17.1818182 C7.27272725,17.1818182 7,17.4545455 7,17.7878788 L7,17.8484849 C7,18.1818182 7.27272728,18.4545454 7.6060606,18.4545454 L17.1818182,18.4545454 L17.1818182,28.030303 C17.1818182,28.3636364 17.4545454,28.6363636 17.7878788,28.6363636 L17.8484848,28.6363636 C18.1818182,28.6363636 18.4545454,28.3636364 18.4545454,28.030303 L18.4545454,18.4545454 L28.030303,18.4545454 C28.3636364,18.4545454 28.6363636,18.1818182 28.6363636,17.8484849 L28.6363636,17.7878788 C28.6363636,17.4545454 28.3636364,17.1818182 28.030303,17.1818182 Z" id="路径" stroke-width="0.64" fill="#4A90E2"></path>
                </g>
            </g>
        </g>
    </g>
</svg>