<?xml version="1.0" encoding="UTF-8"?>
<svg width="59px" height="59px" viewBox="0 0 59 59" version="1.1" xmlns="http://www.w3.org/2000/svg" xmlns:xlink="http://www.w3.org/1999/xlink">
    <!-- Generator: Sketch 52.2 (67145) - http://www.bohemiancoding.com/sketch -->
    <title>添加@1x</title>
    <desc>Created with Sketch.</desc>
    <g id="首页" stroke="none" stroke-width="1" fill="none" fill-rule="evenodd">
        <g id="切图" transform="translate(-3550.000000, -594.000000)">
            <g id="添加" transform="translate(3552.000000, 596.000000)">
                <path d="M30.4971753,52.8588155 C17.0799785,52.8588155 6.1678749,41.9467119 6.1678749,28.5295151 C6.1678749,15.1123182 17.0799785,4.20021463 30.4971753,4.20021463 C43.9143722,4.20021463 54.8264758,15.1123182 54.8264757,28.5295151 C54.8264757,41.9467119 43.9143721,52.8588155 30.4971753,52.8588155 Z" id="路径" fill="#C8C9FA"></path>
                <g stroke="#7172CC">
                    <path d="M52.815743,16.8343253 C51.4312177,13.5608352 49.4510245,10.6254269 46.9288272,8.1032296 C44.4066299,5.58103235 41.4658552,3.59547273 38.1923651,2.21094742 C34.8061811,0.778124692 31.2053419,0.0536637793 27.4971753,0.0536637793 C23.7890087,0.0536637793 20.1881696,0.778124692 16.8019856,2.21094742 C13.5284954,3.59547273 10.5930871,5.57566593 8.07088981,8.1032296 C5.54869251,10.6307933 3.56313294,13.5608352 2.18397405,16.8343253 C0.751151328,20.2205093 0.0213239941,23.8213484 0.0213239941,27.5295151 C0.0213239941,31.2376817 0.745784907,34.8385208 2.17860763,38.2247049 C3.56313294,41.498195 5.54332614,44.4336033 8.06552345,46.9558005 C10.5877208,49.4779979 13.5284954,51.458191 16.7966192,52.8427164 C20.1828032,54.2755391 23.7836423,55 27.4918089,55 C31.1999756,55 34.8008147,54.2755391 38.1869987,52.8427164 C41.4604888,51.458191 44.3958971,49.4779979 46.9180944,46.9558005 C49.4402918,44.4336032 51.420485,41.4928285 52.8050102,38.2247049 C54.2378329,34.8385208 54.9622938,31.2376817 54.9622938,27.5295151 C54.9730266,23.8213484 54.2485657,20.2205093 52.815743,16.8343253 Z" id="形状" stroke-width="3" fill-rule="nonzero"></path>
                    <path d="M44.047619,27 L29,27 L29,11.9523809 C29,11.4285714 28.5714286,11 28.047619,11 L27.9523809,11 C27.4285714,11 27,11.4285714 27,11.9523809 L27,27 L11.9523809,27 C11.4285714,27 11,27.4285714 11,27.9523809 L11,28.0476191 C11,28.5714286 11.4285714,29 11.9523809,29 L27,29 L27,44.0476191 C27,44.5714286 27.4285714,45 27.9523809,45 L28.047619,45 C28.5714286,45 28.9999999,44.5714286 29,44.0476191 L29,29 L44.047619,29 C44.5714286,29 45,28.5714286 45,28.0476191 L45,27.9523809 C45,27.4285714 44.5714286,27 44.047619,27 Z" id="路径" fill="#7172CC"></path>
                </g>
            </g>
        </g>
    </g>
</svg>