<?xml version="1.0" encoding="UTF-8"?>
<svg width="21px" height="25px" viewBox="0 0 21 25" version="1.1" xmlns="http://www.w3.org/2000/svg" xmlns:xlink="http://www.w3.org/1999/xlink">
    <!-- Generator: Sketch 52.2 (67145) - http://www.bohemiancoding.com/sketch -->
    <title>word@1x</title>
    <desc>Created with Sketch.</desc>
    <g id="时光宝库web版" stroke="none" stroke-width="1" fill="none" fill-rule="evenodd">
        <g id="切图" transform="translate(-7.000000, -888.000000)" fill="#FFFFFF" fill-rule="nonzero">
            <g id="word" transform="translate(7.000000, 888.000000)">
                <path d="M15.4918585,0.179966518 L15.5012547,0.189202009 L20.8211321,5.67201451 L20.8260849,5.67692522 L20.9941415,5.84966518 L20.9941415,23.141183 C20.9941415,24.1657087 20.1483962,24.9994699 19.1086415,24.9994699 L1.8914717,24.9994699 C0.851716981,24.9994699 0.00597169811,24.1657087 0.00597169811,23.141183 L0.00597169811,1.85895647 C0.00597169811,0.83390067 0.851716981,0.000111607143 1.8914717,0.000111607143 L15.3177453,0.000111607143 L15.4918585,0.179938616 L15.4918585,0.179966518 Z M15.6737264,2.14179688 L15.6737264,4.85133929 C15.6737264,5.19955357 15.9611604,5.48292411 16.314934,5.48292411 L18.9157075,5.48292411 L17.049566,3.55976563 L15.6737264,2.14179688 Z M19.7493113,6.70959821 L16.3149057,6.70959821 C15.2751509,6.70959821 14.4294057,5.87583705 14.4294057,4.85133929 L14.4294057,1.22678571 L1.8914717,1.22678571 C1.53769811,1.22678571 1.25026415,1.51071429 1.25026415,1.85892857 L1.25026415,23.1416574 C1.25026415,23.4898717 1.53769811,23.7732701 1.8914717,23.7732701 L19.1086415,23.7732701 C19.4624151,23.7732701 19.7498491,23.4898996 19.7498491,23.1416574 L19.7498491,6.70962612 L19.749283,6.70962612 L19.7493113,6.70959821 Z M9.54237736,8.70033482 L11.9690377,8.70033482 L13.6948019,16.4986886 L13.7489717,16.4986886 L15.366934,8.70033482 L17.3624434,8.70033482 L14.8274434,19.0790458 L12.4543868,19.0790458 L10.6750189,11.1684431 L8.73367925,19.0790458 L6.30701887,19.0790458 L3.88033019,8.70033482 L6.09141509,8.70033482 L7.60160377,16.4986886 L9.54237736,8.70033482 Z" id="形状"></path>
            </g>
        </g>
    </g>
</svg>