<?xml version="1.0" encoding="UTF-8"?>
<svg width="199px" height="199px" viewBox="0 0 199 199" version="1.1" xmlns="http://www.w3.org/2000/svg" xmlns:xlink="http://www.w3.org/1999/xlink">
    <!-- Generator: Sketch 52.2 (67145) - http://www.bohemiancoding.com/sketch -->
    <title>头像@1x</title>
    <desc>Created with Sketch.</desc>
    <g id="时光宝库-web" stroke="none" stroke-width="1" fill="none" fill-rule="evenodd">
        <g id="切图" transform="translate(-367.000000, -24.000000)">
            <g id="头像" transform="translate(367.000000, 24.000000)">
                <path d="M0.0109375,99.0125 C0.0109375,153.6875 44.3421875,198.01875 99.0234375,198.01875 C153.710938,198.01875 198.035937,153.69375 198.035937,99.0125 C198.035937,44.325 153.704687,0 99.0234375,0 C44.3421875,0 0.0109375,44.33125 0.0109375,99.0125 Z" id="路径" fill="#E8E8E8"></path>
                <path d="M57.4421875,85.15 C57.4421873,100.006666 65.3681243,113.734792 78.2343748,121.163126 C91.1006253,128.591459 106.9525,128.591459 119.81875,121.163126 C132.685001,113.734792 140.610938,100.006666 140.610938,85.15 C140.610937,62.1835841 121.992978,43.5656256 99.0265625,43.5656256 C76.0601466,43.5656256 57.4421878,62.1835841 57.4421875,85.15 Z" id="路径" fill="#FFFFFF"></path>
                <path d="M99.0234375,198.01875 C125.560938,198.01875 149.710938,187.525 167.335938,170.49375 C155.460938,144.75 129.323438,126.73125 99.0234375,126.73125 C68.7234375,126.73125 42.5859375,144.75 30.7109375,170.5 C49.0437554,188.196597 73.5428654,198.065726 99.0234375,198.01875 Z" id="路径" fill="#FFFFFF"></path>
            </g>
        </g>
    </g>
</svg>