<?xml version="1.0" encoding="UTF-8" standalone="no"?>
<svg width="18px" height="18px" viewBox="0 0 18 18" version="1.1" xmlns="http://www.w3.org/2000/svg" xmlns:xlink="http://www.w3.org/1999/xlink">
    <!-- Generator: Sketch 49.3 (51167) - http://www.bohemiancoding.com/sketch -->
    <title>删除 (1)</title>
    <desc>Created with Sketch.</desc>
    <defs></defs>
    <g id="家庭树定版-copy" stroke="none" stroke-width="1" fill="none" fill-rule="evenodd">
        <g id="查看故事" transform="translate(-1243.000000, -168.000000)" fill="#666666" fill-rule="nonzero">
            <g id="Group-12" transform="translate(410.000000, 20.000000)">
                <g id="Group-13" transform="translate(814.000000, 55.000000)">
                    <g id="删除-(1)" transform="translate(19.000000, 93.000000)">
                        <path d="M5.33571429,14.175 L5.46428571,14.175 C5.72142857,14.175 5.91428571,14.00625 5.91428571,13.78125 L5.91428571,8.26875 C5.91428571,8.04375 5.72142857,7.875 5.46428571,7.875 L5.33571429,7.875 C5.07857143,7.875 4.88571429,8.04375 4.88571429,8.26875 L4.88571429,13.78125 C4.88571429,14.00625 5.07857143,14.175 5.33571429,14.175 Z M12.5357143,14.175 L12.6642857,14.175 C12.9214286,14.175 13.1142857,14.00625 13.1142857,13.78125 L13.1142857,8.26875 C13.1142857,8.04375 12.9214286,7.875 12.6642857,7.875 L12.5357143,7.875 C12.2785714,7.875 12.0857143,8.04375 12.0857143,8.26875 L12.0857143,13.78125 C12.0857143,14.00625 12.2785714,14.175 12.5357143,14.175 Z M8.93571429,14.175 L9.06428571,14.175 C9.32142857,14.175 9.51428571,14.00625 9.51428571,13.78125 L9.51428571,8.26875 C9.51428571,8.04375 9.32142857,7.875 9.06428571,7.875 L8.93571429,7.875 C8.67857143,7.875 8.48571429,8.04375 8.48571429,8.26875 L8.48571429,13.78125 C8.48571429,14.00625 8.67857143,14.175 8.93571429,14.175 Z" id="Shape"></path>
                        <path d="M17.55,3.9375 L14.1428571,3.9375 L14.1428571,2.25 C14.1428571,1.0125 12.9857143,0 11.5714286,0 L6.42857143,0 C5.01428571,0 3.85714286,1.0125 3.85714286,2.25 L3.85714286,3.9375 L0.45,3.9375 C0.192857143,3.9375 0,4.10625 0,4.33125 L0,4.66875 C0,4.89375 0.192857143,5.0625 0.45,5.0625 L1.8,5.0625 L1.8,15.75 C1.8,16.9875 2.95714286,18 4.37142857,18 L13.6285714,18 C15.0428571,18 16.2,16.9875 16.2,15.75 L16.2,5.0625 L17.55,5.0625 C17.8071429,5.0625 18,4.89375 18,4.66875 L18,4.33125 C18,4.10625 17.8071429,3.9375 17.55,3.9375 Z M5.14285714,2.25 C5.14285714,1.63125 5.72142857,1.125 6.42857143,1.125 L11.5714286,1.125 C12.2785714,1.125 12.8571429,1.63125 12.8571429,2.25 L12.8571429,3.825 L5.14285714,3.825 L5.14285714,2.25 Z M14.9142857,15.75 C14.9142857,16.36875 14.3357143,16.875 13.6285714,16.875 L4.37142857,16.875 C3.66428571,16.875 3.08571429,16.36875 3.08571429,15.75 L3.08571429,5.175 L14.9142857,5.175 L14.9142857,15.75 Z" id="Shape"></path>
                    </g>
                </g>
            </g>
        </g>
    </g>
</svg>