<?xml version="1.0" encoding="UTF-8"?>
<svg width="22px" height="27px" viewBox="0 0 22 27" version="1.1" xmlns="http://www.w3.org/2000/svg" xmlns:xlink="http://www.w3.org/1999/xlink">
    <!-- Generator: Sketch 52.2 (67145) - http://www.bohemiancoding.com/sketch -->
    <title>附近_选中@1x</title>
    <desc>Created with Sketch.</desc>
    <g id="网页版web" stroke="none" stroke-width="1" fill="none" fill-rule="evenodd">
        <g id="画板" transform="translate(-63.000000, -44.000000)" fill="#FFCF4C" fill-rule="nonzero" stroke="#FFCF4C" stroke-width="0.2">
            <path d="M74.4443452,70.8914929 C67.7411012,70.8914929 64,69.4544251 64,67.0430816 C64,65.6535762 66.1680655,64.4365352 69.1691071,63.7598284 L69.8785417,64.966152 C67.3213988,65.3986453 65.6736905,66.166074 65.6736905,67.0428209 C65.6736905,68.395742 69.9040476,69.2656818 74.444375,69.2656818 C78.9849405,69.2656818 83.2152679,68.395713 83.2152679,67.0428209 C83.2152679,66.1661029 81.5675,65.3986453 79.0104167,64.966152 L79.7198512,63.7598284 C82.7208929,64.4365352 84.888631,65.6536052 84.888631,67.0430816 C84.8885714,69.3976805 80.9349405,70.8915218 74.4443452,70.8915218 L74.4443452,70.8914929 Z M81.3903869,59.1271881 C81.1466369,59.384697 75.3785417,65.9168494 75.3785417,65.9168494 C75.136756,66.2028899 74.8719345,66.402119 74.5854762,66.402119 C74.2987798,66.402119 74.0825893,66.1790508 73.8629464,65.9168494 C73.8629464,65.9168494 67.3580655,58.9962611 67.2478869,58.8461007 C67.1374702,58.6958824 66.9867857,58.5046769 66.8657738,58.3075334 C66.0088988,56.9699643 65.4406845,55.4390174 65.4406845,53.7474242 C65.4406845,48.9161631 69.4716964,45 74.444375,45 C79.416994,45 83.4483333,48.9161631 83.4483333,53.7474242 C83.4483333,55.4919964 82.9156548,57.1125357 82.0079762,58.4758556 C81.7589286,58.7941934 81.5233333,58.9983757 81.3904167,59.1271591 L81.3903869,59.1271881 Z M74.4443452,46.6235807 C70.3700893,46.6235807 67.0671429,49.8323619 67.0671429,53.7906707 C67.0671429,55.097275 67.5074702,56.2688391 68.1804762,57.2225201 C68.4023512,57.5643204 69.0969643,58.3619029 69.0969643,58.3619029 L74.6491667,64.3715931 L79.7082143,58.528545 C79.7082143,58.528545 79.9750595,58.2207509 80.2940774,57.7715152 C81.1091667,56.6245722 81.8214583,55.3691221 81.8214583,53.7906996 C81.8214881,49.8323908 78.5188393,46.6236096 74.4443452,46.6236096 L74.4443452,46.6235807 Z M74.4443452,57.1229345 C72.5252083,57.1229345 70.9696131,55.6114528 70.9696131,53.7473953 C70.9696131,51.8828743 72.5252679,50.3713926 74.4443155,50.3713926 C76.3635119,50.3713926 77.9190179,51.8828743 77.9190179,53.7473953 C77.9189881,55.6114238 76.3633631,57.1229055 74.4443155,57.1229055 L74.4443452,57.1229345 Z M74.4443452,51.9975802 C73.449881,51.9975802 72.6435417,52.781172 72.6435417,53.7473663 C72.6435417,54.7131261 73.45,55.4966889 74.4443452,55.4966889 C75.438869,55.4966889 76.2451786,54.7131551 76.2451786,53.7473663 C76.2451488,52.7809982 75.438869,51.9975802 74.4443452,51.9975802 Z" id="附近_选中"></path>
        </g>
    </g>
</svg>