<?xml version="1.0" encoding="UTF-8"?>
<svg width="21px" height="21px" viewBox="0 0 21 21" version="1.1" xmlns="http://www.w3.org/2000/svg" xmlns:xlink="http://www.w3.org/1999/xlink">
    <!-- Generator: Sketch 52.2 (67145) - http://www.bohemiancoding.com/sketch -->
    <title>搜索_选中@1x</title>
    <desc>Created with Sketch.</desc>
    <g id="网页版web" stroke="none" stroke-width="1" fill="none" fill-rule="evenodd">
        <g id="画板" transform="translate(-8.000000, -51.000000)" fill="#FFCF4C" fill-rule="nonzero">
            <path d="M17.0540926,68.542125 C12.0618081,68.542125 8,64.6076437 8,59.7710625 C8,54.9350625 12.0618081,51 17.0540926,51 C22.046377,51 26.1081852,54.9350625 26.1081852,59.7710625 C26.1075981,64.6076437 22.046377,68.542125 17.0540926,68.542125 M17.0540926,53.1587625 C13.2905065,53.1587625 10.2284468,56.1248813 10.2284468,59.7710625 C10.2284468,63.4172438 13.2905065,66.3833625 17.0540926,66.3833625 C20.8176786,66.3833625 23.8797383,63.4172438 23.8797383,59.7710625 C23.8797383,56.1248813 20.8170916,53.1587625 17.0540926,53.1587625 M27.6286481,71.34375 C27.2775914,71.34375 26.9265347,71.2141312 26.6588393,70.9548937 L21.9283797,66.3723187 C21.3929889,65.8538438 21.3929889,65.0121938 21.9283797,64.4931375 C22.4643576,63.9746625 23.3326065,63.9746625 23.8679973,64.4931375 L28.5984569,69.0751312 C29.1338477,69.5936062 29.1338477,70.4352562 28.5984569,70.9543125 C28.3301744,71.2141312 27.9797048,71.34375 27.6286481,71.34375" id="搜索_选中"></path>
        </g>
    </g>
</svg>