<?xml version="1.0" encoding="UTF-8"?>
<svg width="21px" height="21px" viewBox="0 0 21 21" version="1.1" xmlns="http://www.w3.org/2000/svg" xmlns:xlink="http://www.w3.org/1999/xlink">
    <!-- Generator: Sketch 52.2 (67145) - http://www.bohemiancoding.com/sketch -->
    <title>搜索_默认@1x</title>
    <desc>Created with Sketch.</desc>
    <g id="网页版web" stroke="none" stroke-width="1" fill="none" fill-rule="evenodd">
        <g id="画板" transform="translate(-6.000000, -15.000000)" fill="#FFFFFF" fill-rule="nonzero">
            <path d="M15.0540926,32.542125 C10.0618081,32.542125 6,28.6076437 6,23.7710625 C6,18.9350625 10.0618081,15 15.0540926,15 C20.046377,15 24.1081852,18.9350625 24.1081852,23.7710625 C24.1075981,28.6076437 20.046377,32.542125 15.0540926,32.542125 M15.0540926,17.1587625 C11.2905065,17.1587625 8.22844682,20.1248813 8.22844682,23.7710625 C8.22844682,27.4172438 11.2905065,30.3833625 15.0540926,30.3833625 C18.8176786,30.3833625 21.8797383,27.4172438 21.8797383,23.7710625 C21.8797383,20.1248813 18.8170916,17.1587625 15.0540926,17.1587625 M25.6286481,35.34375 C25.2775914,35.34375 24.9265347,35.2141312 24.6588393,34.9548937 L19.9283797,30.3723187 C19.3929889,29.8538438 19.3929889,29.0121938 19.9283797,28.4931375 C20.4643576,27.9746625 21.3326065,27.9746625 21.8679973,28.4931375 L26.5984569,33.0751312 C27.1338477,33.5936062 27.1338477,34.4352562 26.5984569,34.9543125 C26.3301744,35.2141312 25.9797048,35.34375 25.6286481,35.34375" id="搜索_默认"></path>
        </g>
    </g>
</svg>