<?xml version="1.0" encoding="UTF-8"?>
<svg width="22px" height="26px" viewBox="0 0 22 26" version="1.1" xmlns="http://www.w3.org/2000/svg" xmlns:xlink="http://www.w3.org/1999/xlink">
    <!-- Generator: Sketch 52.2 (67145) - http://www.bohemiancoding.com/sketch -->
    <title>热门_默认@1x</title>
    <desc>Created with Sketch.</desc>
    <g id="网页版web" stroke="none" stroke-width="1" fill="none" fill-rule="evenodd">
        <g id="画板" transform="translate(-35.000000, -11.000000)" fill="#FFFFFF" fill-rule="nonzero" stroke="#FFFFFF">
            <g id="热门_默认" transform="translate(35.000000, 12.000000)">
                <g id="火-(1)" transform="translate(1.000000, 0.000000)">
                    <path d="M19.5999961,11.7004185 C18.3335678,8.77504387 17.0242823,7.18815593 16.5555919,5.92058961 C16.0572587,4.57310287 16.5485681,3.42553712 16.5485681,3.42553712 C15.5091636,3.21649607 14.7363066,4.21418106 14.1530924,5.22638613 C13.791902,5.85278925 13.3205926,9.64912824 12.5826165,10.5812929 C12.4565451,10.7399337 12.2071404,10.7011735 12.1369023,10.5109726 C9.61559332,3.66433833 10.9672597,0 10.9672597,0 C7.00107004,1.50516753 6.01416547,5.39894699 5.82571312,6.00183 C5.46142748,7.16619581 5.61547508,11.594218 5.61547508,11.594218 C5.59976079,11.8969795 5.19059421,11.9750999 5.06583233,11.6990985 C5.06583233,11.6990985 4.02059445,9.10816553 3.89892779,7.68639843 C3.79940401,6.5226326 3.79095163,6.76503382 3.79095163,6.76503382 C1.99440438,8.43556218 0,12.2184611 0,14.7597138 C0,19.8629793 4.47714196,24 10.0001171,24 C15.5229731,24 19.999996,19.8629793 19.999996,14.7597138 C20.000115,13.6709483 20.000115,12.6247831 19.5999961,11.7004185 Z M16.3984281,20.562828 C14.6940122,22.1344306 12.4218997,23 10.0001205,23 C7.57822081,23 5.30610824,22.1343093 3.60193342,20.562828 C1.9240286,19.0155923 1,16.9657444 1,14.7915163 C1,13.7795032 1.4086308,12.3693766 2.12069195,10.9222754 C2.38879575,10.3773788 2.68910879,9.84913012 3.02001713,9.34036842 C3.37020324,10.6333886 3.88536004,11.924954 3.96537503,12.1229196 L3.97405135,12.1444983 L3.98357121,12.165592 C4.21602443,12.6788722 4.70828534,12.9977025 5.2679083,12.9977025 C6.02214603,12.9975812 6.64358781,12.4065937 6.68275177,11.6520693 L6.68528238,11.6032143 L6.68359531,11.5542381 C6.61056957,9.4498375 6.65093859,6.90210533 6.84531236,6.28178057 C6.85555523,6.24917018 6.86796721,6.20819504 6.88254827,6.15934007 C6.99726855,5.77528909 7.30214497,4.75539612 7.99540743,3.69295203 C8.42753662,3.03068228 8.93389656,2.46515267 9.51039016,2 C9.50040899,2.19370252 9.49422189,2.38758406 9.49183244,2.58153177 C9.45917573,5.09592618 10.0039766,7.89157004 11.1106901,10.8902712 C11.310607,11.4324037 11.8325121,11.7964521 12.4087647,11.7964521 C12.8326995,11.7964521 13.2275928,11.6052752 13.4919797,11.2720188 C14.0643762,10.5507109 14.3984147,9.15488925 14.80813,7.26178945 C14.9312856,6.6922593 15.0989074,5.9162775 15.1873577,5.70412812 C15.2424283,5.60896396 15.2993064,5.51489088 15.3581126,5.42203006 C15.4080522,5.70577825 15.4835171,5.9843746 15.5835765,6.25438298 C15.8269957,6.91083376 16.2153817,7.56328403 16.7072811,8.38945432 C17.2812441,9.35333987 17.9952333,10.552893 18.6881343,12.1503172 C19,12.8690793 19,13.759743 19,14.7913951 C19.000241,16.9657444 18.0760919,19.0155923 16.3984281,20.562828 Z" id="Shape"></path>
                </g>
            </g>
        </g>
    </g>
</svg>