<?xml version="1.0" encoding="UTF-8"?>
<svg width="22px" height="26px" viewBox="0 0 22 26" version="1.1" xmlns="http://www.w3.org/2000/svg" xmlns:xlink="http://www.w3.org/1999/xlink">
    <!-- Generator: Sketch 52.2 (67145) - http://www.bohemiancoding.com/sketch -->
    <title>热门_选中@1x</title>
    <desc>Created with Sketch.</desc>
    <g id="网页版web" stroke="none" stroke-width="1" fill="none" fill-rule="evenodd">
        <g id="画板" transform="translate(-36.000000, -46.000000)" fill="#FFCF4C" fill-rule="nonzero" stroke="#FFCF4C">
            <path d="M56.5999961,58.7004185 C55.3335678,55.7750439 54.0242823,54.1881559 53.5555919,52.9205896 C53.0572587,51.5731029 53.5485681,50.4255371 53.5485681,50.4255371 C52.5091636,50.2164961 51.7363066,51.2141811 51.1530924,52.2263861 C50.791902,52.8527892 50.3205926,56.6491282 49.5826165,57.5812929 C49.4565451,57.7399337 49.2071404,57.7011735 49.1369023,57.5109726 C46.6155933,50.6643383 47.9672597,47 47.9672597,47 C44.00107,48.5051675 43.0141655,52.398947 42.8257131,53.00183 C42.4614275,54.1661958 42.6154751,58.594218 42.6154751,58.594218 C42.5997608,58.8969795 42.1905942,58.9750999 42.0658323,58.6990985 C42.0658323,58.6990985 41.0205944,56.1081655 40.8989278,54.6863984 C40.799404,53.5226326 40.7909516,53.7650338 40.7909516,53.7650338 C38.9944044,55.4355622 37,59.2184611 37,61.7597138 C37,66.8629793 41.477142,71 47.0001171,71 C52.5229731,71 56.999996,66.8629793 56.999996,61.7597138 C57.000115,60.6709483 57.000115,59.6247831 56.5999961,58.7004185 Z M53.3984281,67.562828 C51.6940122,69.1344306 49.4218997,70 47.0001205,70 C44.5782208,70 42.3061082,69.1343093 40.6019334,67.562828 C38.9240286,66.0155923 38,63.9657444 38,61.7915163 C38,60.7795032 38.4086308,59.3693766 39.120692,57.9222754 C39.3887958,57.3773788 39.6891088,56.8491301 40.0200171,56.3403684 C40.3702032,57.6333886 40.88536,58.924954 40.965375,59.1229196 L40.9740514,59.1444983 L40.9835712,59.165592 C41.2160244,59.6788722 41.7082853,59.9977025 42.2679083,59.9977025 C43.022146,59.9975812 43.6435878,59.4065937 43.6827518,58.6520693 L43.6852824,58.6032143 L43.6835953,58.5542381 C43.6105696,56.4498375 43.6509386,53.9021053 43.8453124,53.2817806 C43.8555552,53.2491702 43.8679672,53.208195 43.8825483,53.1593401 C43.9972686,52.7752891 44.302145,51.7553961 44.9954074,50.692952 C45.4275366,50.0306823 45.9338966,49.4651527 46.5103902,49 C46.500409,49.1937025 46.4942219,49.3875841 46.4918324,49.5815318 C46.4591757,52.0959262 47.0039766,54.89157 48.1106901,57.8902712 C48.310607,58.4324037 48.8325121,58.7964521 49.4087647,58.7964521 C49.8326995,58.7964521 50.2275928,58.6052752 50.4919797,58.2720188 C51.0643762,57.5507109 51.3984147,56.1548893 51.80813,54.2617895 C51.9312856,53.6922593 52.0989074,52.9162775 52.1873577,52.7041281 C52.2424283,52.608964 52.2993064,52.5148909 52.3581126,52.4220301 C52.4080522,52.7057783 52.4835171,52.9843746 52.5835765,53.254383 C52.8269957,53.9108338 53.2153817,54.563284 53.7072811,55.3894543 C54.2812441,56.3533399 54.9952333,57.552893 55.6881343,59.1503172 C56,59.8690793 56,60.759743 56,61.7913951 C56.000241,63.9657444 55.0760919,66.0155923 53.3984281,67.562828 Z" id="热门_选中"></path>
        </g>
    </g>
</svg>