<?xml version="1.0" encoding="UTF-8"?>
<svg width="34px" height="41px" viewBox="0 0 34 41" version="1.1" xmlns="http://www.w3.org/2000/svg" xmlns:xlink="http://www.w3.org/1999/xlink">
    <!-- Generator: Sketch 52.2 (67145) - http://www.bohemiancoding.com/sketch -->
    <title>筛选 2@1x</title>
    <desc>Created with Sketch.</desc>
    <g id="时光宝库-web" stroke="none" stroke-width="1" fill="none" fill-rule="evenodd">
        <g id="切图" transform="translate(-597.000000, -16.000000)" fill-rule="nonzero" stroke="#4A90E2" stroke-width="2.048">
            <g id="筛选-2" transform="translate(598.000000, 18.000000)">
                <g id="筛选">
                    <path d="M18.7139511,37 C17.9676582,37 17.2213254,36.7897605 16.5428955,36.3692816 L11.1151767,32.8655106 C9.89396295,32.0946876 9.2154931,30.7632397 9.2154931,29.291646 L9.2154931,17.308698 L0.938368831,6.86743738 C-0.0745371528,5.61000706 -0.286444011,3.85882374 0.39558495,2.38260392 C1.0740548,0.910927586 2.4988175,0 4.05926617,0 L27.8731341,0 C29.5014058,0 30.9261685,0.91096889 31.6045984,2.38256262 C32.2831082,3.85415634 32.0795593,5.60604183 31.0618545,6.86739608 L22.7846902,17.3087393 L22.7846902,32.795417 C22.7846902,34.3371043 21.9705344,35.7386458 20.6814577,36.4393752 C20.0708508,36.7897605 19.3924209,37 18.7139511,37 Z" id="路径"></path>
                </g>
            </g>
        </g>
    </g>
</svg>