<?xml version="1.0" encoding="UTF-8"?>
<svg width="23px" height="23px" viewBox="0 0 23 23" version="1.1" xmlns="http://www.w3.org/2000/svg" xmlns:xlink="http://www.w3.org/1999/xlink">
    <!-- Generator: Sketch 52.2 (67145) - http://www.bohemiancoding.com/sketch -->
    <title>筛选-默认@1x</title>
    <desc>Created with Sketch.</desc>
    <defs>
        <path d="M15.5001021,13 L21.4998979,13 C21.749949,13 22,13.2499026 22,13.4999351 C22,13.7499675 21.749949,14 21.4998979,14 L15.5001021,14 C15.250051,14 15,13.7499675 15,13.4999351 C15,13.1875568 15.1875707,13 15.5001021,13 Z" id="path-1"></path>
        <path d="M15.5001021,16 L21.4998979,16 C21.749949,16 22,16.2499026 22,16.4999351 C22,16.7499675 21.749949,17 21.4998979,17 L15.5001021,17 C15.250051,17 15,16.7499675 15,16.4999351 C15,16.1875568 15.1875707,16 15.5001021,16 Z" id="path-3"></path>
        <path d="M15.5001021,19 L21.4998979,19 C21.749949,19 22,19.2499026 22,19.4999351 C22,19.7499675 21.749949,20 21.4998979,20 L15.5001021,20 C15.250051,20 15,19.7499675 15,19.4999351 C15,19.1875568 15.1875707,19 15.5001021,19 Z" id="path-5"></path>
    </defs>
    <g id="网页版web" stroke="none" stroke-width="1" fill="none" fill-rule="evenodd">
        <g id="切图" transform="translate(-304.000000, -989.000000)">
            <g id="筛选-默认" transform="translate(305.000000, 990.000000)">
                <path d="M18.9123395,4.08562073e-14 L1.28377816,4.08562073e-14 C0.599025329,4.08562073e-14 0,0.590163235 0,1.26461047 C0,1.6019217 0.0855496388,1.93905771 0.342376413,2.10780094 L0.427926052,2.19208494 L8.04415606,9.27421898 L8.55763175,9.69581422 L8.64318138,10.5390047 L8.55763175,19.5601964 L11.2959316,20.9090909 L11.2959316,9.69563899 L11.8095852,9.27404376 L19.5113648,2.27636894 L19.5969144,2.19208494 C19.8535634,1.93923293 19.9392909,1.6862057 19.9392909,1.34889447 C20.1961176,0.590163235 19.5970923,4.28016135e-14 18.9123395,4.08562073e-14 Z" id="路径" stroke="#4A4A4A" stroke-width="1.4"></path>
                <mask id="mask-2" fill="white">
                    <use xlink:href="#path-1"></use>
                </mask>
                <use id="路径" fill="#4A4A4A" xlink:href="#path-1"></use>
                <mask id="mask-4" fill="white">
                    <use xlink:href="#path-3"></use>
                </mask>
                <use id="路径" fill="#4A4A4A" xlink:href="#path-3"></use>
                <mask id="mask-6" fill="white">
                    <use xlink:href="#path-5"></use>
                </mask>
                <use id="路径" fill="#4A4A4A" xlink:href="#path-5"></use>
            </g>
        </g>
    </g>
</svg>