<?xml version="1.0" standalone="no"?><!DOCTYPE svg PUBLIC "-//W3C//DTD SVG 1.1//EN" "http://www.w3.org/Graphics/SVG/1.1/DTD/svg11.dtd"><svg t="1575170912976" class="icon" viewBox="0 0 1024 1024" version="1.1" xmlns="http://www.w3.org/2000/svg" p-id="2190" xmlns:xlink="http://www.w3.org/1999/xlink" width="200" height="200"><defs><style type="text/css"></style></defs><path d="M850.952 531.84a20.304 20.304 0 0 1-14.424-5.976L512 201.344 187.48 525.864a20.4 20.4 0 1 1-28.856-28.848l338.952-338.952a20.392 20.392 0 0 1 28.856 0l338.952 338.952a20.4 20.4 0 0 1-14.432 34.824z" fill="#8a8a8a" p-id="2191"></path><path d="M730.608 483.08v350.432h-77.16v-257.2a19.288 19.288 0 0 0-19.288-19.288H389.832a19.288 19.288 0 0 0-19.288 19.288v257.192h-77.16V483.08l-38.576 38.576V852.8a19.288 19.288 0 0 0 19.288 19.288h475.8a19.288 19.288 0 0 0 19.288-19.288V521.656l-38.576-38.576z m-321.48 350.424V595.6H614.88v237.904H409.128z" fill="#8a8a8a" p-id="2192"></path></svg>