<?xml version="1.0" encoding="UTF-8"?>
<svg width="27px" height="27px" viewBox="0 0 27 27" version="1.1" xmlns="http://www.w3.org/2000/svg" xmlns:xlink="http://www.w3.org/1999/xlink">
    <!-- Generator: Sketch 52.2 (67145) - http://www.bohemiancoding.com/sketch -->
    <title>点赞-未@1x</title>
    <desc>Created with Sketch.</desc>
    <g id="首页" stroke="none" stroke-width="1" fill="none" fill-rule="evenodd">
        <g id="切图" transform="translate(-272.000000, -249.000000)" fill-rule="nonzero">
            <g id="点赞-未" transform="translate(272.000000, 249.000000)">
                <path d="M21.5936768,26.9795233 L3.6630697,26.9795233 C1.6458764,26.9795233 0.0022374274,25.332026 0.0022374274,23.3100975 L0.0022374274,13.3502275 C0.0022374274,11.328299 1.6458764,9.68080174 3.6630697,9.68080174 L7.37370923,9.68080174 C7.79707078,9.50606718 10.1629148,8.33284939 10.3870474,2.04240521 C10.3870474,0.993997838 11.1590597,0.195211268 12.3046262,0.0454387817 C14.1474941,-0.204182018 16.5382417,1.04392198 17.1857359,3.2905092 C17.7585192,5.33739977 17.1857359,8.05826652 16.7374707,9.68080174 L23.3369303,9.68080174 C24.407786,9.68080174 25.4288345,10.1550813 26.1261358,10.9788299 C26.8234372,11.8025785 27.1222807,12.9009101 26.9230517,13.9742795 L25.1797982,23.9341495 C24.9058584,25.7064572 23.3867375,26.9795233 21.5936768,26.9795233 Z" id="形状" fill="#FFDCD4"></path>
                <path d="M21.5936768,26.9795233 L3.6630697,26.9795233 C1.6458764,26.9795233 0.0022374274,25.332026 0.0022374274,23.3100975 L0.0022374274,13.3502275 C0.0022374274,11.328299 1.6458764,9.68080174 3.6630697,9.68080174 L7.37370923,9.68080174 C7.79707078,9.50606718 10.1629148,8.33284939 10.3870474,2.04240521 C10.3870474,0.993997838 11.1590597,0.195211268 12.3046262,0.0454387817 C14.1474941,-0.204182018 16.5382417,1.04392198 17.1857359,3.2905092 C17.7585192,5.33739977 17.1857359,8.05826652 16.7374707,9.68080174 L23.3369303,9.68080174 C24.407786,9.68080174 25.4288345,10.1550813 26.1261358,10.9788299 C26.8234372,11.8025785 27.1222807,12.9009101 26.9230517,13.9742795 L25.1797982,23.9341495 C24.9058584,25.7064572 23.3867375,26.9795233 21.5936768,26.9795233 Z M3.6630697,11.7027302 C2.74163574,11.7027302 1.99452709,12.4515926 1.99452712,13.3751896 L1.99452712,23.3350596 C1.99452712,24.2586565 2.74163574,25.007519 3.6630697,25.007519 L21.5936768,25.007519 C22.4154963,25.007519 23.0878941,24.4333911 23.2373158,23.6346046 L24.9805693,13.6747346 C25.0552801,13.175493 24.930762,12.7012134 24.6070149,12.3018201 C24.2832679,11.9273889 23.8350027,11.7027302 23.3369303,11.7027302 L15.3677716,11.7027302 C15.0440245,11.7027302 14.745181,11.5529577 14.5459521,11.2783749 C14.3716267,11.003792 14.3218195,10.6543229 14.421434,10.3547779 C14.8447955,9.23148428 15.8160367,5.86160347 15.2432535,3.86463705 C14.9693137,2.91607799 14.1225905,2.34195015 13.4252891,2.14225352 C12.8525059,1.96751896 12.4540479,2.04240521 12.3295298,2.09232935 L12.3295298,2.11729145 C12.05559,10.6293608 8.09591427,11.6028819 7.64764908,11.6777682 C7.59784183,11.6777682 7.52313096,11.7027302 7.47332374,11.7027302 L3.6630697,11.7027302 Z" id="形状" fill="#FF7C5D"></path>
                <path d="M5.95420285,26.9795233 L3.6630697,26.9795233 C1.6458764,26.9795233 0.0022374274,25.332026 0.0022374274,23.3100975 L0.0022374274,13.3502275 C0.0022374274,11.328299 1.6458764,9.68080174 3.6630697,9.68080174 L5.95420285,9.68080174 C6.50208252,9.68080174 6.95034768,10.1301192 6.95034768,10.6792849 L6.95034768,25.9810401 C6.95034768,26.5302059 6.50208249,26.9795233 5.95420285,26.9795233 Z M3.6630697,11.7027302 C2.74163574,11.7027302 1.99452709,12.4515926 1.99452712,13.3751896 L1.99452712,23.3350596 C1.99452712,24.2586565 2.74163574,25.007519 3.6630697,25.007519 L4.95805799,25.007519 L4.95805799,11.7027302 L3.6630697,11.7027302 Z" id="形状" fill="#FF7C5D"></path>
            </g>
        </g>
    </g>
</svg>