<?xml version="1.0" encoding="UTF-8"?>
<svg width="14px" height="14px" viewBox="0 0 14 14" version="1.1" xmlns="http://www.w3.org/2000/svg" xmlns:xlink="http://www.w3.org/1999/xlink">
    <!-- Generator: Sketch 52.2 (67145) - http://www.bohemiancoding.com/sketch -->
    <title>分组 15@1x</title>
    <desc>Created with Sketch.</desc>
    <g id="网页版web" stroke="none" stroke-width="1" fill="none" fill-rule="evenodd">
        <g id="切图" transform="translate(-776.000000, -823.000000)" fill="#7F7F7F" fill-rule="nonzero">
            <g id="分组-15" transform="translate(776.000000, 823.000000)">
                <g id="分组-11">
                    <g id="点赞-(1)">
                        <path d="M10.7968384,13.4897616 L1.83153485,13.4897616 C0.822938201,13.4897616 0.0011187137,12.666013 0.0011187137,11.6550488 L0.0011187137,6.67511376 C0.0011187137,5.66414951 0.822938201,4.84040087 1.83153485,4.84040087 L3.68685462,4.84040087 C3.89853539,4.75303359 5.08145738,4.1664247 5.1935237,1.0212026 C5.1935237,0.496998919 5.57952983,0.0976056338 6.15231309,0.0227193908 C7.07374707,-0.102091009 8.26912087,0.521960989 8.59286796,1.6452546 C8.8792596,2.66869989 8.59286796,4.02913326 8.36873536,4.84040087 L11.6684651,4.84040087 C12.203893,4.84040087 12.7144172,5.07754063 13.0630679,5.48941495 C13.4117186,5.90128927 13.5611403,6.45045504 13.4615259,6.98713976 L12.5898991,11.9670748 C12.4529292,12.8532286 11.6933688,13.4897617 10.7968384,13.4897616 Z M1.83153485,5.85136512 C1.37081787,5.85136512 0.997263543,6.22579632 0.997263559,6.68759479 L0.997263559,11.6675298 C0.997263559,12.1293283 1.37081787,12.5037595 1.83153485,12.5037595 L10.7968384,12.5037595 C11.2077482,12.5037595 11.543947,12.2166956 11.6186579,11.8173023 L12.4902846,6.83736728 C12.5276401,6.58774648 12.465381,6.35060671 12.3035075,6.15091007 C12.1416339,5.96369446 11.9175013,5.85136512 11.6684651,5.85136512 L7.68388579,5.85136512 C7.52201225,5.85136512 7.37259052,5.77647887 7.27297604,5.63918744 C7.18581337,5.501896 7.16090974,5.32716143 7.21071698,5.17738895 C7.42239776,4.61574214 7.90801837,2.93080174 7.62162674,1.93231852 C7.48465683,1.45803899 7.06129527,1.17097507 6.71264457,1.07112676 C6.42625293,0.983759482 6.22702396,1.0212026 6.16476491,1.04616467 L6.16476491,1.05864573 C6.02779501,5.3146804 4.04795714,5.80144096 3.82382454,5.83888408 C3.79892091,5.83888408 3.76156548,5.85136512 3.73666187,5.85136512 L1.83153485,5.85136512 Z" id="形状"></path>
                        <path d="M2.97710143,13.4897616 L1.83153485,13.4897616 C0.822938201,13.4897616 0.0011187137,12.666013 0.0011187137,11.6550488 L0.0011187137,6.67511376 C0.0011187137,5.66414951 0.822938201,4.84040087 1.83153485,4.84040087 L2.97710143,4.84040087 C3.25104126,4.84040087 3.47517384,5.0650596 3.47517384,5.33964247 L3.47517384,12.99052 C3.47517384,13.2651029 3.25104125,13.4897616 2.97710143,13.4897616 Z M1.83153485,5.85136512 C1.37081787,5.85136512 0.997263543,6.22579632 0.997263559,6.68759479 L0.997263559,11.6675298 C0.997263559,12.1293283 1.37081787,12.5037595 1.83153485,12.5037595 L2.479029,12.5037595 L2.479029,5.85136512 L1.83153485,5.85136512 Z" id="形状"></path>
                    </g>
                </g>
            </g>
        </g>
    </g>
</svg>