<?xml version="1.0" encoding="UTF-8"?>
<svg width="129px" height="41px" viewBox="0 0 129 41" version="1.1" xmlns="http://www.w3.org/2000/svg" xmlns:xlink="http://www.w3.org/1999/xlink">
    <!-- Generator: Sketch 52.2 (67145) - http://www.bohemiancoding.com/sketch -->
    <title>分组</title>
    <desc>Created with Sketch.</desc>
    <defs>
        <polygon id="path-1" points="0 0.0286918919 33.950405 0.0286918919 33.950405 27.9003676 0 27.9003676"></polygon>
        <polygon id="path-3" points="0.000214511041 0.011047619 33.9506625 0.011047619 33.9506625 28.9193205 0.000214511041 28.9193205"></polygon>
    </defs>
    <g id="切图" stroke="none" stroke-width="1" fill="none" fill-rule="evenodd">
        <g id="分组">
            <g transform="translate(0.000000, 1.000000)">
                <mask id="mask-2" fill="white">
                    <use xlink:href="#path-1"></use>
                </mask>
                <g id="Clip-2"></g>
                <path d="M24.1186132,4.67398919 C24.1186132,4.8820973 24.0154334,4.98361081 23.8113262,4.98361081 L23.8113262,4.8288 L23.6577363,4.8288 C23.2472694,5.0368 22.3759256,5.19171892 21.0461716,5.29334054 C21.0461716,5.39734054 20.8397047,5.50134054 20.4317047,5.60307027 C20.4317047,5.70707027 20.2780076,5.75777297 19.9708278,5.75777297 L19.6635407,5.91269189 C19.6635407,6.01669189 19.9179508,6.22231351 20.4317047,6.53204324 C20.4317047,6.63604324 20.4821148,6.79096216 20.5852946,6.99658378 L20.5852946,7.15139459 C20.5852946,7.3595027 20.4821148,7.61593514 20.2780076,7.92566486 L20.2780076,8.23528649 L20.2780076,9.00955676 C20.1748278,9.21755676 20.1244177,9.37247568 20.1244177,9.47398919 C20.1244177,9.6820973 20.2252379,9.83701622 20.4317047,9.93863784 C21.4541716,9.42328649 22.1215155,9.16436757 22.4288025,9.16436757 C22.5296227,8.95874595 22.6832126,8.85474595 22.8896795,8.85474595 L23.0432694,8.85474595 C23.4512694,8.85474595 23.7585565,9.21755676 23.9649161,9.93863784 C23.7585565,10.2483676 23.6048593,10.4031784 23.5041464,10.4031784 L23.0432694,10.2483676 C23.0432694,10.4563676 22.9399823,10.6111784 22.7359823,10.7128 L22.5823924,10.7128 L22.5823924,10.5579892 L20.7388845,11.1773405 C20.7388845,11.2813405 20.6357047,11.3322595 20.4317047,11.3322595 L20.1244177,11.1773405 L19.8172379,11.3322595 L19.8172379,11.4870703 L20.1244177,11.6418811 L20.1244177,11.9515027 L20.1244177,13.3451243 L20.1244177,13.8096649 L20.7388845,13.8096649 L21.9679256,13.5000432 C21.9679256,13.3983135 22.2223356,13.2436108 22.7359823,13.0355027 L23.8113262,13.6548541 L23.8113262,13.8096649 C23.8113262,14.1193946 23.7585565,14.2742054 23.6577363,14.2742054 L23.5041464,14.2742054 L23.3504492,14.1193946 L19.9708278,15.2032865 L20.1244177,15.6677189 L19.9708278,16.1322595 L20.1244177,16.7517189 L19.9708278,16.9065297 L20.1244177,17.2162595 L20.1244177,17.8356108 L19.8172379,18.1452324 L20.1244177,19.0743135 L20.5852946,18.9195027 L20.7388845,18.9195027 C20.7388845,18.8178811 21.3005817,18.6629622 22.4288025,18.4549622 C22.8368025,18.2492324 23.2976795,18.1452324 23.8113262,18.1452324 C24.2193262,18.1452324 24.4762032,17.7846919 24.5794902,17.0613405 L24.5794902,16.9065297 L24.5794902,16.7517189 L24.5794902,16.5968 L24.7330801,14.2742054 L24.5794902,13.6548541 L24.7330801,12.4160432 L24.5794902,10.5579892 L24.7330801,10.2483676 L24.5794902,9.31928649 L24.5794902,9.16436757 L24.5794902,8.69982703 L24.7330801,8.39020541 L24.5794902,7.92566486 L24.7330801,7.61593514 L24.5794902,7.15139459 L24.7330801,6.68685405 L24.7330801,6.53204324 C24.6299003,6.43042162 24.5794902,6.27561081 24.5794902,6.06761081 L24.88667,5.44815135 C24.6802032,5.34663784 24.5794902,5.08761081 24.5794902,4.67398919 L24.1186132,4.67398919 Z M25.9620139,2.19647568 C26.1661211,2.40458378 26.576588,2.55928649 27.1910549,2.66101622 C27.1910549,2.76501622 27.445465,2.81593514 27.9591117,2.81593514 C28.674506,3.43517838 29.0344555,3.89971892 29.0344555,4.20944865 L29.0344555,4.36425946 C28.8280959,4.67398919 28.7272757,4.98361081 28.7272757,5.29334054 L28.7272757,5.44815135 L28.5735785,5.91269189 L28.7272757,6.37723243 C28.7272757,6.58534054 28.6239886,6.84177297 28.4199886,7.15139459 L28.4199886,7.30631351 L28.4199886,8.39020541 L28.4199886,8.54501622 L28.2663987,8.85474595 L28.4199886,9.16436757 L28.1127016,9.47398919 L28.1127016,9.62890811 L28.2663987,9.62890811 C28.1631117,11.1773405 28.0095218,12.6241514 27.8055218,13.9645838 L27.8055218,14.4290162 L27.8055218,15.2032865 L27.8055218,15.5130162 C27.8055218,16.2363676 27.7527521,16.8049081 27.6518246,17.2162595 L27.6518246,17.3710703 L27.8055218,17.3710703 L30.2634965,16.9065297 C30.7747836,17.2162595 31.2859634,17.4242595 31.7996101,17.5258811 C31.7996101,17.6299892 32.0541274,17.6808 32.5677741,17.6808 L33.3359382,17.9904216 C33.3359382,18.3001514 33.5399382,18.5082595 33.950405,18.609773 L33.950405,19.0743135 L33.950405,19.2292324 L33.950405,19.5388541 C33.950405,19.8484757 33.6935281,20.1075027 33.182241,20.3130162 C33.0790612,20.2115027 32.6181842,20.0565838 31.7996101,19.8484757 L31.6460202,19.693773 L31.1851432,19.693773 C30.9787836,19.693773 30.7747836,19.5920432 30.5706763,19.3839351 L30.2634965,19.5388541 L28.1127016,19.3839351 L27.6518246,19.5388541 L27.0373577,19.3839351 L26.8837678,19.3839351 C26.2693009,20.1075027 25.6548341,20.7267459 25.0403672,21.2420973 C24.8339003,21.2420973 24.6802032,20.8816649 24.5794902,20.1582054 L24.5794902,19.8484757 L24.5794902,19.693773 L23.8113262,19.8484757 L23.1968593,19.8484757 C23.0935722,19.9525838 22.1719256,20.1582054 20.4317047,20.4679351 L20.1244177,20.6227459 L19.8172379,20.6227459 C19.4066637,20.8308541 18.5354271,21.0365838 17.2055659,21.2420973 C16.5910991,21.551827 15.7702726,21.8107459 14.7476984,22.0163676 L14.5940013,22.0163676 C14.3876416,22.0163676 13.7730675,21.551827 12.7506006,20.6227459 L12.7506006,20.4679351 C12.7506006,20.3663135 12.9041905,20.2622054 13.2114776,20.1582054 L13.5186574,20.3130162 L16.7447962,19.5388541 L17.051976,19.5388541 C17.1527962,19.4373405 17.4600833,19.3839351 17.97373,19.3839351 L17.97373,19.2292324 L17.97373,18.7646919 L17.97373,18.4549622 L17.97373,17.8356108 L17.97373,17.3710703 L17.97373,17.2162595 L18.1273199,17.0613405 L18.1273199,16.9065297 C18.0241401,16.9065297 17.97373,16.8049081 17.97373,16.5968 L17.97373,16.4419892 L17.97373,15.6677189 L17.8200328,15.2032865 L17.97373,14.7387459 L17.8200328,14.2742054 L17.97373,13.8096649 L17.6664429,13.5000432 L17.97373,13.1903135 L17.6664429,12.8805838 L17.97373,12.1064216 L17.6664429,11.6418811 L17.6664429,10.8677189 L17.8200328,10.5579892 L17.6664429,10.2483676 L17.8200328,10.0934486 L17.6664429,9.47398919 L17.8200328,8.23528649 L17.6664429,7.77085405 L17.6664429,7.30631351 C17.6664429,7.10058378 17.5632631,6.63604324 17.3592631,5.91269189 C17.3592631,5.50134054 17.2560833,5.24252973 17.051976,5.13852973 L17.051976,4.98361081 L17.512853,4.51907027 C17.716853,4.51907027 18.0241401,4.77798919 18.4346069,5.29334054 L18.5881968,5.29334054 C18.689017,5.08761081 19.0994839,4.93290811 19.8172379,4.8288 C19.8172379,4.72717838 20.0212379,4.62307027 20.4317047,4.51907027 L20.7388845,4.51907027 C20.9429918,4.41755676 21.6078688,4.20944865 22.7359823,3.89971892 C22.7359823,3.7980973 23.0432694,3.6940973 23.6577363,3.5900973 L24.4257931,3.28036757 C24.9370801,2.55928649 25.4483672,2.19647568 25.9620139,2.19647568 Z M13.2114776,0.0286918919 L13.5186574,0.338421622 L13.6723546,0.183502703 L13.8259445,0.183502703 C14.3372315,0.183502703 14.7476984,0.752151351 15.0548782,1.88685405 C15.0548782,1.99085405 14.6948215,2.35139459 13.9795344,2.97063784 L13.8259445,2.97063784 C13.8259445,3.07474595 13.3122978,3.33366486 12.2897237,3.74490811 L11.6752568,4.36425946 C11.3679697,4.36425946 11.1615028,4.46836757 11.0607899,4.67398919 L10.5999129,4.51907027 C10.2926259,4.93290811 9.98544606,5.13852973 9.67815899,5.13852973 C9.67815899,5.44815135 9.37097918,5.60307027 8.75640505,5.60307027 C8.65322524,4.98361081 8.39634826,4.57236757 7.98834826,4.36425946 C7.8850612,4.15852973 7.57788139,3.95301622 7.06659432,3.74490811 L6.29853754,2.97063784 L6.29853754,2.66101622 L6.45212744,2.35139459 L6.45212744,2.04155676 C6.45212744,1.94004324 6.60571735,1.78512432 6.91300442,1.57712432 L7.22018423,1.73193514 L7.52747129,1.73193514 C7.52747129,1.52631351 8.34593817,1.26739459 9.98544606,0.957772973 C11.2143798,0.546421622 12.2897237,0.236691892 13.2114776,0.0286918919 Z M13.8259445,6.37723243 C13.9267647,6.58534054 14.3372315,6.79096216 15.0548782,6.99658378 C15.4629855,7.20469189 15.6694524,7.41042162 15.6694524,7.61593514 C15.6694524,7.82404324 14.9516984,8.02966486 13.5186574,8.23528649 C12.5970107,8.54501622 12.0328467,8.69982703 11.8288467,8.69982703 C11.8288467,9.11355676 11.9825438,9.42328649 12.2897237,9.62890811 L12.2897237,10.0934486 L11.8288467,10.7128 L11.8288467,10.8677189 L12.1361338,11.3322595 L12.1361338,11.4870703 L11.9825438,11.6418811 L11.9825438,11.7968 L11.9825438,12.2613405 L11.8288467,12.5709622 L11.8288467,12.725773 L11.9825438,12.725773 L12.7506006,12.5709622 C12.7506006,12.8805838 13.3650675,13.0355027 14.5940013,13.0355027 L15.2085754,13.5000432 L15.3621653,13.6548541 L15.3621653,13.5000432 L15.5157552,13.5000432 C15.7197552,13.5000432 15.9238625,13.9645838 16.1303293,14.8935568 L15.6694524,15.2032865 C15.6694524,15.5130162 15.3621653,15.771827 14.7476984,15.9775568 L14.5940013,15.9775568 C14.0803546,15.875827 13.7227647,15.6677189 13.5186574,15.3580973 C13.2114776,15.3580973 13.0050107,15.2564757 12.9041905,15.0484757 C12.2897237,14.7387459 11.9296669,14.5839351 11.8288467,14.5839351 L11.8288467,15.3580973 L11.6752568,15.5130162 L11.8288467,15.8226378 L11.6752568,16.4419892 L11.8288467,17.0613405 L11.6752568,17.2162595 L11.8288467,17.5258811 L11.6752568,18.3001514 L11.8288467,18.4549622 L11.6752568,18.7646919 L11.8288467,18.9195027 L11.6752568,19.2292324 L11.6752568,19.3839351 L11.8288467,19.3839351 L11.6752568,20.1582054 L11.6752568,20.9324757 L11.8288467,21.2420973 L11.6752568,21.7066378 L11.6752568,22.3259892 L11.5216669,22.6357189 L11.6752568,23.1002595 C11.6752568,23.3082595 11.6223798,23.4099892 11.5216669,23.4099892 L11.6752568,23.8744216 L11.5216669,24.1841514 L11.5216669,24.3389622 L11.6752568,24.4938811 C11.6752568,25.2172324 11.5719697,25.7325838 11.3679697,26.0422054 L11.3679697,26.1971243 C11.1615028,26.4052324 11.0607899,26.6108541 11.0607899,26.8164757 L10.4462158,27.5906378 L9.67815899,27.9003676 C9.47169211,27.6923676 9.31810221,27.0244757 9.21728202,25.8875027 C9.0109224,25.5776649 8.85722524,25.1131243 8.75640505,24.4938811 C8.96040505,24.3922595 9.06369211,24.0293405 9.06369211,23.4099892 L9.06369211,23.1002595 C9.06369211,22.4809081 9.11399495,22.1712865 9.21728202,22.1712865 L9.06369211,20.7775568 L9.21728202,20.1582054 L9.06369211,19.8484757 L9.06369211,19.2292324 L9.06369211,16.4419892 L9.06369211,15.9775568 L9.06369211,15.6677189 L8.91010221,15.6677189 C8.91010221,16.0815568 8.60281514,16.4419892 7.98834826,16.7517189 C7.78188139,17.1654486 7.57788139,17.3710703 7.37377413,17.3710703 C5.7343735,19.0235027 4.60861956,20.0565838 3.99415268,20.4679351 C3.68686562,20.7775568 3.12280883,21.1912865 2.30434196,21.7066378 C1.79069527,22.0163676 1.4834082,22.1712865 1.38258801,22.1712865 C1.38258801,22.3791784 1.17612114,22.4809081 0.768121136,22.4809081 C0.768121136,22.5849081 0.561654259,22.6890162 0.153654259,22.7905297 L-4.29022082e-05,22.4809081 L1.22899811,21.8614486 C1.84346498,21.551827 2.81562902,20.6760432 4.14774259,19.2292324 L6.29853754,16.2871784 C6.29853754,16.1855568 6.50253754,15.8226378 6.91300442,15.2032865 C6.91300442,15.1016649 7.16741451,14.6879351 7.6810612,13.9645838 L8.14193817,12.8805838 C8.14193817,12.7790703 8.24275836,12.5201514 8.44922524,12.1064216 C8.65322524,11.3854486 8.85722524,10.9717189 9.06369211,10.8677189 L8.91010221,10.5579892 L9.06369211,10.2483676 L7.8346511,11.0225297 L7.52747129,11.0225297 C7.52747129,11.2305297 6.86012744,11.6418811 5.5303735,12.2613405 C4.70943975,12.7790703 4.19815268,13.1395027 3.99415268,13.3451243 L3.84056278,13.3451243 C3.53327571,12.933773 2.96921893,12.3653405 2.15075205,11.6418811 L1.53617792,11.4870703 L1.38258801,11.3322595 L1.38258801,10.8677189 C1.38258801,10.7660973 1.68987508,10.6620973 2.30434196,10.5579892 L3.2260959,10.2483676 L3.53327571,10.2483676 C3.53327571,10.1466378 3.89097287,9.99182703 4.60861956,9.78382703 L5.3767836,9.47398919 C6.09207066,9.26847568 7.27059432,8.85474595 8.91010221,8.23528649 L13.2114776,6.68685405 L13.8259445,6.37723243 Z" id="Fill-1" fill="#FFFFFF" mask="url(#mask-2)"></path>
            </g>
            <path d="M47.9668895,22.451634 L48.4238566,22.6076252 L50.8608722,22.1398692 L53.6026744,21.6721132 L54.0596414,21.6721132 L54.0596414,21.516122 L52.9934204,19.6452069 L51.9271995,18.0860566 L51.6225194,18.0860566 C51.5202149,18.1907765 51.2155348,18.709695 50.7085853,19.6452069 L49.0331105,21.516122 L47.9668895,22.451634 Z M47.9668895,3.741939 C47.9668895,3.95137872 48.3214457,4.1072611 49.0331105,4.20969498 C49.0331105,4.31441484 49.387773,4.36557735 50.0993314,4.36557735 L50.2516183,4.67745096 L50.0993314,5.61296292 L50.2516183,5.61296292 C50.5562984,5.30098046 50.9609434,5.14520694 51.4702325,5.14520694 L51.6225194,4.98921571 L51.9271995,4.98921571 C52.0271644,5.19876429 52.2817557,5.30098046 52.6887403,5.30098046 L52.8410272,4.67745096 L52.3841665,3.741939 L52.6887403,3.58594776 C52.8910096,3.58594776 53.2456722,3.741939 53.7549613,4.05370375 C54.0596414,4.15842361 54.46418,4.78217082 54.9735754,5.92472767 L54.9735754,6.08061005 C54.8711646,6.49720352 54.5165021,7.06967936 53.9072481,7.79564274 L53.6026744,7.79564274 C53.3979591,7.79564274 53.1457073,7.43271548 52.8410272,6.7042484 L52.5364534,6.7042484 C52.2317733,6.7042484 51.7748063,6.86023963 51.1655523,7.17200438 L51.0132655,7.17200438 L50.5562984,7.32788676 L50.0993314,7.32788676 L50.0993314,7.48387799 L50.4040115,7.79564274 L50.4040115,8.26339872 C50.5039764,8.9918658 50.6062809,9.51067544 50.7085853,9.82254904 C50.7085853,10.8627809 50.910961,11.4865281 51.3178392,11.693573 C51.5202149,12.7338048 51.7748063,13.3062806 52.0794864,13.4086057 C52.1794513,13.4086057 52.3317381,12.994407 52.5364534,12.1613289 C52.6364183,12.1613289 52.6887403,12.0588951 52.6887403,11.8494553 L52.6887403,11.693573 L53.1457073,10.290305 L52.6887403,9.66666667 L52.6887403,9.35479306 C52.7887052,9.14774817 52.9934204,9.04291945 53.2979942,9.04291945 C53.2979942,9.25246804 53.7549613,9.61550416 54.6688953,10.1344226 C54.7688602,10.3438624 54.9735754,10.4998536 55.2781492,10.6021786 L55.2781492,10.758061 L54.0596414,13.4086057 L53.2979942,14.6559912 L52.9934204,15.435512 L52.9934204,15.9032679 C53.0933853,15.9032679 53.1457073,16.1638702 53.1457073,16.6827887 C53.3479767,16.7876174 53.550246,17.1505447 53.7549613,17.774183 C53.8549261,17.774183 54.007213,17.9837316 54.2119283,18.3979302 C54.6165733,19.0214597 54.8711646,19.3333333 54.9735754,19.3333333 L55.5828293,20.5807189 C55.4804185,20.5807189 55.3781141,20.7901586 55.2781492,21.2043573 L54.9735754,21.2043573 L55.8874031,21.983878 L56.1920833,21.8279956 L56.1920833,21.516122 L56.1920833,20.8924837 L56.1920833,19.8010893 L56.1920833,19.3333333 L56.1920833,19.0214597 L56.1920833,18.5537037 L56.1920833,18.3979302 L56.3443702,18.0860566 L56.1920833,17.6183006 L56.1920833,17.4624183 L56.1920833,16.8386711 L56.1920833,16.2150327 L56.1920833,16.0591503 L56.1920833,15.5913943 L56.1920833,14.8117648 L56.1920833,14.5 L56.1920833,12.9408497 L56.1920833,12.7849673 L56.1920833,12.0053377 L56.1920833,11.693573 L56.1920833,11.0698258 L56.1920833,10.758061 L56.1920833,10.6021786 L56.1920833,9.97843142 L56.1920833,9.51067544 L56.1920833,9.35479306 L56.1920833,9.04291945 L56.1920833,8.41938995 L56.1920833,8.26339872 L56.1920833,8.10751635 L56.1920833,5.92472767 L56.1920833,5.76873644 C56.0896725,5.66652027 56.0397964,5.40580918 56.0397964,4.98921571 L56.0397964,3.11830064 C55.9373856,3.01586676 55.8350811,2.75526452 55.7351162,2.33867105 L55.2781492,2.49455343 L54.8211822,2.33867105 C54.1096238,2.33867105 52.5364534,2.59938215 50.0993314,3.11830064 C50.0993314,3.22291165 49.7423292,3.32774037 49.0331105,3.43006539 C49.0331105,3.53489411 48.6761083,3.58594776 47.9668895,3.58594776 L47.9668895,3.741939 Z M45.6821608,12.0053377 L45.5297675,12.0053377 L44.6159398,12.3172113 L44.3112597,12.4730937 L43.8542927,12.3172113 L43.8542927,12.4730937 L44.3112597,12.9408497 L44.1589728,13.564488 L44.1589728,14.3441176 L44.1589728,14.8117648 L44.1589728,14.967756 C45.1727654,14.7607111 45.9344125,14.5 46.4437016,14.1882352 C46.6459709,13.6692079 46.7483817,13.3062806 46.7483817,13.0967321 L46.5959885,12.9408497 L46.9006686,12.6290849 L46.9006686,12.3172113 L46.7483817,12.1613289 L46.7483817,11.8494553 L45.6821608,12.0053377 Z M48.7285367,16.5269063 L48.8808236,16.8386711 L49.3377906,16.6827887 L49.7946513,16.6827887 L49.9470445,16.9946623 C49.9470445,17.0993821 49.6423644,17.306427 49.0331105,17.6183006 C48.8283952,17.6183006 48.5761434,17.7231294 48.2715697,17.9301742 L47.9668895,17.9301742 C47.9668895,18.1397228 47.7621743,18.2954963 47.3576356,18.3979302 L46.7483817,18.3979302 C46.7483817,18.709695 46.493684,18.9192436 45.9867345,19.0214597 C45.7821256,19.2310083 44.8681916,19.8010893 43.2450387,20.7366013 C43.2450387,20.8413211 42.990341,20.8924837 42.4833916,20.8924837 L41.4171707,19.9569717 C41.2125617,19.9569717 41.1124905,19.8547555 41.1124905,19.6452069 L41.1124905,19.4892157 L42.7880717,19.0214597 C42.990341,18.8144148 43.1926104,18.709695 43.3973256,18.709695 C43.599595,18.6074788 44.1065444,18.3979302 44.9205136,18.0860566 L45.6821608,17.774183 C45.6821608,17.6719668 45.8843237,17.6183006 46.2914147,17.6183006 C46.493684,17.306427 46.7983641,17.1505447 47.2052424,17.1505447 L47.5099225,16.9946623 L47.6622094,16.9946623 L48.7285367,16.5269063 Z M56.9536241,0 L57.2583042,0 L57.8675581,0.779520732 C58.1722383,0.779520732 58.42449,0.989069315 58.6292053,1.40326794 C59.543033,1.61259882 60,1.92458128 60,2.33867105 L60,2.80642703 C60,3.11830064 59.8477131,3.43006539 59.543033,3.741939 L59.6954262,4.20969498 L59.3907461,4.67745096 L59.3907461,4.98921571 L59.543033,5.14520694 L59.543033,5.45697169 L59.6954262,6.86023963 L59.543033,6.86023963 L59.6954262,7.01612201 L59.6954262,7.79564274 L59.543033,9.04291945 L59.6954262,9.51067544 L59.543033,9.82254904 L59.6954262,10.1344226 L59.543033,10.4462963 L59.6954262,11.0698258 L59.6954262,11.225817 L59.543033,11.3818082 L59.6954262,11.8494553 L59.6954262,13.0967321 L59.543033,13.8763616 L59.6954262,13.8763616 L59.6954262,14.032244 L59.543033,14.032244 L59.6954262,14.5 L59.6954262,15.1237472 L59.543033,15.435512 L59.6954262,15.5913943 L59.6954262,16.5269063 C59.6954262,16.8386711 59.6429978,16.9946623 59.543033,16.9946623 L59.6954262,17.306427 L59.543033,17.9301742 L59.6954262,18.8656862 L59.6954262,19.0214597 L59.543033,19.4892157 L59.6954262,20.1129629 L59.6954262,22.2956427 L59.543033,22.91939 L59.6954262,23.2312636 L59.543033,23.6990195 L59.543033,24.0107843 C59.543033,24.7392514 59.4907109,25.1022875 59.3907461,25.1022875 L59.3907461,25.258061 C59.3907461,25.7793743 59.1361547,26.4542841 58.6292053,27.2849673 C58.6292053,27.4945159 58.4769184,27.6503983 58.1722383,27.7527233 C58.1722383,28.0645969 57.967523,28.2716418 57.5629843,28.3764705 L56.8013372,29 L56.3443702,29 C56.2420657,29 56.0896725,28.6882352 55.8874031,28.0645969 L55.8874031,27.9087145 L56.0397964,27.4409585 L55.8874031,27.1290849 L56.0397964,26.0376906 L55.8874031,25.725817 L55.8874031,25.1022875 L55.5828293,23.2312636 L54.9735754,23.3871459 L54.3642152,23.2312636 L53.9072481,23.2312636 L53.7549613,23.2312636 L53.6026744,23.2312636 L53.1457073,23.2312636 L52.3841665,23.3871459 L52.3841665,23.2312636 L51.4702325,23.5430283 L51.1655523,23.3871459 C50.5562984,23.4919747 50.0470094,23.5966945 49.6423644,23.6990195 L49.1853974,23.5430283 L47.3576356,24.0107843 L47.2052424,24.0107843 L44.0065796,24.790305 L43.8542927,24.6345315 C43.1426279,25.0510161 42.533374,25.3116184 42.0264246,25.4140522 C41.4171707,25.3116184 41.1124905,25.1022875 41.1124905,24.790305 L40.9602036,24.9462963 L40.5032366,24.9462963 C40.5032366,25.3628897 40.4009321,25.6746545 40.1986628,25.8818082 L40.1986628,26.193573 L40.1986628,26.3495642 C39.7916782,27.0779224 39.437122,27.4409585 39.1324419,27.4409585 L38.980155,27.4409585 L38.8277617,27.4409585 C38.523188,27.4409585 38.3707947,27.1826423 38.3707947,26.6613289 L37.6092539,24.790305 L37.6092539,21.2043573 L37.4568607,20.8924837 L37.6092539,20.4247277 L37.6092539,19.0214597 L37.4568607,18.5537037 L37.6092539,18.241939 L37.6092539,14.6559912 L37.6092539,14.5 L37.6092539,14.032244 L37.6092539,13.7204793 L37.6092539,13.4086057 L37.6092539,12.4730937 L37.6092539,11.3818082 L37.6092539,9.19891069 L37.6092539,8.57516347 L37.6092539,7.48387799 L37.6092539,7.32788676 C37.6092539,6.7042484 37.5069495,6.13427626 37.3045738,5.61296292 C37.3045738,5.40580918 37.2022693,5.19876429 37,4.98921571 L37,4.52145973 C37,4.41924356 37.0998585,4.36557735 37.3045738,4.36557735 C38.3184727,4.67745096 38.8277617,5.09393557 38.8277617,5.61296292 L39.8939827,6.39248365 C40.5032366,6.80907712 40.8079167,7.22567059 40.8079167,7.63976037 C40.6032015,8.26339872 40.3509497,8.57516347 40.0463759,8.57516347 L40.1986628,9.04291945 L40.0463759,9.35479306 L40.1986628,9.66666667 L39.8939827,10.1344226 L40.0463759,10.758061 L39.8939827,11.5375817 L39.8939827,12.0053377 L39.8939827,12.7849673 L39.8939827,13.0967321 L39.8939827,13.8763616 L39.8939827,14.3441176 L39.8939827,15.1237472 L39.8939827,16.0591503 L39.8939827,16.2150327 L39.8939827,16.8386711 L39.8939827,16.9946623 L39.8939827,18.0860566 L39.8939827,18.5537037 L39.8939827,19.0214597 L40.0463759,19.8010893 L39.8939827,20.2688453 C39.9939475,20.3735652 40.0963584,20.8924837 40.1986628,21.8279956 L40.0463759,22.451634 L40.1986628,22.6076252 L40.1986628,23.0752723 L40.1986628,23.3871459 L40.3509497,23.5430283 L40.1986628,24.0107843 L41.8741377,23.6990195 L42.0264246,23.6990195 C42.0264246,23.5966945 42.3311047,23.4919747 42.9403586,23.3871459 L43.2450387,23.3871459 L44.7682267,23.0752723 L44.7682267,23.2312636 L44.9205136,23.2312636 L45.2251937,23.0752723 L45.5297675,23.0752723 C45.5297675,22.9729473 46.036717,22.8682274 47.0529555,22.7635076 C47.3576356,22.7635076 48.016872,22.0887067 49.0331105,20.7366013 C49.3377906,20.1129629 49.5400599,19.5940444 49.6423644,19.177451 C49.8447401,18.8656862 49.9970269,18.709695 50.0993314,18.709695 L50.0993314,18.3979302 C50.0993314,18.2954963 50.1992963,18.1907765 50.4040115,18.0860566 L50.4040115,17.6183006 C50.6062809,17.5159756 50.7085853,17.2553734 50.7085853,16.8386711 L51.1655523,16.3710239 L51.1655523,16.2150327 C51.0632479,16.1128165 50.9609434,15.6961142 50.8608722,14.967756 C50.7585678,14.865431 50.7085853,14.7607111 50.7085853,14.6559912 L50.7085853,14.1882352 C50.6062809,14.1882352 50.3515832,13.564488 49.9470445,12.3172113 C49.8447401,12.3172113 49.7946513,12.2148863 49.7946513,12.0053377 L49.4900775,11.8494553 C49.0830929,12.1613289 48.6261259,12.7338048 48.1191764,13.564488 L48.1191764,13.7204793 L48.5761434,14.1882352 L48.5761434,14.6559912 C48.5761434,14.7607111 48.1691589,14.8117648 47.3576356,14.8117648 L46.1391278,15.2795207 L45.9867345,15.2795207 C45.6821608,15.4890693 45.2750698,15.6450605 44.7682267,15.7472767 L44.1589728,16.2150327 C44.1589728,16.6316262 44.0065796,16.8386711 43.7020058,16.8386711 C43.7020058,17.1505447 43.599595,17.306427 43.3973256,17.306427 L43.2450387,17.306427 L42.6357848,15.9032679 L42.6357848,15.435512 C42.6357848,14.8117648 42.3810871,13.7740366 41.8741377,12.3172113 C41.5694575,12.0053377 41.4171707,11.693573 41.4171707,11.3818082 L41.7218508,11.225817 C42.3311047,11.4353656 42.7357497,11.6424105 42.9403586,11.8494553 C42.9403586,11.9541752 43.0403235,12.0053377 43.2450387,12.0053377 C43.2450387,11.9031216 43.9542575,11.5911391 45.3774806,11.0698258 C45.3774806,10.9676096 45.8344477,10.8116184 46.7483817,10.6021786 L47.3576356,9.97843142 L47.5099225,9.97843142 C47.7121918,10.18798 48.0668544,10.4462963 48.5761434,10.758061 L48.8808236,10.6021786 C48.9807884,10.6021786 49.0331105,10.7068985 49.0331105,10.9140522 L49.1853974,10.9140522 L49.3377906,10.758061 C49.2353798,9.72022402 49.0331105,8.9918658 48.7285367,8.57516347 C48.7285367,8.16118256 48.6261259,7.95163397 48.4238566,7.95163397 L46.9006686,8.7311547 L46.5959885,8.57516347 C46.5959885,8.88714594 46.0866994,9.19891069 45.0729068,9.51067544 L44.6159398,9.82254904 C44.1065444,9.30373941 43.5496125,8.88714594 42.9403586,8.57516347 L42.6357848,8.10751635 C42.6357848,7.90047146 42.9403586,7.79564274 43.5496125,7.79564274 C44.1589728,7.58859785 45.0204785,7.2768331 46.1391278,6.86023963 C46.950651,6.54836603 47.6098874,6.39248365 48.1191764,6.39248365 L48.1191764,6.08061005 C48.1191764,5.66652027 48.016872,5.2499268 47.8146026,4.83322448 C47.8146026,4.73100831 47.6622094,4.41924356 47.3576356,3.89782137 C46.5436664,4.20969498 45.8843237,4.52145973 45.3774806,4.83322448 L45.0729068,4.83322448 L44.9205136,4.67745096 C44.4112245,4.88699954 43.8542927,5.04277306 43.2450387,5.14520694 C43.1426279,5.14520694 42.6357848,4.78217082 41.7218508,4.05370375 L41.1124905,3.741939 L41.1124905,3.58594776 L41.4171707,3.27418301 L41.7218508,3.43006539 C43.9542575,2.9111469 45.4274631,2.49455343 46.1391278,2.18278868 L49.7946513,1.71503269 C49.8946161,1.61259882 50.4040115,1.50798781 51.3178392,1.40326794 C51.3178392,1.30083407 51.4702325,1.24727671 51.7748063,1.24727671 L51.9271995,1.24727671 L52.3841665,1.24727671 C54.9211471,0.935511963 56.1920833,0.623638356 56.1920833,0.31176475 L56.6490503,0 L56.9536241,0 Z" id="Fill-3" fill="#FFFFFF"></path>
            <path d="M91.3448678,15.675655 L93.2044406,16.3026637 L94.1342811,16.9297818 L94.2892185,16.7729475 C95.3207637,17.6107467 95.8390248,18.1837992 95.8390248,18.4972488 C96.1488995,18.602644 96.4055415,18.9160937 96.6138197,19.4378165 C96.8196094,19.6484976 96.9238026,20.1702205 96.9238026,21.005393 C97.0253991,21.216074 97.0253991,21.4756769 96.9238026,21.7891265 C96.8196094,22.4162446 96.4055415,22.7298037 95.6839792,22.7298037 C95.6839792,22.8350895 95.4248487,22.8865285 94.9091843,22.8865285 L94.9091843,23.0432533 L94.7541387,23.0432533 C94.444264,22.9403753 94.1851335,22.6782552 93.9793438,22.2594104 C93.6693609,22.1566418 93.4102303,21.6325111 93.2044406,20.6919434 C92.7903727,19.8566614 92.584583,19.2296527 92.584583,18.8108079 L91.1899305,15.989214 L91.1899305,15.8324892 L91.3448678,15.675655 Z M92.2747083,3.91888638 C92.584583,3.91888638 93.255293,4.28640168 94.2892185,5.01617895 C95.114974,5.74858288 95.5290419,6.32415256 95.5290419,6.7404802 C95.5290419,7.26461087 95.2699113,7.52432314 94.7541387,7.52432314 C94.7541387,7.62960894 94.5992014,7.68104795 94.2892185,7.68104795 C93.8752588,7.7864432 93.6693609,7.99449757 93.6693609,8.30816608 L93.2044406,8.15133183 C93.2044406,8.46478145 92.9962706,8.62161571 92.584583,8.62161571 C92.0664301,9.14574638 91.7055949,9.4053492 91.4998052,9.4053492 C91.3957202,9.4053492 91.2407828,9.51074445 91.0348849,9.71890827 C90.7250102,9.71890827 90.5699647,9.87563308 90.5699647,10.1891921 C90.1558968,10.2944779 89.5360391,10.8701571 88.7103918,11.9134934 L88.5553463,11.9134934 L88.4004089,11.7567686 L88.4004089,11.6000438 L89.1753121,10.1891921 C89.3811018,9.77275506 89.5868915,9.30258063 89.7951697,8.77834052 C89.8968744,8.77834052 89.9501071,8.62161571 89.9501071,8.30816608 C90.0518117,8.30816608 90.1558968,8.04856326 90.26009,7.52432314 L90.4150273,7.21076407 L90.26009,7.05403926 C89.846022,7.36759833 89.5360391,7.52432314 89.3302495,7.52432314 L89.0202666,7.68104795 L88.4004089,7.68104795 C88.4004089,7.891729 87.8314037,8.20517862 86.6957735,8.62161571 L86.5408361,8.62161571 C85.7127003,7.7864432 85.2477801,7.36759833 85.1460754,7.36759833 C84.8360925,7.36759833 84.6811551,7.31615932 84.6811551,7.21076407 C84.6811551,7.00260026 84.8869448,6.89731445 85.3010127,6.89731445 L85.9209785,6.7404802 L86.3858988,6.7404802 C86.4874953,6.53231638 86.7974782,6.37548212 87.3156311,6.27019632 L88.090426,5.9567467 C88.090426,5.85386868 88.4512613,5.74858288 89.1753121,5.64318763 C89.2770168,5.43502381 89.846022,5.17290376 90.8799476,4.85945414 C90.8799476,4.75657612 91.2407828,4.54600451 91.9647254,4.232336 C91.9647254,4.12956743 92.0664301,4.02417218 92.2747083,3.91888638 Z M85.1460754,11.4432095 C85.2477801,11.7567686 85.7127003,12.0703277 86.5408361,12.3837773 C86.6425408,12.4891725 87.1606937,12.8026221 88.090426,13.324345 L88.4004089,14.2648033 L88.090426,15.2053711 L88.090426,15.8324892 L88.090426,16.9297818 L88.090426,17.2432314 L88.2454716,17.556681 L88.090426,17.7135153 L88.090426,18.4972488 L88.090426,19.1243669 L88.090426,19.4378165 L88.2454716,19.7513756 L88.090426,20.6919434 L88.090426,21.6325111 L88.2454716,21.9459607 L88.090426,21.9459607 L88.2454716,21.9459607 L88.2454716,22.102795 C88.2454716,22.4162446 88.1922389,22.5729694 88.090426,22.5729694 L88.090426,23.2000876 L88.090426,24.6109392 C88.090426,26.0755282 87.1606937,27.5378188 85.3010127,29 L84.8360925,29 L84.5262178,28.6865504 L84.5262178,27.5891484 C84.5262178,26.545812 84.0612975,25.5513975 83.131457,24.6109392 C83.131457,24.5079517 82.8724347,24.2972707 82.3566621,23.9838211 L82.2017247,23.6703714 C82.2017247,23.567384 82.2524689,23.5135372 82.3566621,23.5135372 L84.3711722,23.8269868 C84.6811551,23.8269868 84.8360925,23.1485391 84.8360925,21.7891265 L84.991138,20.0648252 L84.8360925,19.7513756 L84.8360925,19.5946508 L84.8360925,18.3406334 L84.8360925,17.4000657 L84.8360925,16.4594979 L84.8360925,16.1459388 L84.6811551,14.4216376 L84.8360925,13.4810698 L84.6811551,13.010786 L84.6811551,12.3837773 L84.5262178,11.6000438 L85.1460754,11.4432095 Z M80.1871064,16.4594979 C80.4969811,17.0865066 80.806964,17.6107467 81.1168387,18.0269649 C81.3227366,18.4459192 81.4268216,19.0214889 81.4268216,19.7513756 C81.1168387,21.1107882 80.6519184,21.9998075 80.0320608,22.4162446 L79.1023285,22.7298037 L78.947283,22.7298037 C78.533215,22.7298037 78.3274254,22.4700914 78.3274254,21.9459607 L78.1723798,21.1622272 C78.2741927,20.5351091 78.4823627,20.1187815 78.7923456,19.9081004 C78.7923456,19.8052224 78.9981353,19.4378165 79.4122032,18.8108079 C79.6179929,17.2432314 79.8238908,16.4594979 80.0320608,16.4594979 L80.1871064,16.4594979 Z M84.5262178,0 L84.8360925,0 C85.1460754,0 85.7127003,0.210571603 86.5408361,0.627008688 C87.6764663,0.627008688 88.2454716,0.889128745 88.2454716,1.41074219 L88.4004089,2.03786032 L88.4004089,2.19458513 C88.4004089,2.50803475 87.986341,3.08360443 87.1606937,3.91888638 L85.9209785,5.17290376 C85.6109956,5.69714387 85.3010127,5.9567467 84.991138,5.9567467 C84.0612975,7.1079955 83.4922923,7.68104795 83.2865026,7.68104795 L82.3566621,8.93506533 C82.0466792,9.04046057 81.8917418,9.19729483 81.8917418,9.4053492 C81.5817589,9.4053492 81.3227366,9.66757871 81.1168387,10.1891921 C80.9085605,10.1891921 79.8771235,11.1836067 78.0174425,13.1676202 L77.3975849,13.7946289 L76.9326646,13.9513537 L76.7777272,13.7946289 L76.7777272,13.6379041 L78.4823627,11.7567686 C78.5840674,11.7567686 78.9981353,11.1836067 79.7221861,10.0323579 C80.0320608,9.71890827 80.2378505,9.4053492 80.3420437,9.09189958 C80.5478334,9.09189958 80.6519184,8.93506533 80.6519184,8.62161571 C80.8578163,8.30816608 81.0127537,8.15133183 81.1168387,8.15133183 C81.3227366,7.83788221 81.4268216,7.52432314 81.4268216,7.21076407 C81.838401,6.58375539 82.0466792,6.11347151 82.0466792,5.80002189 C82.3566621,5.80002189 82.6133041,5.48646282 82.8215823,4.85945414 L83.131457,4.38917026 L83.131457,3.91888638 L83.5963773,3.60543676 L83.4414399,3.13515288 L83.7513146,2.82159382 L83.7513146,2.35130994 L83.9063602,2.03786032 L83.9063602,1.72430125 C83.5963773,1.51613743 83.4414399,1.20257837 83.4414399,0.783842943 C83.7513146,0.262010612 84.1121499,0 84.5262178,0 Z M77.0877101,0.313559066 C77.2934998,0.524130669 77.8092724,1.25401738 78.6374083,2.50803475 C78.8431979,2.50803475 79.1530727,2.7187158 79.5672488,3.13515288 L79.7221861,2.97831863 L80.1871064,3.76216157 L80.1871064,3.91888638 L80.0320608,3.91888638 L80.1871064,4.07572064 L80.1871064,4.232336 C80.1871064,4.44301705 79.9788281,4.80801513 79.5672488,5.32973801 L79.2572659,5.17290376 C79.0489876,5.278299 78.8431979,5.48646282 78.6374083,5.80002189 C77.9133574,5.90530769 77.2934998,6.27019632 76.7777272,6.89731445 L75.6929494,7.83788221 C75.6929494,8.04856326 75.4847794,8.25672708 75.0730918,8.46478145 C74.8648136,8.77834052 74.6081715,8.93506533 74.2981886,8.93506533 L74.1432513,9.09189958 L74.1432513,9.4053492 C74.5549389,9.82419407 74.9180462,10.0323579 75.2280291,10.0323579 C75.2280291,10.3460264 75.3297338,10.556598 75.538012,10.659476 L75.0730918,12.0703277 L75.2280291,12.6973363 C75.1239441,14.0566395 74.9688986,14.7350872 74.7631089,14.7350872 L74.9180462,15.2053711 L74.9180462,15.675655 L75.0730918,15.8324892 L75.0730918,15.989214 L74.9180462,16.4594979 L75.0730918,16.9297818 L75.0730918,17.0865066 L74.9180462,17.7135153 L75.0730918,18.4972488 L74.9180462,20.0648252 L75.0730918,20.3783843 L74.9180462,20.6919434 L75.0730918,21.4756769 L74.9180462,21.7891265 L75.0730918,22.2594104 L75.0730918,22.7298037 L75.0730918,23.5135372 L74.9180462,24.1406553 L75.0730918,24.4541049 L74.453126,26.335131 C74.244956,26.545812 73.8332684,27.0675349 73.2134108,27.9028169 L72.7485987,28.0594322 L71.9736956,26.1784062 L71.9736956,25.5513975 L71.9736956,24.6109392 L71.8187582,24.2972707 L71.9736956,23.6703714 L72.4386158,18.4972488 L72.4386158,17.8703495 L72.4386158,17.4000657 L72.4386158,16.4594979 L72.4386158,16.1459388 L72.4386158,15.8324892 L72.4386158,15.675655 L72.5935532,13.7946289 L72.4386158,12.6973363 L72.4386158,11.9134934 L72.5935532,10.3460264 L72.4386158,10.3460264 C72.3344226,10.3460264 72.2836785,10.4513122 72.2836785,10.659476 C72.0754003,10.9729256 71.7654174,11.1297599 71.353838,11.1297599 C70.9397701,11.5486048 70.2157193,12.0188886 69.1842823,12.5405021 C69.1842823,12.6457879 68.5644247,13.010786 67.3246013,13.6379041 C67.0146184,14.0566395 66.6005504,14.3187596 66.0848861,14.4216376 L65.9298405,14.5784719 C65.8257555,14.5784719 65.6199658,14.7350872 65.3099829,15.0486463 L65.1550455,15.0486463 L65,14.8919215 L65,14.5784719 C65.5157726,14.1620348 65.8766078,13.8484757 66.0848861,13.6379041 C66.2906757,13.6379041 66.7047437,13.3781918 67.3246013,12.8540612 C67.634476,12.8540612 68.719362,11.8620544 70.5789348,9.87563308 L72.9035361,6.7404802 C73.1093258,6.7404802 73.574246,6.11347151 74.2981886,4.85945414 C74.7098762,4.54600451 75.0198591,3.97273317 75.2280291,3.13515288 C75.3297338,3.13515288 75.4338188,2.97831863 75.538012,2.66486901 L75.538012,2.03786032 L75.538012,1.72430125 L75.538012,1.56757644 L75.538012,1.25401738 C75.538012,0.940458309 76.0029323,0.627008688 76.9326646,0.313559066 L77.0877101,0.313559066 Z" id="Fill-5" fill="#FFFFFF"></path>
            <g transform="translate(95.000000, 0.000000)">
                <mask id="mask-4" fill="white">
                    <use xlink:href="#path-3"></use>
                </mask>
                <g id="Clip-8"></g>
                <path d="M27.1913123,0.0109945055 C27.4984921,0.0109945055 27.8057792,0.265408425 28.1130662,0.77179304 C28.5210662,0.976173993 28.9315331,1.12839744 29.342,1.22825092 L30.2637539,1.83671978 L30.7246309,3.20609341 L30.7246309,3.35831685 C30.110164,4.06908242 29.546,4.47561355 29.0347129,4.57546703 L28.881123,4.57546703 L28.5739432,4.57546703 C28.3674763,4.98199817 27.9065994,5.2862326 27.1913123,5.48838278 C27.0881325,5.69276374 26.7808454,5.89491392 26.2695584,6.09695788 C26.0630915,6.40119231 25.3982145,6.95994689 24.2724606,7.77056593 L23.9652808,8.07490659 L23.9652808,8.22702381 L25.1942145,8.68348168 C26.1159685,9.19230952 26.5768454,9.6487674 26.5768454,10.0527491 C26.5768454,10.3570897 26.6776656,10.8135476 26.8840252,11.4222289 L27.0376151,11.4222289 C28.3674763,11.220185 29.2388202,11.0180348 29.6492871,10.8135476 L31.4926877,10.5093132 L31.7999748,10.5093132 L32.4144416,10.8135476 L32.5680315,10.6614304 C33.0793186,10.6614304 33.5401956,11.0679615 33.9506625,11.8786868 C33.9506625,12.3874084 33.6937855,12.6393791 33.1824984,12.6393791 L32.8753186,12.9436136 L31.7999748,12.9436136 L31.1855079,12.7914963 C30.775041,12.9958773 29.8532871,13.1980275 28.4202461,13.4000714 L27.8057792,13.4000714 C27.7025994,13.6045586 27.3953123,13.7566758 26.8840252,13.8565293 L27.0376151,14.3129872 C26.8312555,14.6173278 26.7304353,14.9215623 26.7304353,15.2257967 L26.8840252,16.4430531 L26.7304353,16.5951703 L26.7304353,17.0516282 L26.5768454,17.8124267 L26.5768454,18.573119 L26.5768454,18.7253425 L26.5768454,18.8773535 C26.4736656,20.2990971 26.3703785,21.3117601 26.2695584,21.9204414 L26.2695584,22.3768993 C26.2695584,23.289815 25.9095016,24.5592289 25.1942145,26.1805733 C24.8870347,26.3849542 24.6805678,26.6894011 24.5797476,27.093489 C24.4764606,27.093489 23.8115836,27.7020641 22.5826498,28.9193205 L22.1217729,28.9193205 L21.968183,28.6148736 L21.968183,28.4628626 L22.1217729,27.8541813 C21.8145931,26.5371777 21.507306,25.8762326 21.2001262,25.8762326 C21.2001262,25.7764853 20.9432492,25.5719982 20.4319621,25.2677637 C20.4319621,25.167804 20.2254953,24.9633168 19.8174953,24.6590824 L19.6637981,24.354848 L20.1246751,24.2026245 L20.8928391,24.5069652 L21.8145931,24.5069652 C21.9154132,24.5069652 21.968183,24.6590824 21.968183,24.9633168 L22.1217729,24.9633168 C22.1217729,24.8635696 22.2225931,24.6590824 22.4290599,24.354848 C22.4290599,24.152804 22.5298801,23.9506538 22.7362397,23.7461667 L22.7362397,23.5940495 L23.0435268,21.6161007 L23.0435268,21.3117601 C23.2475268,21.3117601 23.3507066,20.5012473 23.3507066,18.8773535 L23.5044038,18.573119 L23.3507066,18.1166612 L23.5044038,17.8124267 L23.3507066,17.5080861 C23.4515268,17.5080861 23.5044038,17.3559689 23.5044038,17.0516282 C23.401224,16.6475403 23.3507066,16.1909762 23.3507066,15.6822546 L23.5044038,15.6822546 L23.5044038,15.5302436 L23.3507066,14.9215623 L23.5044038,14.6173278 L23.0435268,14.6173278 C22.940347,14.8217088 22.0185931,15.1260495 20.2783722,15.5302436 L20.1246751,15.5302436 L18.8957413,16.2909359 L18.5885615,16.2909359 C18.0748076,15.5825073 17.6139306,15.1260495 17.2058233,14.9215623 L16.5913565,14.4651044 L16.5913565,14.16087 L16.7450536,14.0086465 L17.2058233,14.0086465 L19.3566183,13.4000714 L19.8174953,13.4000714 C20.2254953,13.1980275 20.6359621,13.0459103 21.046429,12.9436136 C21.046429,12.8438663 21.4041262,12.7914963 22.1217729,12.7914963 C22.1217729,12.6916429 22.47947,12.5894524 23.1971167,12.4871557 L23.3507066,11.8786868 L23.3507066,11.7264634 C23.0435268,10.6115037 22.47947,9.5464707 21.6608959,8.53136447 L21.6608959,8.37914103 L22.4290599,7.61844872 L22.5826498,7.61844872 L23.5044038,8.07490659 C24.5269779,6.35137179 25.0406246,5.18404212 25.0406246,4.57546703 L25.6550915,3.51043407 L25.5015016,3.35831685 C24.8870347,3.86703846 24.4261577,4.11900916 24.1188707,4.11900916 C24.0156909,4.32349634 23.9124038,4.42334982 23.8115836,4.42334982 L23.6579937,4.42334982 L23.5044038,4.42334982 C23.5044038,4.627837 23.0435268,4.93207143 22.1217729,5.33626557 C22.0185931,5.6405 21.6608959,5.89491392 21.046429,6.09695788 C20.6359621,6.60567949 20.2254953,6.85765018 19.8174953,6.85765018 C19.5102082,6.65560623 19.1501514,6.14922161 18.7421514,5.33626557 C18.6388644,5.33626557 18.3820946,5.08429487 17.9739874,4.57546703 C17.8708076,4.57546703 17.7171104,4.37331685 17.5131104,3.96689194 L17.5131104,3.66255128 C17.5131104,3.25835714 17.7171104,3.05397619 18.1276845,3.05397619 L18.2812744,3.20609341 L18.7421514,3.20609341 C18.7421514,3.30839011 18.9461514,3.41058059 19.3566183,3.51043407 C19.6637981,3.20609341 20.0214953,3.05397619 20.4319621,3.05397619 C20.6359621,2.95412271 20.9936593,2.85193223 21.507306,2.74963553 L21.6608959,2.74963553 L22.8899369,2.4454011 C22.8899369,2.34554762 23.144347,2.24335714 23.6579937,2.14116667 C23.6579937,2.04120696 23.9652808,1.93901648 24.5797476,1.83671978 C24.5797476,1.73697253 24.8870347,1.68470879 25.5015016,1.68470879 L27.1913123,0.0109945055 Z M13.672612,12.0306978 C13.672612,12.235185 13.1589653,12.4373352 12.1363912,12.6393791 C12.1363912,12.8438663 11.8795142,12.9436136 11.3683344,12.9436136 C11.1618675,13.1481007 10.9074574,13.2479542 10.6001703,13.2479542 L10.4465804,13.2479542 C10.2401136,13.958826 9.9328265,14.5672949 9.5248265,15.0737857 C9.31835962,15.3780201 9.21753943,15.6822546 9.21753943,15.9867015 C8.91035962,16.1909762 8.65348265,16.4954231 8.44948265,16.899511 L8.44948265,17.0516282 C8.44948265,17.1539249 8.91035962,17.3060421 9.83200631,17.5080861 C9.9328265,17.6103828 10.2928833,17.7623938 10.9074574,17.964544 L11.3683344,17.964544 C11.4690473,17.8646905 12.0332114,16.951881 13.0581451,15.2257967 L13.211735,14.16087 C13.5189148,14.0610165 13.7734322,13.3501447 13.9797918,12.0306978 L13.672612,12.0306978 Z M10.7537603,0.467452381 C11.5723344,1.28051465 12.0332114,1.68470879 12.1363912,1.68470879 C13.0581451,1.68470879 13.7230221,2.1934304 14.133489,3.20609341 L14.133489,3.96689194 C13.9270221,4.27112637 13.8262019,4.57546703 13.8262019,4.87980769 L13.672612,5.03192491 L13.672612,5.18404212 L13.3653249,5.94473443 C13.3653249,6.14922161 13.2621451,6.35137179 13.0581451,6.55341575 C13.0581451,6.85765018 12.9549653,7.00987363 12.750858,7.00987363 L12.750858,7.31410806 L12.4436782,8.53136447 C12.2372114,8.53136447 12.1363912,8.78577839 12.1363912,9.29205678 C11.9299243,9.29205678 11.8292114,9.59629121 11.8292114,10.2049725 L11.0610473,11.7264634 L11.0610473,12.0306978 L11.3683344,12.0306978 C11.5723344,12.0306978 11.8795142,11.8786868 12.2899811,11.5742399 L12.4436782,11.7264634 C13.5694322,11.6266099 14.1838991,11.4744927 14.2870789,11.2700055 C14.1838991,11.170152 14.0807192,10.8135476 13.9797918,10.2049725 C13.876612,10.2049725 13.8262019,10.105119 13.8262019,9.9007381 L13.8262019,9.59629121 C13.8262019,9.29205678 14.133489,9.09001282 14.7479558,8.98782234 L15.8232997,9.74851465 L15.9768896,9.59629121 C15.9768896,9.80077839 16.2841767,9.95300183 16.8986435,10.0527491 C17.3067508,10.3570897 17.5131104,10.6115037 17.5131104,10.8135476 L17.5131104,10.9657711 L17.3595205,11.4222289 L17.3595205,11.8786868 C17.3595205,12.0830678 17.1530536,12.3874084 16.7450536,12.7914963 C16.7450536,12.9958773 16.6418738,13.1481007 16.4377666,13.2479542 C16.4377666,13.4523352 16.1809968,13.958826 15.6697098,14.7694451 C15.3624227,15.6822546 14.9519558,16.3931264 14.4406688,16.899511 L14.4406688,17.0516282 L14.4406688,17.2038516 C14.4406688,17.4082326 14.2870789,17.6103828 13.9797918,17.8124267 C13.9797918,18.1166612 13.876612,18.3211484 13.672612,18.4210018 L13.211735,19.1818004 L13.211735,19.3338114 L15.2088328,20.5510678 C15.2088328,20.6532582 15.5664227,20.9076722 16.2841767,21.3117601 C16.2841767,21.4140568 16.5385868,21.6684707 17.0522334,22.0725586 C17.2563407,22.4790897 17.3595205,22.7834304 17.3595205,22.9854744 L17.3595205,24.0505073 C16.9490536,24.5592289 16.4377666,24.8113059 15.8232997,24.8113059 C15.5161199,24.8113059 15.2592429,24.5592289 15.0552429,24.0505073 C14.6446688,23.8483571 14.133489,23.3420788 13.5189148,22.5290165 C13.0052681,22.2246758 12.4436782,21.7183974 11.8292114,21.0075256 L9.06394953,23.5940495 L7.3741388,24.5069652 C6.75956467,25.0156868 5.68432808,25.6741886 4.148,26.4849139 C3.94164038,26.7891484 3.73764038,26.9413718 3.53353312,26.9413718 L3.37994322,26.9413718 L3.07265615,26.6370311 L5.53063091,24.9633168 L9.06394953,21.0075256 C9.26794953,21.0075256 9.37123659,20.9076722 9.37123659,20.703185 L10.1392934,19.9424927 L10.1392934,19.7902692 C9.9328265,19.5883315 9.11435962,19.2839908 7.68142587,18.8773535 L6.91326183,18.573119 C6.70679495,18.1690311 6.60597476,17.8124267 6.60597476,17.5080861 C6.60597476,17.3060421 6.75956467,17.0516282 7.06685174,16.7473938 L8.14230284,14.7694451 C8.24301577,14.7694451 8.29589274,14.5672949 8.29589274,14.16087 L8.29589274,14.0086465 C7.98860568,14.3129872 7.5781388,14.5174744 7.06685174,14.6173278 L6.45238486,14.7694451 L6.14509779,14.9215623 L5.99150789,14.7694451 C5.68432808,15.0737857 5.2234511,15.2781667 4.60887697,15.3780201 L4.45528707,15.3780201 C4.45528707,15.4802106 4.24892744,15.5825073 3.84082019,15.6822546 C3.63435331,15.8867418 3.53353312,16.0389652 3.53353312,16.1387125 L2.61188644,16.899511 L1.99741956,16.899511 C1.48366562,16.3931264 1.1764858,15.9867015 1.07566562,15.6822546 L1.07566562,15.5302436 C0.972378549,15.5302436 0.614788644,15.1759762 0.000214511041,14.4651044 L0.000214511041,14.16087 C0.1010347,13.6544853 0.357911672,13.4000714 0.768378549,13.4000714 L0.921968454,13.4000714 L1.69013249,13.7044121 L1.8437224,13.5522949 L2.30459937,13.7044121 L3.07265615,13.4000714 L3.22635331,13.4000714 L4.45528707,13.2479542 L4.76257413,13.4000714 C4.96657413,13.1980275 5.27375394,13.095837 5.68432808,13.095837 L5.83791798,13.095837 C6.14509779,12.8936868 6.55320505,12.7914963 7.06685174,12.7914963 L7.3741388,12.7914963 C7.68142587,12.5894524 8.19260568,12.4871557 8.91035962,12.4871557 L8.91035962,12.1829212 L9.98570347,6.85765018 L10.1392934,6.85765018 L9.98570347,6.24918132 L9.98570347,5.03192491 L10.1392934,4.27112637 L10.1392934,3.51043407 L10.1392934,3.20609341 C10.1392934,2.69981502 9.9328265,2.14116667 9.5248265,1.53248535 L9.5248265,1.22825092 C9.7288265,0.923910256 10.0361136,0.77179304 10.4465804,0.77179304 L10.7537603,0.467452381 Z" id="Fill-7" fill="#FFFFFF" mask="url(#mask-4)"></path>
            </g>
            <path d="M30,41 L26.7923842,41 L26.7923842,40.5997066 C26.8794523,40.5921768 27.0055621,40.580993 27.1708204,40.5659335 C27.3359718,40.5508741 27.4494598,40.5283956 27.5111777,40.4982767 C27.6200663,40.4532091 27.6999679,40.3845558 27.7508824,40.2924274 C27.8015831,40.2004097 27.8271473,40.0810414 27.8271473,39.9344333 L27.8271473,37.0874223 L24.1946732,37.0874223 L24.1946732,39.8724238 C24.1946732,40.0040832 24.2154241,40.1148145 24.2572468,40.2050604 C24.2989625,40.2953064 24.3816451,40.3742578 24.5050808,40.4418038 C24.5667986,40.4756876 24.6765429,40.5094606 24.8345278,40.5433444 C24.9925126,40.5772281 25.1168039,40.5960524 25.2076158,40.5997066 L25.2076158,41 L22,41 L22,40.5997066 C22.0870681,40.5921768 22.2131779,40.580993 22.3784362,40.5659335 C22.5435875,40.5508741 22.6570756,40.5283956 22.7187935,40.4982767 C22.8276821,40.4532091 22.9074767,40.3845558 22.9583913,40.2924274 C23.0091988,40.2004097 23.0346561,40.0810414 23.0346561,39.9344333 L23.0346561,34.1613493 C23.0346561,34.0410951 23.0110172,33.9312497 22.9638464,33.8315916 C22.9166756,33.7320442 22.8349556,33.6539787 22.7187935,33.5976165 C22.6208151,33.548784 22.5017649,33.5054881 22.3620708,33.4679502 C22.2222698,33.4304123 22.1015082,33.4079339 22,33.4002934 L22,33 L25.2076158,33 L25.2076158,33.4002934 C25.1058937,33.4040583 24.9816023,33.4210002 24.8345278,33.4510083 C24.6874532,33.4811272 24.5776019,33.5093637 24.5050808,33.535607 C24.3816451,33.5806746 24.2989625,33.6559719 24.2572468,33.7610558 C24.2154241,33.8663612 24.1946732,33.9809681 24.1946732,34.1049871 L24.1946732,36.5855883 L27.8271473,36.5855883 L27.8271473,34.1613493 C27.8271473,34.0410951 27.8034014,33.9312497 27.7562306,33.8315916 C27.7090598,33.7320442 27.6273398,33.6539787 27.5111777,33.5976165 C27.4131993,33.548784 27.2942561,33.5054881 27.154455,33.4679502 C27.014654,33.4304123 26.8938924,33.4079339 26.7923842,33.4002934 L26.7923842,33 L30,33 L30,33.4002934 C29.8982779,33.4040583 29.7739865,33.4210002 29.626912,33.4510083 C29.4799444,33.4811272 29.3700931,33.5093637 29.297465,33.535607 C29.1740293,33.5806746 29.0913467,33.6559719 29.0497379,33.7610558 C29.0079153,33.8663612 28.9870574,33.9809681 28.9870574,34.1049871 L28.9870574,39.8724238 C28.9870574,40.0040832 29.0079153,40.1148145 29.0497379,40.2050604 C29.0913467,40.2953064 29.1740293,40.3742578 29.297465,40.4418038 C29.3591828,40.4756876 29.4690341,40.5094606 29.626912,40.5433444 C29.7848968,40.5772281 29.9091881,40.5960524 30,40.5997066 L30,41 Z" id="Fill-9" fill="#FFFFFF"></path>
            <path d="M36.7385933,37.9519358 C36.7385933,37.7729934 36.7204323,37.5813031 36.6843344,37.3767705 C36.6481245,37.1723324 36.5901661,37.001322 36.5102352,36.8639282 C36.4226811,36.7169027 36.3028407,36.5970727 36.1507141,36.5044381 C35.9984754,36.4117092 35.8025156,36.3653447 35.5628349,36.3653447 C35.1632923,36.3653447 34.831237,36.5051936 34.566781,36.784797 C34.3023251,37.0644004 34.1587184,37.4534466 34.135849,37.9519358 L36.7385933,37.9519358 Z M38,39.7596789 C37.7640187,40.1378659 37.4482186,40.4391879 37.0524876,40.6634561 C36.6567566,40.8878187 36.2020582,41 35.6883926,41 C35.235488,41 34.838748,40.9326723 34.4982848,40.7981114 C34.1577095,40.6634561 33.8771104,40.480831 33.6563754,40.2500472 C33.4356405,40.0192635 33.2710702,39.7500472 33.1626645,39.4423041 C33.0542589,39.1346553 33,38.8093484 33,38.4663834 C33,38.1586402 33.0579583,37.8565628 33.1740992,37.5601511 C33.290128,37.2636449 33.4604157,36.9967894 33.6849622,36.7595845 C33.9018856,36.5320113 34.17105,36.3485364 34.4925674,36.2090652 C34.8140849,36.0696884 35.1746149,36 35.5741575,36 C35.9851349,36 36.3370328,36.0544854 36.6301877,36.1634561 C36.9231183,36.2724268 37.1610054,36.4214353 37.3436246,36.610576 C37.5186207,36.790085 37.6489989,37.0016997 37.7345351,37.2452314 C37.8201834,37.488763 37.8630076,37.7532578 37.8630076,38.0385269 L37.8630076,38.3558074 L34.135849,38.3558074 C34.135849,38.6674221 34.17105,38.9501416 34.241452,39.2038716 C34.311854,39.4576015 34.4231744,39.6809254 34.5754131,39.8736544 C34.7237282,40.0599622 34.9177821,40.2069877 35.1574628,40.314542 C35.3972557,40.4221907 35.6826753,40.4759207 36.0137217,40.4759207 C36.3522791,40.4759207 36.644425,40.4090652 36.8898231,40.2753541 C37.1353333,40.1416431 37.3720993,39.9008499 37.6004574,39.5528801 L38,39.7596789 Z" id="Fill-11" fill="#FFFFFF"></path>
            <path d="M43,41 L40.2875286,41 L40.2875286,40.6589482 C40.3740309,40.6520459 40.466071,40.6443317 40.5638706,40.6357039 C40.6616702,40.6270761 40.7424131,40.6140836 40.8063206,40.596828 C40.9116518,40.5658694 40.9905117,40.5115651 41.0432327,40.4339149 C41.0958429,40.3564677 41.1222034,40.2555732 41.1222034,40.1313329 L41.1222034,34.2253505 C41.1222034,34.1013132 41.0929632,33.9848887 41.0347043,33.8762799 C40.9764454,33.7676711 40.9002437,33.6823067 40.8063206,33.620288 C40.7386473,33.5789761 40.6145979,33.5410138 40.4341726,33.5065026 C40.2537473,33.4720929 40.1089862,33.4513862 40,33.4443824 L40,33.1136839 L42.092114,33 L42.1710847,33.0775487 L42.1710847,40.0697202 C42.1710847,40.1904079 42.1954515,40.2894754 42.2444067,40.3669225 C42.2931404,40.4444712 42.3721111,40.5038508 42.481208,40.5452642 C42.5638337,40.5796739 42.6455734,40.6055573 42.7265377,40.6227114 C42.8072805,40.6400685 42.8984346,40.6520459 43,40.6589482 L43,41 Z" id="Fill-13" fill="#FFFFFF"></path>
            <path d="M49,41 L46.2875286,41 L46.2875286,40.6589482 C46.3740309,40.6520459 46.466071,40.6443317 46.5638706,40.6357039 C46.6616702,40.6270761 46.7424131,40.6140836 46.8063206,40.596828 C46.9116518,40.5658694 46.9905117,40.5115651 47.0432327,40.4339149 C47.0958429,40.3564677 47.1222034,40.2555732 47.1222034,40.1313329 L47.1222034,34.2253505 C47.1222034,34.1013132 47.0929632,33.9848887 47.0347043,33.8762799 C46.9764454,33.7676711 46.9002437,33.6823067 46.8063206,33.620288 C46.7386473,33.5789761 46.6145979,33.5410138 46.4341726,33.5065026 C46.2537473,33.4720929 46.1089862,33.4513862 46,33.4443824 L46,33.1136839 L48.092114,33 L48.1710847,33.0775487 L48.1710847,40.0697202 C48.1710847,40.1904079 48.1954515,40.2894754 48.2444067,40.3669225 C48.2931404,40.4444712 48.3721111,40.5038508 48.481208,40.5452642 C48.5638337,40.5796739 48.6455734,40.6055573 48.7265377,40.6227114 C48.8072805,40.6400685 48.8984346,40.6520459 49,40.6589482 L49,41 Z" id="Fill-15" fill="#FFFFFF"></path>
            <path d="M56.9263666,38.4569176 C56.9263666,38.2174248 56.9003892,37.9644806 56.8484342,37.6978026 C56.7964793,37.4312187 56.718445,37.2053655 56.6145352,37.020149 C56.503698,36.8222335 56.3581223,36.6633555 56.1781137,36.5436091 C55.9979014,36.4238627 55.7779589,36.3639425 55.5181842,36.3639425 C55.2513804,36.3639425 55.0235937,36.4247093 54.8349259,36.5459608 C54.6460545,36.6674004 54.4928384,36.8333333 54.3750739,37.0440418 C54.2642367,37.2388531 54.1862024,37.4607555 54.1411748,37.709749 C54.0961472,37.9588366 54.0736334,38.1999285 54.0736334,38.4329307 C54.0736334,38.7394928 54.1005277,39.0229146 54.1542145,39.2831019 C54.2077994,39.5432893 54.2935759,39.7756331 54.4114423,39.979851 C54.5292068,40.1842571 54.6772274,40.3447342 54.8557079,40.4612823 C55.0340865,40.5778305 55.2549459,40.6360575 55.5181842,40.6360575 C55.951142,40.6360575 56.2941464,40.4428453 56.5469937,40.056515 C56.7998411,39.6701847 56.9263666,39.1369229 56.9263666,38.4569176 M58,38.4473229 C58,38.779471 57.9429514,39.105881 57.8286506,39.4267412 C57.7144516,39.7476013 57.5517614,40.0198292 57.3406817,40.2433307 C57.1017909,40.4988148 56.8247998,40.6887346 56.5099122,40.8132784 C56.1948208,40.9378222 55.8418329,41 55.4506428,41 C55.1252623,41 54.8154683,40.943278 54.5212608,40.8300222 C54.2270532,40.7166723 53.9657505,40.5514919 53.7372507,40.3342928 C53.5123164,40.1204801 53.3331228,39.8594461 53.1998737,39.5512849 C53.0666246,39.2431238 53,38.8975242 53,38.5143921 C53,37.7768183 53.2327785,37.173383 53.6983354,36.7039922 C54.1638923,36.2346954 54.7740062,36 55.5285752,36 C56.2450439,36 56.8361077,36.222749 57.3016646,36.6680588 C57.7671197,37.1134628 58,37.7066448 58,38.4473229" id="Fill-17" fill="#FFFFFF"></path>
            <path d="M69.1957602,41 C68.776288,41 68.3740545,40.9100005 67.9893517,40.7303192 C67.6045515,40.5505321 67.2634808,40.2916512 66.9662371,39.953465 C66.6722073,39.6154905 66.4376846,39.2028694 66.2626692,38.7154958 C66.0875564,38.2282281 66,37.6788078 66,37.0674467 C66,36.4560856 66.0859007,35.9013712 66.2577022,35.4031976 C66.4294062,34.90513 66.6671428,34.476309 66.9710093,34.1166287 C67.2715645,33.7606543 67.6265623,33.4855736 68.0361004,33.2912806 C68.4456384,33.0970935 68.8833231,33 69.3490569,33 C69.6957764,33 70.0094796,33.0466938 70.2902639,33.1401874 C70.5709509,33.2335751 70.8384898,33.3647626 71.0927832,33.5336439 L71.2959452,33.1670814 L71.6926273,33.1670814 L71.7372334,35.8949124 L71.3306171,35.8949124 C71.2777327,35.6289375 71.1985521,35.3405156 71.0928806,35.0296469 C70.987209,34.7187781 70.8634224,34.4554503 70.7214232,34.2398751 C70.5628673,33.9955 70.3747038,33.8041717 70.1568354,33.6656784 C69.9388696,33.5273969 69.6896406,33.4581502 69.4089537,33.4581502 C69.0887251,33.4581502 68.7906048,33.5354439 68.5149823,33.6901371 C68.2392624,33.8448303 68.0007467,34.0733231 67.7993377,34.3752978 C67.6078629,34.6667902 67.4574879,35.0372704 67.3486024,35.4867383 C67.2397169,35.936418 67.1851768,36.4380857 67.1851768,36.991953 C67.1851768,37.4811266 67.2421517,37.9298534 67.3560043,38.3380274 C67.4699542,38.7463074 67.6326007,39.1050347 67.8440412,39.4143152 C68.0552868,39.7201016 68.3053923,39.9591826 68.5942603,40.1318757 C68.8832257,40.3045688 69.2059864,40.3908624 69.5627374,40.3908624 C69.8301789,40.3908624 70.0761939,40.3450156 70.300685,40.2534279 C70.5251761,40.1617343 70.7199623,40.0403939 70.8852385,39.8895124 C71.0502224,39.731431 71.1955329,39.5517497 71.3209752,39.3503626 C71.4465149,39.1491874 71.5488751,38.9299063 71.6281531,38.6927312 L72,38.8868124 C71.7160017,39.6451374 71.3394799,40.1869342 70.8704347,40.5122029 C70.4012921,40.8373657 69.8431322,41 69.1957602,41" id="Fill-19" fill="#FFFFFF"></path>
            <path d="M82,41 L79.4451553,41 L79.4451553,40.6589482 C79.5258575,40.6520459 79.6154576,40.6451437 79.7137487,40.6382415 C79.8121433,40.6313392 79.8929489,40.6175347 79.9561656,40.5969295 C80.0543533,40.5658694 80.1272956,40.5115651 80.1746823,40.4341179 C80.2221724,40.3565692 80.2458657,40.2557762 80.2458657,40.1317389 L80.2458657,37.5116285 C80.2458657,37.1498699 80.1586453,36.8708368 79.9844114,36.6744275 C79.8101774,36.4780181 79.5980756,36.3798642 79.3482092,36.3798642 C79.1651808,36.3798642 78.9952924,36.4082852 78.8386474,36.4651272 C78.6820024,36.5219692 78.5420151,36.5917021 78.4188926,36.6744275 C78.2991844,36.7606039 78.2077219,36.8467804 78.1442983,36.9328554 C78.0809781,37.0189304 78.0317291,37.0913024 77.9965512,37.1498699 L77.9965512,40.0800736 C77.9965512,40.1973102 78.0202445,40.2937385 78.0676312,40.3695616 C78.1150178,40.4453848 78.1878567,40.5038508 78.2862513,40.5452642 C78.3634357,40.5796739 78.4434136,40.6055573 78.5258747,40.6227114 C78.6084392,40.6400685 78.6988671,40.6520459 78.7971582,40.6589482 L78.7971582,41 L76.2528668,41 L76.2528668,40.6589482 C76.3330517,40.6520459 76.4167543,40.6443317 76.5039748,40.6357039 C76.5911952,40.6270761 76.6644479,40.6140836 76.723733,40.596828 C76.8214033,40.5658694 76.8945526,40.5115651 76.9433878,40.4339149 C76.9922229,40.3564677 77.0166405,40.2555732 77.0166405,40.1313329 L77.0166405,34.1943919 C77.0166405,34.0771554 76.9894294,33.9600203 76.9350072,33.8426822 C76.8805849,33.7254457 76.8095049,33.6375436 76.7216637,33.5788746 C76.6585505,33.534213 76.5469125,33.5022394 76.3871635,33.4832583 C76.2274146,33.4642771 76.0982911,33.4513862 76,33.4443824 L76,33.1136839 L77.9227811,33 L77.9965512,33.0775487 L77.9965512,36.6331155 L78.0175544,36.6331155 C78.1336414,36.5193301 78.239175,36.4186386 78.3341553,36.3307365 C78.4291356,36.242936 78.554017,36.1507708 78.7087996,36.0542409 C78.8424756,35.9715156 78.9998448,35.9026962 79.1810108,35.8475798 C79.3621769,35.7924634 79.5652774,35.7648544 79.7904158,35.7648544 C80.2547637,35.7648544 80.6118191,35.9087864 80.861582,36.1963459 C81.1112414,36.4841084 81.2362263,36.8984457 81.2362263,37.4392565 L81.2362263,40.0904269 C81.2362263,40.2111146 81.2582642,40.308355 81.3024435,40.3824526 C81.3466228,40.4565501 81.4200824,40.5142041 81.5226156,40.5556176 C81.6039385,40.5865762 81.6772948,40.6098205 81.7426842,40.6253505 C81.8081771,40.640779 81.8939491,40.6520459 82,40.6589482 L82,41 Z" id="Fill-21" fill="#FFFFFF"></path>
            <path d="M87.2603727,33.6759059 C87.2603727,33.876593 87.1863402,34.0517664 87.0383915,34.2013224 C86.890559,34.350982 86.7079766,34.4256563 86.4911091,34.4256563 C86.2899314,34.4256563 86.1153682,34.3544046 85.9674195,34.2117975 C85.8194708,34.0692941 85.7455546,33.9065664 85.7455546,33.723407 C85.7455546,33.5298762 85.8194708,33.3608219 85.9674195,33.2164517 C86.1153682,33.0721851 86.2899314,33 86.4911091,33 C86.7159958,33 86.9003215,33.0678291 87.044435,33.20328 C87.188316,33.3388345 87.2603727,33.4963765 87.2603727,33.6759059 Z M88,41 L85.183396,41 L85.183396,40.6514163 C85.274048,40.6444675 85.3677217,40.6374149 85.4644172,40.6303624 C85.5611126,40.6233098 85.6449076,40.6093084 85.7159183,40.5881506 C85.8263278,40.5565178 85.9082633,40.5012381 85.9614923,40.4221041 C86.0147213,40.3429701 86.041452,40.2400856 86.041452,40.1134504 L86.041452,36.9015233 C86.041452,36.7888896 86.0127455,36.6861088 85.955565,36.5928696 C85.8983845,36.4997342 85.8184248,36.4215337 85.7159183,36.358268 C85.6409561,36.3160563 85.5325224,36.2799637 85.3905009,36.250094 C85.2484794,36.220328 85.1183125,36.2017631 85,36.1947106 L85,35.8462306 L87.059195,35.7300707 L87.141944,35.8039152 L87.141944,40.0494587 C87.141944,40.172775 87.1684423,40.2748298 87.2213226,40.355727 C87.2742029,40.4368315 87.3574168,40.4965709 87.4710805,40.5352564 C87.5571999,40.5669929 87.6414597,40.5925066 87.7237438,40.6117975 C87.806028,40.6312958 87.8980746,40.6444675 88,40.6514163 L88,41 Z" id="Fill-23" fill="#FFFFFF"></path>
            <path d="M96,41 L93.3708419,41 L93.3708419,40.6742671 C93.454513,40.6676749 93.5463262,40.6610827 93.6462816,40.6544905 C93.7462369,40.6478982 93.829051,40.6347138 93.8945094,40.6150341 C93.996286,40.5853692 94.071815,40.533504 94.1208821,40.4595354 C94.1699491,40.38547 94.1944826,40.2892043 94.1944826,40.1707383 L94.1944826,37.6683147 C94.1944826,37.3228052 94.1042764,37.0563053 93.9238639,36.868718 C93.7434515,36.6811308 93.5238282,36.5873856 93.2649942,36.5873856 C93.0718329,36.5873856 92.8950629,36.61453 92.7346844,36.6688188 C92.5741987,36.7231076 92.43214,36.7897084 92.3082939,36.868718 C92.1878761,36.9444315 92.0923132,37.0258647 92.0211767,37.1130177 C91.9501473,37.2002676 91.8980805,37.2701644 91.8654049,37.3228052 L91.8654049,40.1213937 C91.8654049,40.2333644 91.8907955,40.3254615 91.9417909,40.3978789 C91.9926792,40.4702963 92.0690653,40.5261362 92.1708419,40.5656895 C92.2472279,40.5985536 92.3299348,40.6232744 92.4190697,40.639658 C92.5080975,40.6562355 92.5999107,40.6676749 92.6945094,40.6742671 L92.6945094,41 L90.0599946,41 L90.0599946,40.6742671 C90.1435586,40.6676749 90.229908,40.6610827 90.3190429,40.6544905 C90.4080707,40.6478982 90.4854209,40.6348108 90.5508794,40.6150341 C90.6525489,40.5855631 90.728185,40.5337948 90.777252,40.4598263 C90.8263191,40.3858578 90.8508526,40.289689 90.8508526,40.1714169 L90.8508526,37.1690515 C90.8508526,37.0572747 90.8243907,36.9546107 90.7717882,36.8609625 C90.7190787,36.7673143 90.6453709,36.6908252 90.5508794,36.6315922 C90.4817784,36.5922328 90.3999286,36.5634404 90.305437,36.5454087 C90.2107312,36.5273771 90.1090617,36.5150651 90,36.508376 L90,36.1826431 L91.7890188,36.0740655 L91.8654049,36.1430898 L91.8654049,36.8292617 L91.8927239,36.8292617 C91.9799304,36.7502521 92.0890992,36.6556344 92.2199089,36.5454087 C92.3508258,36.435183 92.4744576,36.3455095 92.5909115,36.2763882 C92.7253638,36.1973786 92.8854209,36.1316504 93.0708687,36.0790096 C93.2563164,36.0263689 93.4653335,36 93.6981341,36 C94.2144094,36 94.5971967,36.1456104 94.8462816,36.4368311 C95.0953665,36.7280518 95.2199625,37.1155382 95.2199625,37.5991934 L95.2199625,40.131282 C95.2199625,40.2465488 95.2418177,40.3394214 95.2854209,40.4101908 C95.3290242,40.4809601 95.403589,40.5360245 95.5090081,40.5755778 C95.5963218,40.6084419 95.6717436,40.6315147 95.7354879,40.6446021 C95.7990179,40.6577866 95.8871886,40.6676749 96,40.6742671 L96,41 Z" id="Fill-25" fill="#FFFFFF"></path>
            <path d="M102.115535,38.2521739 C101.809464,38.3325142 101.541255,38.4113422 101.311013,38.4884688 C101.080558,38.5655955 100.86633,38.6620983 100.668434,38.7778828 C100.488355,38.8871456 100.346244,39.0166352 100.241887,39.1660681 C100.137424,39.3155955 100.085246,39.4932892 100.085246,39.6990548 C100.085246,39.965879 100.163513,40.1620038 100.320154,40.2873346 C100.476689,40.4127599 100.67554,40.4754253 100.916812,40.4754253 C101.172295,40.4754253 101.39734,40.4200378 101.591736,40.3090737 C101.786132,40.1981096 101.949879,40.0671078 102.083082,39.9160681 L102.115535,38.2521739 Z M104,40.7930057 C103.830739,40.8476371 103.682264,40.8916824 103.554469,40.9254253 C103.426675,40.9590737 103.281805,40.9758979 103.119862,40.9758979 C102.839032,40.9758979 102.614941,40.9172968 102.447588,40.8002836 C102.280236,40.6831758 102.173016,40.5123819 102.126352,40.2878072 L102.0939,40.2878072 C101.85984,40.5187146 101.608811,40.6951796 101.340708,40.8171078 C101.072498,40.9389414 100.749459,41 100.371484,41 C99.9718746,41 99.6433207,40.8908318 99.3860349,40.6726843 C99.1285369,40.4546314 99,40.1690926 99,39.8161626 C99,39.6332703 99.0287405,39.4696597 99.0863276,39.3253308 C99.1438086,39.1809074 99.2302422,39.0510397 99.3455224,38.9354442 C99.4354558,38.839225 99.5542358,38.7534972 99.7018623,38.6780718 C99.8494888,38.6026465 99.9881008,38.5425331 100.117698,38.4975425 C100.279642,38.4431002 100.60809,38.341966 101.103148,38.1944234 C101.597993,38.0468809 101.931956,37.93138 102.104717,37.8479206 L102.104717,37.3715501 C102.104717,37.3298677 102.094748,37.2496219 102.075022,37.1309074 C102.05519,37.0121928 102.012875,36.8999055 101.948076,36.7940454 C101.876066,36.6753308 101.774467,36.5719282 101.643066,36.4836484 C101.51156,36.3953686 101.32533,36.3513233 101.084164,36.3513233 C100.918508,36.3513233 100.764731,36.3761815 100.622513,36.4258979 C100.480295,36.4757089 100.380393,36.5277883 100.322806,36.5823251 C100.322806,36.6465028 100.33988,36.7411153 100.374136,36.8661626 C100.408285,36.9913043 100.425466,37.1068053 100.425466,37.2126654 C100.425466,37.3250473 100.368727,37.4276938 100.255356,37.5206994 C100.141984,37.6137996 99.9843889,37.6602079 99.7828872,37.6602079 C99.6028083,37.6602079 99.4705595,37.6033081 99.3860349,37.489414 C99.3014041,37.3756144 99.2590888,37.2480151 99.2590888,37.1068053 C99.2590888,36.9592628 99.3176303,36.8180529 99.4346074,36.6833648 C99.5515844,36.5485822 99.7036652,36.4282609 99.8908497,36.3224008 C100.0529,36.2326087 100.248992,36.1564272 100.479447,36.0938563 C100.709795,36.0312854 100.934735,36 101.154372,36 C101.45673,36 101.720379,36.0185255 101.945425,36.055293 C102.170364,36.0922495 102.37473,36.1716446 102.558308,36.2935728 C102.741887,36.4122873 102.881347,36.573535 102.976795,36.7772212 C103.072138,36.9809074 103.119862,37.2431947 103.119862,37.5639887 C103.119862,38.0227788 103.114453,38.4293951 103.103636,38.7839319 C103.092818,39.1383743 103.087515,39.5258034 103.087515,39.9460302 C103.087515,40.071172 103.111802,40.1706994 103.160374,40.2444234 C103.208947,40.318242 103.283608,40.3808129 103.384465,40.4321361 C103.438447,40.4609641 103.523926,40.4771267 103.640903,40.4802457 C103.75788,40.4834594 103.877614,40.4850662 104,40.4850662 L104,40.7930057 Z" id="Fill-27" fill="#FFFFFF"></path>
        </g>
    </g>
</svg>