<?xml version="1.0" encoding="UTF-8"?>
<svg width="24px" height="26px" viewBox="0 0 24 26" version="1.1" xmlns="http://www.w3.org/2000/svg" xmlns:xlink="http://www.w3.org/1999/xlink">
    <!-- Generator: Sketch 52.2 (67145) - http://www.bohemiancoding.com/sketch -->
    <title>head-消息通知@1x</title>
    <desc>Created with Sketch.</desc>
    <g id="时光宝库-web" stroke="none" stroke-width="1" fill="none" fill-rule="evenodd">
        <g id="切图" transform="translate(-96.000000, -789.000000)" fill="#FFFFFF" fill-rule="nonzero" stroke="#FFFFFF" stroke-width="0.4">
            <g id="head-消息通知" transform="translate(97.000000, 790.000000)">
                <g id="通知-(1)">
                    <path d="M21.627913,18.84 L19.5465217,15.72 L19.5465217,9.24 C19.5465217,7.92 18.9343478,6.48 17.9548696,5.28 C16.8529565,4.08 15.3837391,3 13.792087,2.52 C13.792087,2.52 13.6696522,2.52 13.4247826,2.4 L13.4247826,2.16 C13.4247826,0.96 12.3228696,0 10.976087,0 C9.62930435,0 8.5273913,0.96 8.5273913,2.16 L8.5273913,2.4 L8.16008696,2.4 C6.56843478,2.88 4.97678261,3.96 3.99730435,5.16 C2.8953913,6.36 2.40565217,7.8 2.40565217,9.24 L2.40565217,15.72 L0.201826087,19.08 C-0.0430434783,19.44 -0.0430434783,19.92 0.201826087,20.4 C0.446695652,20.76 0.936434783,21 1.5486087,21 L6.93573913,21 C7.1806087,22.68 8.89469565,24 10.976087,24 C13.0574783,24 14.7715652,22.68 15.1388696,20.88 L20.526,20.88 C21.3830435,20.88 21.9952174,20.28 21.9952174,19.56 C21.9952174,19.32 21.8727826,19.08 21.627913,18.84 Z M10.976087,1.08 C11.5882609,1.08 12.078,1.56 12.2004348,2.04 L11.8331304,2.04 L11.7106957,2.04 L10.363913,2.04 L9.87417391,2.04 C9.87417391,1.56 10.363913,1.08 10.976087,1.08 Z M10.976087,22.92 C9.62930435,22.92 8.40495652,22.08 8.16008696,21 L13.792087,21 C13.5472174,22.08 12.3228696,22.92 10.976087,22.92 Z M20.526,19.8 L1.42617391,19.8 C1.30373913,19.8 1.30373913,19.8 1.30373913,19.68 L1.30373913,19.44 L3.63,15.96 L3.63,9.24 C3.63,6.84 5.83382609,4.32 8.64982609,3.48 C8.77226087,3.48 9.50686957,3.24 10.2414783,3.12 L11.7106957,3.12 C12.4453043,3.24 13.3023478,3.48 13.4247826,3.48 C16.2407826,4.44 18.3221739,6.84 18.3221739,9.24 L18.3221739,15.84 C18.3221739,15.96 18.3221739,16.08 18.4446087,16.08 L20.6484348,19.32 L20.7708696,19.44 L20.7708696,19.56 C20.7708696,19.8 20.6484348,19.8 20.526,19.8 Z" id="形状"></path>
                </g>
            </g>
        </g>
    </g>
</svg>