<?xml version="1.0" encoding="UTF-8"?>
<svg width="14px" height="15px" viewBox="0 0 14 15" version="1.1" xmlns="http://www.w3.org/2000/svg" xmlns:xlink="http://www.w3.org/1999/xlink">
    <!-- Generator: Sketch 61.2 (89653) - https://sketch.com -->
    <title>双箭头-进入下一篇@1x</title>
    <desc>Created with Sketch.</desc>
    <g id="网页版web" stroke="none" stroke-width="1" fill="none" fill-rule="evenodd">
        <g id="文章详情" transform="translate(-777.000000, -2934.000000)" fill-rule="nonzero">
            <g id="双箭头-右-2" transform="translate(777.000000, 2934.000000)">
                <g id="双箭头-右">
                    <path d="M6.23638129,7.43063653 C6.30779728,7.5037395 6.39327153,7.55997256 6.48718073,7.59652405 C6.51923358,7.60945766 6.55466041,7.60945766 6.58840024,7.61845493 C6.64238397,7.63082621 6.6924314,7.64769613 6.74697748,7.64769613 C6.80152354,7.64769613 6.85100864,7.63082621 6.90386771,7.61845493 C6.93760755,7.60945765 6.97303438,7.60945765 7.00508722,7.59596172 C7.10020335,7.55941583 7.1864606,7.5030611 7.25813599,7.43063653 L13.282946,1.22813003 C13.5612104,0.946208598 13.5676596,0.495010077 13.2975666,0.205250664 C13.165617,0.0720493567 12.9851077,-0.0016656112 12.7976359,0.00109288911 C12.6101641,0.00385138941 12.4319018,0.0828453994 12.3039284,0.21987127 L6.74810213,5.93821112 L1.19227582,0.218746604 C1.06422512,0.0817957358 0.885919908,0.00290427702 0.698448613,0.00018278981 C0.510977318,-0.00240051619 0.330511562,0.07141495 0.198637655,0.204688332 C-0.0712810284,0.491476939 -0.0656577246,0.948651711 0.212695928,1.22700536 L6.23638129,7.43063653 Z" id="路径" fill="#CCCCCC"></path>
                    <path d="M12.3039284,7.06754716 L6.74810213,12.7864493 L1.19115117,7.06754716 C0.921232485,6.78075855 0.476991308,6.77457291 0.198637655,7.05236423 C0.0693016172,7.18957289 -0.00267670485,7.37457966 5.55677793e-05,7.56689672 C0.00294661245,7.75808912 0.0794235719,7.94140889 0.213820581,8.07468125 L6.23975528,14.2783124 C6.31117127,14.3508531 6.39608318,14.4070861 6.48999239,14.4436376 C6.52092057,14.4588205 6.55578507,14.4588205 6.59121189,14.4661308 C6.64350864,14.4790644 6.69355606,14.4959344 6.74810213,14.4959344 C6.80264819,14.4959344 6.85157095,14.4790644 6.90443005,14.4666932 C6.93816988,14.4576959 6.97359672,14.4576959 7.00564955,14.4441999 C7.10078367,14.4082175 7.18707945,14.3522211 7.25869831,14.2799994 L13.2840707,8.07693058 C13.5612814,7.79431451 13.5669805,7.34358609 13.2970043,7.05405122 C13.1649738,6.92114605 12.9846447,6.84753493 12.7973231,6.8500792 C12.6100016,6.85262347 12.4317383,6.93110511 12.3033661,7.06754716 L12.3039284,7.06754716 Z" id="路径" fill="#9E9E9E"></path>
                </g>
            </g>
        </g>
    </g>
</svg>