<?xml version="1.0" encoding="UTF-8"?>
<svg width="24px" height="24px" viewBox="0 0 24 24" version="1.1" xmlns="http://www.w3.org/2000/svg" xmlns:xlink="http://www.w3.org/1999/xlink">
    <!-- Generator: Sketch 52.2 (67145) - http://www.bohemiancoding.com/sketch -->
    <title>图片@1x</title>
    <desc>Created with Sketch.</desc>
    <g id="时光宝库web版" stroke="none" stroke-width="1" fill="none" fill-rule="evenodd">
        <g id="切图" transform="translate(-35.000000, -889.000000)" fill="#FFFFFF" fill-rule="nonzero" stroke="#FFFFFF" stroke-width="0.4">
            <g id="图片" transform="translate(36.000000, 890.000000)">
                <path d="M19.1221265,-1.38634783e-13 L2.90224195,-1.38634783e-13 C1.31357825,0.00176 0.0261509434,1.29059333 0.0243684795,2.88087556 L0.0243684795,19.1189289 C0.0261265261,20.7093578 1.31352941,21.9982156 2.90204661,22 L19.1220777,22 C20.7107414,21.99824 21.9981687,20.7094067 21.9999512,19.1191244 L21.9999512,2.88107111 C21.9981931,1.29064222 20.7107902,0.00178444444 19.122273,-1.42108547e-13 L19.1221265,-1.38634783e-13 Z M2.90229079,1.04654 L19.1221754,1.04654 C20.1334917,1.04776222 20.9529123,1.86853333 20.9534251,2.88099778 L20.9534251,6.24350222 C17.2614051,6.37310667 13.8110677,7.87086667 11.1890388,10.4961267 C9.32275028,12.36026 7.95955605,14.7285111 7.32070144,17.3794867 C8.00563966,15.4616896 8.32186829,14.5596326 8.26938735,14.6733156 C8.22286422,14.6337156 8.17572253,14.5949304 8.12796226,14.55696 C8.09413615,14.5300711 8.06010655,14.5034919 8.02587347,14.4772222 C6.062404,12.9810022 3.36934517,12.8815622 1.30906104,14.1795867 C1.2287118,14.2302844 1.14929042,14.2830193 1.07079689,14.3377911 L1.07079689,2.88102222 C1.07133407,1.86838667 1.89092564,1.04756667 2.90226637,1.04651556 L2.90229079,1.04654 Z M1.06979578,19.1189289 L1.06979578,15.6939933 C1.16123048,15.6051459 1.25510692,15.5207067 1.35142508,15.4406756 C3.19312542,13.9090356 5.90833074,13.9518378 7.70114761,15.5693511 C7.74828931,15.6118356 7.79481243,15.6554363 7.84071698,15.7001533 C7.77799704,15.8690319 7.71835368,16.0391407 7.6617869,16.21048 C7.19783352,17.5740156 6.93,19.1447911 6.93,20.7781933 C6.93,20.78472 6.93,20.7912467 6.93002442,20.7977978 C6.93002442,20.7969422 6.93002442,20.7971867 6.93002442,20.7973822 C6.93002442,20.8533111 6.93879023,20.9072111 6.95502775,20.9577622 L2.90224195,20.9540711 C1.8901687,20.9535578 1.06994229,20.1321756 1.06977137,19.1189778 L1.06979578,19.1189289 Z M19.1209301,20.9522378 L7.95357381,20.9522622 C7.96878579,20.9054022 7.97757603,20.8515022 7.97757603,20.7955489 C7.97757603,20.7953533 7.97757603,20.7951089 7.97757603,20.7949133 C7.97757603,17.1822689 9.38083907,13.7874733 11.9290788,11.23672 C14.3019046,8.84989111 17.565303,7.35225333 21.1780888,7.28574 L20.9534007,19.1189778 C20.9521798,20.1309778 20.1330277,20.95104 19.122273,20.9522622 L19.1209301,20.9522378 Z" id="形状"></path>
                <path d="M6.10264373,8.57359556 C7.60135405,8.57254444 8.81609101,7.35687333 8.81784906,5.85676667 C8.81609101,4.35631778 7.60135405,3.14067111 6.1027414,3.13959556 C4.60447059,3.14133111 3.3903929,4.35673333 3.38865927,5.85642444 C3.39022198,7.35650667 4.60437292,8.57200667 6.10247281,8.57359556 L6.10264373,8.57359556 Z M6.10264373,4.18738222 C7.0230788,4.18843333 7.7689545,4.93516222 7.77002886,5.85649778 C7.76897891,6.77807778 7.0230788,7.52475778 6.10276582,7.52580889 C5.18220866,7.52475778 4.43635738,6.77802889 4.43530744,5.85669333 C4.43564928,4.9346 5.18181798,4.18718667 6.10257048,4.18613556 L6.10264373,4.18738222 Z" id="形状"></path>
            </g>
        </g>
    </g>
</svg>