<?xml version="1.0" encoding="UTF-8"?>
<svg width="63px" height="59px" viewBox="0 0 63 59" version="1.1" xmlns="http://www.w3.org/2000/svg" xmlns:xlink="http://www.w3.org/1999/xlink">
    <!-- Generator: Sketch 52.2 (67145) - http://www.bohemiancoding.com/sketch -->
    <title>默认插件图标@1x</title>
    <desc>Created with Sketch.</desc>
    <g id="时光宝库web版" stroke="none" stroke-width="1" fill="none" fill-rule="evenodd">
        <g id="切图" transform="translate(-8.000000, -971.000000)" fill="#FFCD8B" fill-rule="nonzero">
            <g id="钻石" transform="translate(8.000000, 971.000000)">
                <path d="M23.988825,0 L9.45,0 L0,17.3423423 L17.325,17.3423423 L23.988825,0 Z M63,17.3423423 L53.55,0 L39.01275,0 L45.675,17.3423423 L63,17.3423423 Z M42.525,17.3423423 L35.86275,0 L27.138825,0 L20.475,17.3423423 L42.525,17.3423423 Z M36.346275,52.5126126 L63,20.4954955 L45.675,20.4954955 L36.346275,52.5126126 Z M0,20.4954955 L26.653725,52.5126126 L17.325,20.4954955 L0,20.4954955 Z M20.475,20.4954955 L31.5,58.3333333 L42.525,20.4954955 L20.475,20.4954955 Z" id="形状"></path>
            </g>
        </g>
    </g>
</svg>