<?xml version="1.0" encoding="UTF-8"?>
<svg width="18px" height="13px" viewBox="0 0 18 13" version="1.1" xmlns="http://www.w3.org/2000/svg" xmlns:xlink="http://www.w3.org/1999/xlink">
    <!-- Generator: Sketch 52.2 (67145) - http://www.bohemiancoding.com/sketch -->
    <title>阅读数@1x</title>
    <desc>Created with Sketch.</desc>
    <g id="时光宝库-web" stroke="none" stroke-width="1" fill="none" fill-rule="evenodd">
        <g id="切图" transform="translate(-40.000000, -826.000000)" fill="#7F7F7F" fill-rule="nonzero">
            <path d="M49.9214076,826.000904 C49.8808035,826 49.8406407,826 49.800478,826 C47.4158699,826 45.582948,827.380383 43.9596667,829.045972 C43.9539292,829.04778 43.9481917,829.046424 43.9424541,829.048684 C43.5748105,829.182022 42.8633561,829.322139 42.5186626,829.130043 C42.416711,829.073092 42.3571289,828.989021 42.3266758,828.857492 C42.2598797,828.626496 42.0281948,828.489482 41.7994504,828.545699 C41.570706,828.601917 41.4249697,828.831689 41.4678109,829.068572 C41.5569634,829.449601 41.7754311,829.746107 42.0989398,829.925548 C42.359777,830.070186 42.663425,830.121713 42.9586875,830.12578 L42.8805687,830.213015 C41.8906231,831.325819 41.2502259,830.738229 41.0088081,830.518561 C40.7352534,830.278917 40.3949075,830.140476 40.1549804,830.41532 C39.9150533,830.690164 39.9647645,831.045214 40.2278268,831.296878 C41.3753339,832.347307 42.5959831,832.04884 43.7505518,830.749816 C45.5172714,828.76286 47.4481019,826.992845 49.8393302,826.992845 C49.8706659,826.992845 49.9020017,826.992845 49.9333375,826.993749 C52.3444265,827.040756 54.5885117,828.357099 56.6319571,831.410755 C56.6319571,831.410755 57.0227421,831.812646 57.0616325,832.149024 C57.1005228,832.485403 56.6641249,833.117183 56.76765,832.927351 C55.0097574,835.823262 52.6773752,837.238117 50.0615003,837.281057 C47.8432808,837.244445 45.8778342,836.30237 43.9084505,834.475044 C43.6288509,834.215612 43.12506,833.866757 42.930024,834.103735 C42.7349879,834.340713 42.7132481,834.600288 42.9516259,834.880733 C44.7179041,836.918312 47.314801,838.160385 49.9192008,838.203325 C52.0875479,838.167617 55.2047952,837.248266 57.7293108,833.088586 C58.0934237,832.529924 58.0916583,831.8777 57.7151877,831.284235 C55.406933,827.834634 52.7844378,826.056951 49.9214076,826.000904 Z M53.1256005,832.10234 C53.1256005,830.318781 51.692982,828.867436 49.932,828.867436 C48.1710179,828.867436 46.7383994,830.318781 46.7383994,832.10234 C46.7383994,833.8859 48.1710179,835.337245 49.932,835.337245 C51.692982,835.337245 53.1256005,833.8859 53.1256005,832.10234 Z M49.9315586,829.771419 C51.2057329,829.771419 52.2424614,830.816876 52.2424614,832.10234 C52.2424614,833.387805 51.2057329,834.433262 49.9315586,834.433262 C48.6573844,834.433262 47.6206558,833.387805 47.6206558,832.10234 C47.6206558,830.816876 48.6573844,829.771419 49.9315586,829.771419 Z" id="阅读数"></path>
        </g>
    </g>
</svg>