<?xml version="1.0" encoding="UTF-8"?>
<svg width="19px" height="14px" viewBox="0 0 19 14" version="1.1" xmlns="http://www.w3.org/2000/svg" xmlns:xlink="http://www.w3.org/1999/xlink">
    <!-- Generator: Sketch 52.2 (67145) - http://www.bohemiancoding.com/sketch -->
    <title>阅读数@1x</title>
    <desc>Created with Sketch.</desc>
    <g id="网页版web" stroke="none" stroke-width="1" fill="none" fill-rule="evenodd">
        <g id="切图" transform="translate(-752.000000, -823.000000)" fill="#7F7F7F" fill-rule="nonzero" stroke="#7F7F7F" stroke-width="0.1">
            <path d="M762.41117,824.000894 C762.371017,824 762.3313,824 762.291584,824 C759.933471,824 758.120915,825.365045 756.51567,827.012128 C756.509997,827.013916 756.504323,827.012575 756.498649,827.01481 C756.13509,827.146666 755.431541,827.285227 755.090677,827.095264 C754.989859,827.038946 754.930939,826.95581 754.900824,826.825742 C754.83477,826.597313 754.605659,826.461821 754.379457,826.517414 C754.153254,826.573007 754.009137,826.800226 754.051502,827.034477 C754.139664,827.411272 754.355704,827.704484 754.675618,827.881931 C754.933557,828.024961 755.233831,828.075916 755.525813,828.079938 L755.448562,828.166204 C754.469616,829.266643 753.836334,828.685582 753.597599,828.468355 C753.327084,828.231373 752.99052,828.094471 752.753258,828.366261 C752.515997,828.638051 752.565156,828.989156 752.825295,829.238024 C753.960052,830.276781 755.167139,829.981631 756.308879,828.69704 C758.055968,826.732162 759.965345,824.981813 762.330004,824.981813 C762.360992,824.981813 762.391979,824.981813 762.422967,824.982707 C764.807266,825.029192 767.026417,826.330909 769.047158,829.350635 C769.047158,829.350635 769.433601,829.748061 769.472059,830.080702 C769.510517,830.413343 769.078968,831.038103 769.181343,830.85038 C767.442982,833.714114 765.136515,835.113249 762.549706,835.155712 C760.356133,835.119507 758.412525,834.1879 756.465023,832.380876 C756.18853,832.124328 755.690337,831.779349 755.497468,832.013693 C755.304599,832.248038 755.283101,832.504729 755.51883,832.782059 C757.265483,834.796998 759.833525,836.02527 762.408987,836.067732 C764.553242,836.032422 767.635853,835.123285 770.132318,831.009824 C770.492386,830.45737 770.49064,829.812393 770.118352,829.225522 C767.835745,825.81425 765.242389,824.056318 762.41117,824.000894 Z M765.579761,830.034537 C765.579761,828.270795 764.16306,826.835575 762.421644,826.835575 C760.680229,826.835575 759.263528,828.270795 759.263528,830.034537 C759.263528,831.798279 760.680229,833.233498 762.421644,833.233498 C764.16306,833.233498 765.579761,831.798279 765.579761,830.034537 Z M762.421208,827.729514 C763.681225,827.729514 764.706434,828.763355 764.706434,830.034537 C764.706434,831.305718 763.681225,832.339559 762.421208,832.339559 C761.161191,832.339559 760.135982,831.305718 760.135982,830.034537 C760.135982,828.763355 761.161191,827.729514 762.421208,827.729514 Z" id="阅读数"></path>
        </g>
    </g>
</svg>