<?xml version="1.0" encoding="UTF-8"?>
<svg width="24px" height="24px" viewBox="0 0 24 24" version="1.1" xmlns="http://www.w3.org/2000/svg" xmlns:xlink="http://www.w3.org/1999/xlink">
    <!-- Generator: Sketch 52.2 (67145) - http://www.bohemiancoding.com/sketch -->
    <title>减号</title>
    <desc>Created with Sketch.</desc>
    <g id="家庭树定版-copy" stroke="none" stroke-width="1" fill="none" fill-rule="evenodd">
        <g id="家庭树-加故事-编辑故事" transform="translate(-966.000000, -673.000000)" fill="#666666" fill-rule="nonzero">
            <g id="Group-7" transform="translate(410.000000, 20.000000)">
                <g id="展开" transform="translate(364.000000, 653.000000)">
                    <g id="减号" transform="translate(192.000000, 0.000000)">
                        <path d="M11.999964,0 C5.37277725,0 0.000491671875,5.37233355 0.000491671875,11.9995203 C0.000491671875,18.6267071 5.37277727,23.9990407 11.999964,23.9990407 C18.6271508,23.9990407 23.9994844,18.6267071 23.9994844,11.9995203 C23.9994844,5.37233355 18.6271508,0 11.999964,0 Z M11.999964,23.0713256 C5.88516586,23.0713256 0.928158703,18.1143185 0.928158703,11.9995203 C0.928158703,5.88472216 5.88518984,0.927738984 11.999964,0.927738984 C18.1147382,0.927738984 23.0717693,5.88474614 23.0717693,11.9995443 C23.0717693,18.1143425 18.1147622,23.0713256 11.999964,23.0713256 Z M5.53874473,12.4658841 L18.4612553,12.4658841 L18.4612553,11.542846 L5.53874473,11.542846 L5.53874473,12.4658841 Z" id="Shape"></path>
                    </g>
                </g>
            </g>
        </g>
    </g>
</svg>