<?xml version="1.0" encoding="UTF-8"?>
<svg width="24px" height="24px" viewBox="0 0 24 24" version="1.1" xmlns="http://www.w3.org/2000/svg" xmlns:xlink="http://www.w3.org/1999/xlink">
    <!-- Generator: Sketch 52.2 (67145) - http://www.bohemiancoding.com/sketch -->
    <title>回到顶部-默认灰色@1x</title>
    <desc>Created with Sketch.</desc>
    <g id="时光宝库-web" stroke="none" stroke-width="1" fill="none" fill-rule="evenodd">
        <g id="切图" transform="translate(-5.000000, -848.000000)" fill="#4A4A4A" fill-rule="nonzero" stroke="#5C5C5C" stroke-width="0.2">
            <g id="回到顶部-默认灰色" transform="translate(6.000000, 849.000000)">
                <g id="回到顶部" transform="translate(11.000000, 11.000000) scale(1, -1) translate(-11.000000, -11.000000) ">
                    <path d="M1.17222318,7.71398052 C0.999543084,7.54066562 0.747921462,7.47304384 0.512141745,7.53658764 C0.276362028,7.60013144 0.0922447652,7.78518702 0.0291451467,8.02204572 C-0.0339544718,8.25890442 0.0335498873,8.51158178 0.206229985,8.68489668 L10.5083358,19.0328733 C10.6364756,19.1617183 10.810356,19.2341148 10.9916739,19.2341148 C11.1729919,19.2341148 11.3468723,19.1617183 11.4750121,19.0328733 L21.7784842,8.68489668 C21.9511643,8.51158177 22.0186687,8.25890441 21.9555691,8.0220457 C21.8924695,7.78518699 21.7083522,7.60013141 21.4725725,7.53658761 C21.2367927,7.47304381 20.9851711,7.54066561 20.812491,7.71398052 L11.7311984,16.8351033 L11.7311984,0.70554386 C11.7311984,0.323352816 11.4251412,0.0214425058 11.0480349,0.0214425058 C10.668196,0.0214425058 10.3648714,0.327469807 10.3648714,0.70554386 L10.3648714,16.9469474 L1.17222318,7.71398052 Z M21.9786511,21.2923977 C21.9786511,21.6711579 21.6678117,21.9785575 21.2954876,21.9785575 L0.800582242,21.9785575 C0.423475983,21.9785575 0.117418739,21.6739025 0.117418739,21.2923977 C0.117418739,20.9136374 0.428258148,20.6062378 0.800582242,20.6062378 L21.2954876,20.6062378 C21.6725939,20.6062378 21.9786511,20.9108928 21.9786511,21.2923977 Z" id="形状"></path>
                </g>
            </g>
        </g>
    </g>
</svg>