<?xml version="1.0" encoding="UTF-8"?>
<svg width="24px" height="24px" viewBox="0 0 24 24" version="1.1" xmlns="http://www.w3.org/2000/svg" xmlns:xlink="http://www.w3.org/1999/xlink">
    <!-- Generator: Sketch 52.2 (67145) - http://www.bohemiancoding.com/sketch -->
    <title>head-搜索@1x</title>
    <desc>Created with Sketch.</desc>
    <defs>
        <polygon id="path-1" points="0 0 24 0 24 24 0 24"></polygon>
    </defs>
    <g id="时光宝库-web" stroke="none" stroke-width="1" fill="none" fill-rule="evenodd">
        <g id="切图" transform="translate(-53.000000, -790.000000)">
            <g id="head-搜索" transform="translate(53.000000, 790.000000)">
                <mask id="mask-2" fill="white">
                    <use xlink:href="#path-1"></use>
                </mask>
                <g id="Clip-2"></g>
                <path d="M1.75786971,10.5691076 C1.75786971,5.71260022 5.70455163,1.7615009 10.5557432,1.7615009 C15.4068326,1.7615009 19.3535656,5.71260022 19.3535656,10.5691076 C19.3535656,15.425615 15.4068326,19.3767144 10.5557432,19.3767144 C5.70455163,19.3767144 1.75786971,15.425615 1.75786971,10.5691076 M23.6486974,21.2122137 L19.1406467,16.6991757 C20.3776283,14.9676217 21.1149065,12.855548 21.1149065,10.5691076 C21.1149065,4.740246 16.3798479,0 10.5574788,0 C4.73505862,0 0,4.740246 0,10.5691076 C0,16.3979693 4.73505862,21.1382153 10.5574788,21.1382153 C12.8273543,21.1382153 14.9264762,20.4106999 16.6491232,19.1864545 L21.1623807,23.7047562 C21.5037349,24.0464881 22.2234017,24.1186979 22.5665426,23.776966 L23.8105688,22.5316147 C24.151872,22.1863055 23.9917872,21.5574718 23.6486974,21.2122137" id="Fill-1" fill="#FFFFFF" mask="url(#mask-2)"></path>
            </g>
        </g>
    </g>
</svg>