<?xml version="1.0" standalone="no"?><!DOCTYPE svg PUBLIC "-//W3C//DTD SVG 1.1//EN" "http://www.w3.org/Graphics/SVG/1.1/DTD/svg11.dtd"><svg t="1583371749794" class="icon" viewBox="0 0 1024 1024" version="1.1" xmlns="http://www.w3.org/2000/svg" p-id="2915" xmlns:xlink="http://www.w3.org/1999/xlink" width="200" height="200"><defs><style type="text/css"></style></defs><path d="M439.691869 506.887304l20.450784 2.921541c-1.46077 1.46077-2.921541 4.382311-4.382311 8.764621-2.921541 5.843081-5.843081 10.225392-7.303851 13.146933h74.499286v17.529244H438.231098c-7.303852 13.146933-20.450785 27.754636-36.519258 42.36234l-7.303851-7.303852c-2.921541-2.921541-4.382311-5.843081-5.843082-5.843081 20.450785-20.450785 36.519258-43.82311 51.126962-71.577746z m96.410841 65.734665l-5.843081 5.843081c30.676177 30.676177 70.116976 51.126961 115.400856 62.813124 0 1.46077-1.46077 4.382311-4.382311 8.764622-2.921541 4.382311-4.382311 8.764622-5.843081 11.686163-23.372325-7.303852-43.82311-16.068474-61.352354-26.293866v14.607703h-113.940086v-16.068474c-17.529244 10.225392-37.980029 20.450785-61.352353 30.676177-1.46077-5.843081-5.843081-13.146933-10.225393-18.990014 54.048502-18.990014 96.410842-45.28388 128.547789-78.881598l18.990014 5.843082z m-137.31241 157.763195h151.920114c14.607703-20.450785 26.293866-42.36234 37.980028-68.656205l18.990014 10.225392c-13.146933 23.372325-24.833096 43.82311-35.058487 59.891583h64.273894v17.529244H398.7903v-18.990014z m26.293865-61.352354l17.529244-5.843081c8.764622 17.529244 17.529244 35.058488 26.293866 55.509272l-17.529244 7.303852c-10.225392-23.372325-18.990014-40.901569-26.293866-56.970043z m39.440799-74.499286c-1.46077-2.921541-5.843081-8.764622-10.225392-13.146933-4.382311-5.843081-8.764622-11.686163-11.686163-13.146933l13.146933-10.225393c7.303852 7.303852 14.607703 16.068474 21.911555 24.833096l-13.146933 11.686163z m52.587732-2.921541c-16.068474 16.068474-33.597718 29.215407-54.048502 39.440799H569.700428c-16.068474-7.303852-33.597718-20.450785-52.587732-39.440799z m-18.990014 70.116976l17.529244-5.843082c7.303852 23.372325 13.146933 42.36234 17.529244 56.970043l-18.990015 5.843081c-2.921541-17.529244-8.764622-37.980029-16.068473-56.970042z m52.587732-154.841655l20.450784 2.921541c-4.382311 7.303852-7.303852 14.607703-10.225392 21.911554H642.738944v17.529244h-93.489301c-1.46077 2.921541-5.843081 8.764622-10.225392 14.607704-1.46077 2.921541-2.921541 4.382311-4.382311 5.843081-4.382311-4.382311-10.225392-8.764622-16.068474-11.686163 13.146933-13.146933 23.372325-29.215407 32.136948-51.126961z m42.362339 90.56776c-8.764622-10.225392-17.529244-18.990014-29.215406-29.215406l13.146933-11.686163c10.225392 8.764622 20.450785 17.529244 29.215406 27.754636l-13.146933 13.146933z" p-id="2916" fill="#ffffff"></path><path d="M511.269615 0c-281.928673 0-511.269615 229.340942-511.269615 511.269615s229.340942 511.269615 511.269615 511.269615 511.269615-229.340942 511.269615-511.269615-229.340942-511.269615-511.269615-511.269615z m0 993.323823c-265.8602 0-482.054208-216.194009-482.054208-482.054208s216.194009-482.054208 482.054208-482.054208 482.054208 216.194009 482.054208 482.054208-216.194009 482.054208-482.054208 482.054208z" p-id="2917" fill="#ffffff"></path><path d="M765.443652 267.32097h-89.10699v29.215407h89.10699c4.382311 0 7.303852 2.921541 7.303852 7.303851v100.793153c0 4.382311-2.921541 7.303852-7.303852 7.303852H257.095578c-4.382311 0-7.303852-2.921541-7.303852-7.303852v-100.793153c0-4.382311 2.921541-7.303852 7.303852-7.303851h89.10699v-29.215407h-89.10699c-20.450785 0-36.519258 16.068474-36.519258 36.519258v100.793153c0 20.450785 16.068474 36.519258 36.519258 36.519258h509.808844c20.450785 0 36.519258-16.068474 36.519258-36.519258v-100.793153c-1.46077-20.450785-17.529244-36.519258-37.980028-36.519258z" p-id="2918" fill="#ffffff"></path><path d="M451.378031 267.32097H569.700428v29.215407h-118.322397zM765.443652 455.760342h-89.10699v29.215407h89.10699c4.382311 0 7.303852 2.921541 7.303852 7.303852v287.771754c0 4.382311-2.921541 7.303852-7.303852 7.303852H257.095578c-4.382311 0-7.303852-2.921541-7.303852-7.303852V492.279601c0-4.382311 2.921541-7.303852 7.303852-7.303852h89.10699v-29.215407h-89.10699c-20.450785 0-36.519258 16.068474-36.519258 36.519259v287.771754c0 20.450785 16.068474 36.519258 36.519258 36.519258h509.808844c20.450785 0 36.519258-16.068474 36.519258-36.519258V492.279601c-1.46077-18.990014-17.529244-36.519258-37.980028-36.519259zM388.564907 346.202568c8.764622 0 14.607703-5.843081 14.607704-14.607704V220.57632c0-8.764622-5.843081-14.607703-14.607704-14.607704s-14.607703 5.843081-14.607703 14.607704v111.018544c0 7.303852 5.843081 14.607703 14.607703 14.607704zM625.2097 346.202568c8.764622 0 14.607703-5.843081 14.607704-14.607704V220.57632c0-8.764622-5.843081-14.607703-14.607704-14.607704s-14.607703 5.843081-14.607703 14.607704v111.018544c0 7.303852 5.843081 14.607703 14.607703 14.607704z" p-id="2919" fill="#ffffff"></path></svg>