<?xml version="1.0" standalone="no"?><!DOCTYPE svg PUBLIC "-//W3C//DTD SVG 1.1//EN" "http://www.w3.org/Graphics/SVG/1.1/DTD/svg11.dtd"><svg t="1583724399738" class="icon" viewBox="0 0 1024 1024" version="1.1" xmlns="http://www.w3.org/2000/svg" p-id="2666" xmlns:xlink="http://www.w3.org/1999/xlink" width="200" height="200"><defs><style type="text/css"></style></defs><path d="M817.52802 103.262852l102.085026 0c22.63144 0 40.97318 18.431791 40.97318 41.052998l0 163.135474c0 22.672372-18.361183 41.052998-40.97318 41.052998l-817.273728 0c-22.63144 0-40.97318-18.430768-40.97318-41.052998l0-163.135474c0-22.671349 18.371416-41.052998 40.97318-41.052998l102.085026 0 0 61.310368-61.370743 0c-11.116175 0-20.377096 9.060353-20.377096 20.247136l0 82.127486c0 11.026124 9.120728 20.246113 20.377096 20.246113l735.845161 0c11.116175 0 20.377096-9.060353 20.377096-20.246113l0-82.127486c0-11.026124-9.120728-20.247136-20.377096-20.247136l-61.370743 0L817.52802 103.262852zM633.596917 103.262852 388.355447 103.262852l0 61.310368 245.24147 0L633.596917 103.262852zM163.550425 389.379265l-61.211107 0c-22.601764 0-40.97318 18.222013-40.97318 40.693818l0 490.843144c0 22.292726 18.34174 40.694841 40.97318 40.694841l817.273728 0c22.611997 0 40.97318-18.222013 40.97318-40.694841L960.586227 430.073082c0-22.302959-18.34174-40.693818-40.97318-40.693818l-61.210084 0 0 61.310368 20.4958 0c11.256368 0 20.377096 8.980535 20.377096 20.487613l0 408.647097c0 11.296277-9.260921 20.476357-20.377096 20.476357L143.053602 900.3007c-11.256368 0-20.377096-8.979512-20.377096-20.476357l0-408.647097c0-11.316743 9.260921-20.487613 20.377096-20.487613l20.496823 0L163.550425 389.379265zM694.907285 92.984764c0-16.894785 13.612019-30.594809 30.655184-30.594809 16.924461 0 30.655184 13.730723 30.655184 30.594809l0 143.177933c0 16.893762-13.610996 30.594809-30.655184 30.594809-16.923438 0-30.655184-13.731746-30.655184-30.594809L694.907285 92.984764zM265.734712 92.984764c0-16.894785 13.612019-30.594809 30.655184-30.594809 16.944927 0 30.655184 13.730723 30.655184 30.594809l0 143.177933c0 16.893762-13.610996 30.594809-30.655184 30.594809-16.944927 0-30.655184-13.731746-30.655184-30.594809L265.734712 92.984764zM644.514571 695.612854c-12.593829 39.556924-28.321022 75.240635-47.201022 106.993826l102.503559 0 0 22.932292L323.033719 825.538973l0-22.932292 248.195755 0c18.281365-30.275537 34.766828-68.196195 49.455365-113.738437L644.514571 695.612854zM397.235698 695.15339c12.573363 23.091928 24.568559 51.710732 35.96512 85.879949l-22.033829 5.38873c-9.001001-28.180829-20.995173-56.202023-35.964096-84.062558L397.235698 695.15339zM501.097184 685.71339c11.675924 29.078269 21.255093 59.793828 28.758997 92.165096l-22.013363 5.38873c-8.702196-33.249265-18.441001-63.384609-29.237905-90.369194L501.097184 685.71339zM395.440819 644.799562l231.531214 0 0 21.595854L395.440819 666.395416 395.440819 644.799562zM372.050086 495.075539c-11.69639 23.381523-25.186635 44.50461-40.47483 63.385633l-20.676925-13.032828c28.180829-34.466999 48.697095-72.825632 61.590753-115.096365l23.829731 4.949732c-5.988388 16.784268-10.638291 29.218462-13.930267 37.321l124.097366 0 0 22.472827-71.050196 0c9.001001 19.487843 15.446807 35.824927 19.338441 49.015344l-22.033829 8.082072c-5.987365-19.178805-13.192464-38.207184-21.574365-57.098439L372.050086 495.074515zM561.788451 495.075539c-8.102538 16.485463-17.083074 31.773657-26.982538 45.861514l-20.236903-13.490246c20.996197-28.76923 36.56273-61.141522 46.761-97.114828l23.370267 4.949732c-3.591805 11.685133-7.942903 24.128537-13.012362 37.321l135.752824 0 0 22.472827-77.316923 0c10.777461 18.890232 19.320021 36.422538 25.625634 52.609195l-22.471804 8.540514c-7.205099-18.878976-16.804734-39.265282-28.779464-61.149708L561.788451 495.075539zM518.620279 544.990369c57.259098 42.25129 122.282021 75.380828 195.128119 99.370195l-11.695367 21.115923c-75.240635-25.786293-138.906653-59.196217-191.07685-100.269681-48.856731 38.380122-112.542192 71.649853-191.096293 99.830683l-11.6749-21.595854c77.616752-26.364461 142.67856-59.19417 195.128119-98.451266L518.620279 544.990369z" p-id="2667"></path></svg>