<?xml version="1.0" encoding="UTF-8"?>
<svg width="54px" height="52px" viewBox="0 0 54 52" version="1.1" xmlns="http://www.w3.org/2000/svg" xmlns:xlink="http://www.w3.org/1999/xlink">
    <!-- Generator: Sketch 52.2 (67145) - http://www.bohemiancoding.com/sketch -->
    <title>排序@1x</title>
    <desc>Created with Sketch.</desc>
    <g id="首页" stroke="none" stroke-width="1" fill="none" fill-rule="evenodd">
        <g id="切图" transform="translate(-3551.000000, -519.000000)">
            <g id="排序" transform="translate(3554.000000, 522.000000)">
                <path d="M41.6436677,36.9752557 L44.4434085,32.1383799 C44.9631722,31.2404858 46.1143127,30.9328335 47.0145117,31.4512663 C47.9147578,31.9696522 48.2231998,33.1178452 47.7034361,34.0157393 L41.4216648,44.868285 C41.2054747,45.2430865 40.8657163,45.531553 40.4602479,45.6845609 C40.2379987,45.773127 40.0008191,45.8184819 39.761489,45.818182 C38.7220088,45.818182 37.8793103,44.9776412 37.8793103,43.9408225 L37.8793103,5.87735946 C37.8793103,4.84054076 38.7220088,4 39.761489,4 C40.8009693,4 41.6436677,4.84054076 41.6436677,5.87735946 L41.6436677,36.9752557 Z" id="路径" fill="#C4D5F2"></path>
                <path d="M5.78082192,1.64554637 L28.2191781,1.64554637 C29.2026815,1.64554637 30,2.56648669 30,3.70247934 C30,4.83847199 29.2026815,5.7594123 28.2191781,5.7594123 L5.78082192,5.7594123 C4.79731849,5.7594123 4,4.83847199 4,3.70247934 C4,2.56648669 4.79731849,1.64554637 5.78082192,1.64554637 Z" id="路径" fill="#C4D5F2"></path>
                <path d="M5.78082192,20.8264463 L28.2191781,20.8264463 C29.2026815,20.8264463 30,21.7473866 30,22.8833792 C30,24.0193719 29.2026815,24.9403122 28.2191781,24.9403122 L5.78082192,24.9403122 C4.79731849,24.9403122 4,24.0193719 4,22.8833792 C4,21.7473866 4.79731849,20.8264463 5.78082192,20.8264463 Z" id="路径" fill="#C4D5F2"></path>
                <path d="M5.78082192,40.0073462 L28.2191781,40.0073462 C29.2026815,40.0073462 30,40.9282865 30,42.0642792 C30,43.2002718 29.2026815,44.1212121 28.2191781,44.1212121 L5.78082192,44.1212121 C4.79731849,44.1212121 4,43.2002718 4,42.0642792 C4,40.9282865 4.79731849,40.0073462 5.78082192,40.0073462 Z" id="路径" fill="#C4D5F2"></path>
                <path d="M42.5172414,30.5595209 L42.7977117,30.0765574 C43.7841066,28.3781169 45.9632454,27.7976449 47.6677637,28.7760888 C49.3775864,29.7574374 49.9648903,31.9365231 48.975518,33.6400902 L42.0714851,45.5287398 C41.6600524,46.2396991 41.0142697,46.7862014 40.2700967,47.0658374 C39.8489519,47.2331154 39.3996836,47.3187469 38.9482759,47.3181818 C36.979163,47.3181818 35.3793103,45.7276335 35.3793103,43.7612489 L35.3793103,2.05693297 C35.3793103,0.0905483502 36.979163,-1.5 38.9482759,-1.5 C40.9173887,-1.5 42.5172414,0.0905483502 42.5172414,2.05693297 L42.5172414,30.5595209 Z M2.06896552,0.145546373 L28.137931,0.145546373 C30.1070439,0.145546373 31.7068966,1.73609472 31.7068966,3.70247934 C31.7068966,5.66886395 30.1070439,7.2594123 28.137931,7.2594123 L2.06896552,7.2594123 C0.0998526663,7.2594123 -1.5,5.66886395 -1.5,3.70247934 C-1.5,1.73609472 0.0998526663,0.145546373 2.06896552,0.145546373 Z M2.06896552,19.3264463 L28.137931,19.3264463 C30.1070439,19.3264463 31.7068966,20.9169946 31.7068966,22.8833792 C31.7068966,24.8497639 30.1070439,26.4403122 28.137931,26.4403122 L2.06896552,26.4403122 C0.0998526663,26.4403122 -1.5,24.8497639 -1.5,22.8833792 C-1.5,20.9169946 0.0998526663,19.3264463 2.06896552,19.3264463 Z M2.06896552,38.5073462 L28.137931,38.5073462 C30.1070439,38.5073462 31.7068966,40.0978945 31.7068966,42.0642792 C31.7068966,44.0306638 30.1070439,45.6212121 28.137931,45.6212121 L2.06896552,45.6212121 C0.0998526663,45.6212121 -1.5,44.0306638 -1.5,42.0642792 C-1.5,40.0978945 0.0998526663,38.5073462 2.06896552,38.5073462 Z" id="形状" stroke="#7296D3" stroke-width="3" fill-rule="nonzero"></path>
            </g>
        </g>
    </g>
</svg>