<?xml version="1.0" encoding="UTF-8"?>
<svg width="18px" height="24px" viewBox="0 0 18 24" version="1.1" xmlns="http://www.w3.org/2000/svg" xmlns:xlink="http://www.w3.org/1999/xlink">
    <!-- Generator: Sketch 52.2 (67145) - http://www.bohemiancoding.com/sketch -->
    <title>排序@1x</title>
    <desc>Created with Sketch.</desc>
    <g id="时光宝库-web" stroke="none" stroke-width="1" fill="none" fill-rule="evenodd">
        <g id="切图" transform="translate(-252.000000, -779.000000)" fill="#4A4A4A" stroke="#4A4A4A" stroke-width="0.2">
            <g id="排序" transform="translate(253.000000, 780.000000)">
                <path d="M5.03230528,21.7558297 L0.178625954,16.646345 C-0.0595419847,16.3954678 -0.0595419847,15.9869883 0.178625954,15.7361111 C0.416793893,15.4852339 0.804580153,15.4852339 1.04274809,15.7361111 L4.8778626,19.7758772 L4.8778626,0.699561404 C4.8778626,0.345760234 5.15267176,0.0562865497 5.48854962,0.0562865497 C5.82442748,0.0562865497 6.09923664,0.345760234 6.09923664,0.699561404 L6.09923664,21.2853071 C6.11126377,21.4650178 6.05223069,21.6490757 5.9221374,21.7861111 C5.82582366,21.8850281 5.70862365,21.9439436 5.58700765,21.9644348 C5.55492578,21.9698146 5.5220413,21.9726608 5.48854962,21.9726608 C5.30760573,21.9726608 5.14438511,21.8886502 5.03230528,21.7558297 Z M9.92300235,0.363447212 C9.9519818,0.300042579 9.99138814,0.240650356 10.0412214,0.188157895 C10.2793893,-0.0627192982 10.6671756,-0.0627192982 10.9053435,0.188157895 L15.7847328,5.32792398 C16.0229008,5.57880117 16.0229008,5.9872807 15.7847328,6.23815789 C15.6625954,6.36359649 15.5068702,6.42792398 15.351145,6.42792398 C15.1954198,6.42792398 15.0396947,6.36359649 14.9206107,6.23815789 L11.0824427,2.19517544 L11.0824427,21.277924 C11.0824427,21.6317251 10.810687,21.9211988 10.4717557,21.9211988 C10.1358779,21.9211988 9.8610687,21.6317251 9.8610687,21.277924 L9.8610687,0.644883041 C9.8610687,0.544119643 9.88335912,0.448574 9.92300235,0.363447212 Z" id="合并形状"></path>
            </g>
        </g>
    </g>
</svg>