<?xml version="1.0" encoding="UTF-8"?>
<svg width="36px" height="34px" viewBox="0 0 36 34" version="1.1" xmlns="http://www.w3.org/2000/svg" xmlns:xlink="http://www.w3.org/1999/xlink">
    <!-- Generator: Sketch 52.2 (67145) - http://www.bohemiancoding.com/sketch -->
    <title>排序 2@1x</title>
    <desc>Created with Sketch.</desc>
    <g id="时光宝库-web" stroke="none" stroke-width="1" fill="none" fill-rule="evenodd">
        <g id="切图" transform="translate(-596.000000, -78.000000)" fill-rule="nonzero" stroke="#4A90E2" stroke-width="1.9968">
            <g id="排序-2" transform="translate(598.000000, 80.000000)">
                <g id="排序">
                    <path d="M28.3432276,19.9249446 L28.538043,19.5967698 C29.1971876,18.4864836 30.6398695,18.1105409 31.76952,18.7448968 C32.9154918,19.3883262 33.312947,20.8309537 32.6441106,21.957565 L28.0414416,29.7109989 C27.7654054,30.1776226 27.3342248,30.5345824 26.8391896,30.7165589 C26.5605311,30.8248355 26.2636686,30.880188 25.9655172,30.8798229 C24.6584761,30.8798229 23.5878069,29.8385205 23.5878069,28.5399449 L23.5878069,1.34147802 C23.5878069,0.0429024201 24.6584761,-0.9984 25.9655172,-0.9984 C27.2725584,-0.9984 28.3432276,0.0429024201 28.3432276,1.34147802 L28.3432276,19.9249446 Z M1.37931034,0.0747824171 L18.7586207,0.0747824171 C20.0656618,0.0747824171 21.136331,1.11608484 21.136331,2.41466044 C21.136331,3.71323604 20.0656618,4.75453846 18.7586207,4.75453846 L1.37931034,4.75453846 C0.0722692002,4.75453846 -0.9984,3.71323604 -0.9984,2.41466044 C-0.9984,1.11608484 0.0722692002,0.0747824171 1.37931034,0.0747824171 Z M1.37931034,12.584065 L18.7586207,12.584065 C20.0656618,12.584065 21.136331,13.6253674 21.136331,14.923943 C21.136331,16.2225186 20.0656618,17.263821 18.7586207,17.263821 L1.37931034,17.263821 C0.0722692002,17.263821 -0.9984,16.2225186 -0.9984,14.923943 C-0.9984,13.6253674 0.0722692002,12.584065 1.37931034,12.584065 Z M1.37931034,25.0933475 L18.7586207,25.0933475 C20.0656618,25.0933475 21.136331,26.1346499 21.136331,27.4332255 C21.136331,28.7318011 20.0656618,29.7731036 18.7586207,29.7731036 L1.37931034,29.7731036 C0.0722692002,29.7731036 -0.9984,28.7318011 -0.9984,27.4332255 C-0.9984,26.1346499 0.0722692002,25.0933475 1.37931034,25.0933475 Z" id="形状"></path>
                </g>
            </g>
        </g>
    </g>
</svg>