<?xml version="1.0" encoding="UTF-8"?>
<svg width="28px" height="28px" viewBox="0 0 28 28" version="1.1" xmlns="http://www.w3.org/2000/svg" xmlns:xlink="http://www.w3.org/1999/xlink">
    <!-- Generator: Sketch 52.2 (67145) - http://www.bohemiancoding.com/sketch -->
    <title>五角星-已@1x</title>
    <desc>Created with Sketch.</desc>
    <g id="首页" stroke="none" stroke-width="1" fill="none" fill-rule="evenodd">
        <g id="切图" transform="translate(-269.000000, -284.000000)" fill="#FF7C5D" stroke="#FF7C5D" stroke-width="1.8">
            <g id="五角星-已" transform="translate(270.000000, 285.000000)">
                <path d="M14.353618,0.878834988 L17.1980544,6.90884507 C17.4095628,7.36827837 17.8358892,7.69228643 18.3351791,7.77305989 L24.7030777,8.74773824 C25.2813349,8.85946435 25.7513108,9.28011639 25.9262067,9.84250017 C26.1011026,10.4048839 25.952582,11.0178824 25.5396766,11.4378505 L20.9310725,16.1325512 C20.5742289,16.5030406 20.4139454,17.0206479 20.4989651,17.5279658 L21.5857314,24.1557786 C21.7033077,24.7303577 21.4810474,25.3214634 21.0140296,25.6762306 C20.5470118,26.0309978 19.9179531,26.0865915 19.395954,25.8192296 L13.702208,22.6823898 C13.2656591,22.4403814 12.7352201,22.4403814 12.2986712,22.6823898 L6.60330064,25.8111073 C6.08148625,26.0789568 5.452254,26.0235145 4.9853168,25.6685451 C4.5183796,25.3135758 4.29664143,24.7221037 4.41514772,24.1476563 L5.51166088,17.5149701 C5.59583406,17.0071257 5.4343212,16.4894408 5.07630454,16.1195555 L0.46282699,11.4297282 C0.0495066954,11.0107066 -0.0995056859,10.3981393 0.0751592818,9.83608514 C0.24982425,9.27403095 0.719785552,8.85381705 1.29780145,8.74286486 L7.66407558,7.76818649 C8.16348268,7.68768639 8.58992389,7.36359108 8.80120033,6.9039717 L11.6456367,0.878834988 C11.8837589,0.344598249 12.4139125,0.000468355776 12.9988151,0.000468355776 C13.5837178,0.000468355776 14.1138713,0.344598249 14.3519936,0.878834988" id="路径"></path>
            </g>
        </g>
    </g>
</svg>