<?xml version="1.0" encoding="UTF-8"?>
<svg width="22px" height="22px" viewBox="0 0 22 22" version="1.1" xmlns="http://www.w3.org/2000/svg" xmlns:xlink="http://www.w3.org/1999/xlink">
    <!-- Generator: Sketch 52.2 (67145) - http://www.bohemiancoding.com/sketch -->
    <title>head-订阅@1x</title>
    <desc>Created with Sketch.</desc>
    <g id="时光宝库-web" stroke="none" stroke-width="1" fill="none" fill-rule="evenodd">
        <g id="切图" transform="translate(-10.000000, -791.000000)" fill="#FFFFFF">
            <g id="head-订阅" transform="translate(10.000000, 791.000000)">
                <path d="M2.63519019,16.8754648 C1.24491413,16.8754648 0.116226696,18.0060919 0.116226696,19.3925038 C0.116226696,20.7788855 1.24488386,21.9095126 2.63519019,21.9095126 C4.02038098,21.9095126 5.15415368,20.7788855 5.15415368,19.3925038 C5.14900788,18.0060919 4.02038098,16.8754648 2.63519019,16.8754648 Z M1.04994857,0.0032625695 C0.485635122,0.0032625695 0.0239048579,0.463699472 0.0239048579,1.02646239 C0.0239048579,1.58919513 0.485635123,2.04963203 1.04994857,2.04963203 C11.4695122,2.04963203 19.9446871,10.501067 19.9446871,20.8914442 C19.9446871,21.4542071 20.4064174,21.9146138 20.9707308,21.9146138 C21.5350746,21.9146138 21.9968048,21.4542071 21.9968048,20.8914442 C21.9968048,9.37047011 12.5981391,0.00326256919 1.04994857,0.0032625695 Z" id="形状" fill-rule="nonzero"></path>
                <path d="M10.7666555,11.2224201 C9.54053065,9.99459846 8.09380206,9.03795583 6.46236925,8.37796809 C4.78477552,7.69757553 2.95837716,7.35479845 1.04483303,7.35479845 C0.480489315,7.35479845 0.0187590512,7.81523536 0.0187590512,8.37796809 C0.0187590512,8.94073102 0.480489316,9.40116792 1.04483303,9.40116792 C7.72439363,9.40116792 12.5725009,14.25613 12.5725009,20.9477084 C12.5725009,21.5104713 13.0342311,21.9709082 13.5985748,21.9709082 C14.1628883,21.9709082 14.6246186,21.5104713 14.6246186,20.9477084 C14.6246186,19.0394941 14.2808786,17.2182419 13.6036904,15.5402159 C12.9470248,13.8980192 11.9927803,12.4502116 10.7666555,11.2224201" id="路径"></path>
            </g>
        </g>
    </g>
</svg>